<svg width="25" height="24" viewBox="0 0 25 24" fill="none" xmlns="http://www.w3.org/2000/svg">
<path d="M13.0916 5.42212C13.2479 5.57967 13.3359 5.79206 13.3374 6.01392C13.3364 6.12485 13.3157 6.23454 13.2761 6.33774C13.2317 6.43795 13.1692 6.52869 13.0916 6.60597C13.0136 6.68474 12.9206 6.74731 12.8182 6.79019C12.7167 6.83032 12.6088 6.85126 12.4998 6.85151C12.2772 6.85401 12.0633 6.76501 11.908 6.60597C11.8305 6.52869 11.7679 6.43795 11.7236 6.33774C11.6839 6.23453 11.6632 6.12485 11.6622 6.01392C11.6565 5.96007 11.6565 5.90598 11.6622 5.85213C11.6737 5.79903 11.6887 5.74669 11.7069 5.69558C11.7296 5.64547 11.7557 5.59711 11.7851 5.5505C11.8173 5.50513 11.853 5.46226 11.8911 5.42212C11.9302 5.38248 11.9734 5.34684 12.0197 5.31592C12.0643 5.28526 12.1132 5.26083 12.1648 5.24338C12.2149 5.2207 12.2673 5.20399 12.3211 5.19303C12.428 5.17084 12.5382 5.17084 12.6449 5.19303C12.6988 5.20399 12.7514 5.2207 12.8015 5.24338C12.8523 5.26183 12.9012 5.28626 12.9466 5.31592C12.9977 5.34758 13.046 5.38298 13.0916 5.42212L13.0916 5.42212ZM12.4998 9.04596C12.1915 9.04596 11.9414 9.29599 11.9414 9.60435V17.9803C11.9414 18.2889 12.1915 18.5387 12.4998 18.5387C12.8082 18.5387 13.0582 18.2889 13.0582 17.9803V9.60435C13.0582 9.45628 12.9994 9.31443 12.8947 9.20949C12.79 9.10479 12.6479 9.04596 12.4998 9.04596ZM24.4999 12C24.4999 15.1826 23.2356 18.2348 20.985 20.485C18.7347 22.7356 15.6825 23.9999 12.5 23.9999C9.31743 23.9999 6.26514 22.7356 4.0149 20.485C1.76434 18.2347 0.5 15.1825 0.5 12C0.5 8.81743 1.76434 5.76514 4.0149 3.5149C6.2652 1.26434 9.31743 0 12.5 0C15.6816 0.00299135 18.7321 1.26836 20.9818 3.51815C23.2316 5.76795 24.497 8.81845 24.5 12L24.4999 12ZM23.3831 12C23.3831 9.11354 22.2364 6.34549 20.1956 4.30431C18.1544 2.26345 15.3864 1.11673 12.4999 1.11673C9.61341 1.11673 6.84542 2.26345 4.80425 4.30431C2.76339 6.34542 1.61667 9.11347 1.61667 12C1.61667 14.8865 2.76339 17.6544 4.80425 19.6956C6.84536 21.7365 9.61341 22.8832 12.4999 22.8832C15.3854 22.8802 18.1519 21.7325 20.1924 19.6921C22.2328 17.652 23.3805 14.8854 23.3835 11.9997L23.3831 12Z" fill="white"/>
</svg>
