<svg width="24" height="32" viewBox="0 0 24 32" fill="none" xmlns="http://www.w3.org/2000/svg">
<path d="M19.5986 12.2163C19.5986 8.0266 16.1905 4.61753 12.0006 4.61753C7.81088 4.61753 4.40181 8.02624 4.40181 12.2163C4.40181 16.4057 7.81052 19.8143 12.0006 19.8143C16.1905 19.8141 19.5986 16.4053 19.5986 12.2163ZM11.9999 18.8046C8.36669 18.8046 5.41101 15.8489 5.41101 12.2163C5.41101 8.58341 8.36676 5.62744 11.9999 5.62744C15.6324 5.62744 18.5882 8.58319 18.5882 12.2163C18.5882 15.8492 15.633 18.8046 11.9999 18.8046ZM16.0205 10.8288L13.5423 10.4903L12.4544 8.23758C12.3701 8.06328 12.1933 7.95247 11.9995 7.95247C11.8057 7.95247 11.6292 8.06328 11.5446 8.23758L10.4567 10.4903L7.97798 10.8288C7.78614 10.855 7.62605 10.9889 7.56619 11.173C7.50634 11.357 7.55728 11.5594 7.69733 11.6936L9.50375 13.4243L9.05939 15.8861C9.02514 16.0768 9.1031 16.27 9.25929 16.3842C9.34728 16.4482 9.4514 16.4808 9.5561 16.4808C9.63795 16.4808 9.71981 16.4607 9.79471 16.4209L11.9999 15.2374L14.2039 16.4201C14.3745 16.5117 14.5822 16.4975 14.7395 16.3834C14.8963 16.2692 14.9743 16.076 14.9394 15.8853L14.4951 13.4235L16.3015 11.6928C16.4415 11.5589 16.4922 11.3565 16.4326 11.1722C16.3731 10.9884 16.2124 10.8548 16.0206 10.8289L16.0205 10.8288ZM13.6014 12.8822C13.4791 12.9992 13.4237 13.1698 13.4535 13.3363L13.7603 15.0361L12.239 14.2195C12.0895 14.1396 11.9108 14.1396 11.7612 14.2195L10.2396 15.0361L10.5465 13.3363C10.5765 13.1698 10.5211 12.9994 10.3989 12.8822L9.15214 11.6875L10.8631 11.4542C11.0309 11.4313 11.1757 11.3258 11.2495 11.1735L11.9998 9.61827L12.7504 11.1732C12.8242 11.3255 12.9693 11.4311 13.1369 11.4539L14.8478 11.6872L13.6014 12.8822ZM23.9656 28.7512L20.1331 18.91C20.1958 18.6876 20.2723 18.4905 20.3776 18.3471C20.5933 18.0531 21.0614 17.7991 21.5138 17.5541C22.2109 17.1766 23.0008 16.7484 23.2612 15.9674C23.5187 15.1947 23.1679 14.4054 22.8291 13.6417C22.6083 13.1444 22.3797 12.6304 22.3797 12.217C22.3797 11.8041 22.6077 11.2896 22.8291 10.7924C23.1679 10.0286 23.5187 9.23905 23.2612 8.4667C23.0009 7.68544 22.2113 7.2575 21.5138 6.87995C21.0613 6.63466 20.5927 6.38129 20.3776 6.08729C20.1601 5.79076 20.0618 5.26483 19.9666 4.75699C19.8229 3.98884 19.6598 3.11792 19.0094 2.64094C18.3609 2.16511 17.5176 2.26452 16.7012 2.36112C16.1806 2.42265 15.6424 2.48613 15.2813 2.36613C14.9293 2.24892 14.5351 1.88669 14.154 1.53612C13.5495 0.980111 12.8646 0.350586 12.0006 0.350586C11.1364 0.350586 10.4512 0.980653 9.84675 1.53612C9.46558 1.88638 9.07162 2.24889 8.71944 2.36613C8.35861 2.48641 7.82015 2.42265 7.29948 2.36112C6.48315 2.26451 5.64009 2.16484 4.99105 2.64094C4.34066 3.1176 4.17779 3.98877 4.03353 4.75699C3.93831 5.26483 3.84003 5.79078 3.62258 6.08729C3.4068 6.3813 2.93877 6.63522 2.48636 6.88024C1.7892 7.25778 0.999043 7.68601 0.738957 8.46699C0.481414 9.23962 0.832229 10.0295 1.17107 10.7927C1.39186 11.2899 1.61989 11.8039 1.61989 12.2173C1.61989 12.6307 1.39186 13.1448 1.17107 13.642C0.832229 14.4057 0.481414 15.1953 0.738957 15.9677C0.998723 16.7489 1.78886 17.1769 2.48636 17.5544C2.9388 17.7997 3.40683 18.0531 3.62258 18.3474C3.72755 18.4908 3.80467 18.6879 3.86703 18.9103L0.0345122 28.7514C-0.0339799 28.9268 0.00110202 29.1262 0.125276 29.2674C0.249453 29.4091 0.442676 29.4698 0.625321 29.4247L3.89626 28.6203L5.7617 31.4249C5.8558 31.5666 6.01423 31.6501 6.18211 31.6501C6.19993 31.6501 6.21831 31.6493 6.23669 31.6474C6.42406 31.6273 6.58444 31.5045 6.65293 31.3288L9.91296 22.9582C10.5015 23.4983 11.1676 24.0835 12.0008 24.0835C12.8341 24.0835 13.5001 23.4983 14.0882 22.9582L17.3476 31.3288C17.4161 31.5042 17.5765 31.6273 17.7636 31.6474C17.782 31.6493 17.8003 31.6501 17.8182 31.6501C17.9861 31.6501 18.1445 31.5666 18.2386 31.4249L20.104 28.6203L23.3747 29.4247C23.5579 29.4698 23.7505 29.4091 23.8747 29.2674C23.9989 29.1254 24.034 28.9266 23.9655 28.7512L23.9656 28.7512ZM6.06461 30.0564L4.54079 27.7652C4.44586 27.6224 4.28715 27.5399 4.12038 27.5399C4.08056 27.5399 4.03964 27.545 3.99982 27.5547L1.3281 28.2118L4.26354 20.6743C4.28136 20.7306 4.30113 20.7862 4.32146 20.8414C4.32313 20.8456 4.3248 20.8492 4.32591 20.8528C4.35682 20.9346 4.3919 21.0146 4.42948 21.0922C4.43505 21.1037 4.44006 21.1154 4.44591 21.1268C4.48461 21.2033 4.52776 21.2766 4.57426 21.3476C4.58289 21.3606 4.5918 21.3737 4.60071 21.3865C4.64916 21.4561 4.70178 21.523 4.75997 21.5856C4.7686 21.5951 4.77835 21.604 4.78726 21.6129C4.8499 21.6772 4.91645 21.7387 4.99134 21.7933C5.07236 21.8529 5.15673 21.9033 5.2436 21.9462C5.59051 22.1168 5.97945 22.1611 6.38209 22.1528C6.58339 22.1483 6.78803 22.1308 6.99295 22.1085C7.09513 22.0976 7.19787 22.0854 7.29977 22.0734C7.82098 22.0119 8.35915 21.9484 8.71974 22.0684C8.77069 22.0854 8.82471 22.1099 8.88011 22.138C8.89765 22.1469 8.91519 22.1572 8.93301 22.167C8.97589 22.1906 9.02016 22.2179 9.0661 22.248C9.07668 22.2549 9.08726 22.2613 9.09784 22.2689L6.06461 30.0564ZM12 23.0732C11.5292 23.0732 11.0214 22.6057 10.5294 22.1539C10.3665 22.0041 10.2011 21.8529 10.0313 21.7112C10.0304 21.7104 10.0301 21.7095 10.0293 21.7087C10.026 21.7059 10.0232 21.7037 10.0198 21.7015C9.94411 21.6383 9.86671 21.5781 9.78902 21.5202C9.76424 21.5018 9.73974 21.4851 9.71524 21.4676C9.66624 21.4331 9.61696 21.3999 9.56712 21.3688C9.53649 21.3495 9.50614 21.3301 9.4758 21.3125C9.43181 21.2869 9.38698 21.2635 9.34216 21.241C9.3132 21.2262 9.28397 21.2101 9.25529 21.1967C9.18401 21.1638 9.1119 21.1343 9.03784 21.1095C8.96823 21.0864 8.89723 21.0675 8.82568 21.0516C8.80173 21.0463 8.77667 21.043 8.75245 21.0385C8.70429 21.0296 8.65639 21.0207 8.60795 21.014C8.57816 21.0104 8.54809 21.0085 8.5183 21.0054C8.47403 21.0012 8.42949 20.9968 8.38466 20.9945C8.35236 20.9929 8.32034 20.9926 8.28777 20.9918C8.2563 20.9909 8.2254 20.989 8.19366 20.989C8.1828 20.989 8.17139 20.9898 8.16025 20.9898C8.11292 20.9901 8.06587 20.9918 8.01797 20.994C7.98373 20.9951 7.94948 20.9959 7.91524 20.9982C7.86568 21.001 7.81584 21.0051 7.76572 21.0088C7.73315 21.0113 7.70085 21.0132 7.66827 21.0165C7.61482 21.0216 7.56164 21.0271 7.50818 21.033C7.47895 21.0363 7.44943 21.0385 7.41992 21.0419C7.33973 21.0508 7.25955 21.0603 7.17908 21.0694C6.55793 21.1427 5.91536 21.219 5.58649 20.9781C5.34872 20.8038 5.22148 20.4227 5.12542 19.9934C5.08867 19.8297 5.05609 19.6598 5.0249 19.4908C5.00653 19.3934 4.98787 19.2954 4.96838 19.1976C4.96393 19.1748 4.95947 19.1525 4.95446 19.1297C4.93442 19.032 4.91326 18.9345 4.89042 18.8385C4.88875 18.8324 4.88792 18.8262 4.88625 18.8201C4.88625 18.8198 4.88597 18.8198 4.88597 18.8193C4.79103 18.4295 4.66129 18.0575 4.43548 17.7501C4.0855 17.2732 3.51616 16.9644 2.9657 16.6662C2.4069 16.3636 1.82948 16.0509 1.69527 15.6483C1.56162 15.2468 1.81945 14.6661 2.0923 14.051C2.35568 13.4577 2.62798 12.8443 2.62798 12.2171C2.62798 11.5899 2.35541 10.9765 2.0923 10.3832C1.81945 9.76812 1.56162 9.18736 1.69527 8.78586C1.82919 8.38354 2.40692 8.0706 2.9657 7.76796C3.51642 7.46977 4.0858 7.16156 4.43548 6.68406C4.78852 6.20211 4.90824 5.56203 5.02434 4.94278C5.13933 4.32969 5.25766 3.69602 5.58592 3.45546C5.91474 3.21463 6.55678 3.29092 7.1788 3.36414C7.80971 3.43876 8.46178 3.51616 9.03619 3.32461C9.59331 3.13918 10.0683 2.70233 10.5277 2.27998C11.0194 1.82782 11.5275 1.36066 11.9984 1.36066C12.4689 1.36066 12.977 1.82786 13.4687 2.27998C13.9281 2.70235 14.4031 3.13893 14.9602 3.32461C15.5349 3.51616 16.1867 3.43876 16.8178 3.36414C17.4393 3.29092 18.0821 3.21463 18.4107 3.45546C18.739 3.6963 18.8576 4.33002 18.9723 4.94278C19.0884 5.562 19.2081 6.20209 19.5612 6.68406C19.9111 7.16128 20.4808 7.46974 21.031 7.76796C21.5897 8.07061 22.1672 8.38327 22.3014 8.78586C22.435 9.18734 22.1772 9.76811 21.9043 10.3832C21.641 10.9765 21.3684 11.5904 21.3684 12.2177C21.3684 12.845 21.641 13.4586 21.9043 14.0522C22.1772 14.6672 22.435 15.248 22.3014 15.6492C22.1675 16.0515 21.5895 16.3644 21.031 16.6671C20.4802 16.9653 19.9108 17.274 19.5612 17.751C19.3359 18.0584 19.2059 18.4309 19.1107 18.8204C19.1107 18.8207 19.1104 18.8207 19.1104 18.8212C19.1093 18.8265 19.1079 18.8321 19.1068 18.8377C19.0831 18.936 19.062 19.0345 19.0416 19.1336C19.0375 19.1531 19.0336 19.1726 19.0299 19.1924C19.0099 19.2926 18.991 19.3923 18.972 19.4922C18.857 20.1053 18.7387 20.739 18.4104 20.9796C18.0816 21.2204 17.4396 21.1444 16.8176 21.0709C16.1869 20.9963 15.5349 20.9189 14.96 21.1104C14.8859 21.1352 14.8132 21.165 14.742 21.1981C14.7147 21.2106 14.6866 21.2265 14.6593 21.2404C14.6128 21.2641 14.5663 21.288 14.5212 21.3145C14.4928 21.3312 14.4633 21.3499 14.434 21.3682C14.382 21.4011 14.3304 21.4353 14.2798 21.4713C14.2575 21.4871 14.2349 21.5027 14.2121 21.5194C14.1322 21.5784 14.0531 21.6403 13.9755 21.7049C13.9735 21.7065 13.9713 21.7082 13.9693 21.7099C13.9691 21.7101 13.9685 21.711 13.9677 21.7115C13.7975 21.8533 13.6316 22.0053 13.4684 22.1551C12.9787 22.6058 12.4706 23.0733 12 23.0733L12 23.0732ZM20 27.5547C19.7934 27.5043 19.5774 27.5881 19.4591 27.7652L17.9352 30.0564L14.9021 22.268C14.9124 22.2611 14.9221 22.2549 14.9319 22.2485C14.9792 22.2171 15.0243 22.1898 15.068 22.1658C15.085 22.1564 15.1023 22.1463 15.1193 22.1377C15.1749 22.1096 15.2292 22.0851 15.2802 22.0681C15.6407 21.9478 16.1792 22.0116 16.7002 22.0731C16.8021 22.0854 16.9045 22.0971 17.007 22.1082C17.7239 22.1856 18.4403 22.2101 19.0083 21.7933C19.0832 21.7385 19.1497 21.6772 19.2124 21.6123C19.2213 21.6034 19.2307 21.5945 19.2394 21.585C19.2973 21.5227 19.3496 21.4559 19.3983 21.3862C19.4073 21.3732 19.4162 21.3601 19.4248 21.3467C19.4716 21.2757 19.5144 21.2025 19.5532 21.1265C19.5587 21.1156 19.5637 21.1042 19.5696 21.0928C19.608 21.0143 19.6434 20.9335 19.6745 20.8506C19.6757 20.8478 19.677 20.845 19.6779 20.8425C19.6988 20.7876 19.7177 20.7317 19.7361 20.6752L22.6715 28.2126L20 27.5547Z" fill="white"/>
</svg>
