<svg width="24" height="30" viewBox="0 0 24 30" fill="none" xmlns="http://www.w3.org/2000/svg">
<path d="M5.73239 8.56694C5.78484 9.18292 5.90337 9.7918 6.08587 10.3826C6.23666 10.7621 6.49862 11.0872 6.83767 11.3149C6.90165 11.6909 6.97298 12.0027 7.04824 12.2809C7.42427 13.6794 9.22501 16.4575 11.627 16.5403H12.2359C14.7509 16.5141 16.5742 13.5328 16.9125 12.2809C17.0103 11.9274 17.0816 11.5703 17.1267 11.3149H17.127C17.4736 11.0893 17.743 10.7626 17.8974 10.379C18.0789 9.78924 18.1961 9.18165 18.2472 8.56701C18.3138 8.03127 18.2318 7.48768 18.0105 6.99548C18.4127 2.89395 16.6797 1.84899 16.1308 1.62713V1.62739C15.9913 1.57311 15.8638 1.49261 15.7548 1.39034C14.1119 -0.195885 10.018 -0.447893 8.13814 1.46927C7.98736 1.6211 7.81377 1.74802 7.62312 1.84531C7.1456 2.09338 5.62707 3.19107 5.96896 6.99549C5.74816 7.48795 5.66635 8.03131 5.73217 8.56701L5.73239 8.56694ZM6.82642 7.38269C6.89853 7.28829 6.93209 7.17002 6.92029 7.05176C6.65334 4.39776 7.36398 3.03675 8.04815 2.67962V2.67988C8.3269 2.53408 8.58074 2.34502 8.79994 2.11976C10.281 0.616171 13.7885 0.800243 15.142 2.07098V2.07072C15.3297 2.24983 15.5489 2.39248 15.7886 2.49186C16.0744 2.60829 17.4729 3.3716 17.0707 7.04438C17.0576 7.16212 17.0898 7.28038 17.1609 7.37505C17.3242 7.72696 17.3804 8.11926 17.3224 8.50291C17.2784 9.02369 17.1826 9.53873 17.0368 10.0403C16.9364 10.2879 16.7473 10.489 16.5066 10.6044C16.3658 10.6712 16.2672 10.8037 16.2436 10.9576C16.187 11.325 16.1104 11.689 16.0142 12.0479C15.7283 13.1081 14.0931 15.5966 12.2548 15.6156H11.6798C9.74374 15.5516 8.24377 13.0368 7.97317 12.0479H7.97291C7.87877 11.6887 7.80325 11.3247 7.74739 10.9576C7.72274 10.805 7.62415 10.6741 7.48438 10.6081C7.2447 10.494 7.05694 10.2942 6.95809 10.0479C6.81045 9.54393 6.71343 9.02627 6.66859 8.50285C6.60932 8.1221 6.66439 7.7322 6.82645 7.38258L6.82642 7.38269ZM18.9428 18.762C18.5143 18.5852 17.6985 18.2732 17.6985 18.2732C17.3031 18.1054 16.9412 17.8673 16.6308 17.5701L15.879 16.9235V16.9237C15.8706 16.9054 15.8559 16.8907 15.8375 16.8823C15.3978 16.8823 13.349 18.762 12.251 18.7808H11.6647C10.5782 18.7433 8.55573 16.8749 8.11595 16.8749V16.8747C8.09419 16.8733 8.07295 16.8799 8.0559 16.8935L7.30411 17.574C6.99389 17.8722 6.632 18.1116 6.23633 18.2807C6.23633 18.2807 5.48454 18.5739 5.04846 18.7506C2.20642 19.9159 -1.05283 21.2431 0.326772 26.7727C1.04869 29.3554 9.3867 29.8854 11.5785 29.8854H12.4205C14.6159 29.8854 22.9466 29.3591 23.6723 26.7727C25.0519 21.2428 21.8076 19.916 18.943 18.7614L18.9428 18.762ZM11.8639 21.7695H12.1009L13.2288 26.2467H13.2285C13.2424 26.3215 13.2097 26.3973 13.1459 26.4384L12.225 27.1564H12.2247C12.0936 27.2511 11.9163 27.2511 11.7849 27.1564L10.8414 26.4046C10.7795 26.3637 10.7486 26.2895 10.7625 26.2166L11.8639 21.7695ZM11.9806 19.7207H12.2701H12.2698C12.4555 19.7152 12.6398 19.6874 12.8189 19.6378L12.3941 20.4387C12.3291 20.622 12.1791 20.7623 11.9919 20.8144C11.8041 20.7615 11.6531 20.6217 11.5857 20.4387L11.1871 19.6604H11.1873C11.3313 19.6973 11.4787 19.7201 11.6271 19.728H11.9806V19.7207ZM22.7658 26.5284C22.6116 27.0321 21.3786 27.8253 18.4275 28.3742C16.4413 28.7271 14.4295 28.9183 12.4124 28.9456H11.578C9.56066 28.9183 7.5491 28.7271 5.56297 28.3742C2.61581 27.8253 1.39015 27.0321 1.23595 26.5284C0.0629778 21.8067 2.54056 20.7916 5.41274 19.6153C5.82627 19.4461 6.57805 19.1566 6.58571 19.153H6.58545C7.09784 18.9392 7.56568 18.6322 7.96531 18.247L8.24721 17.9876L8.6909 18.2921C9.08948 18.5703 9.46525 18.822 9.81876 19.0439L10.751 20.8634C10.8239 21.0074 10.9136 21.1424 11.0179 21.2657L9.85626 25.9572C9.8101 26.1636 9.82321 26.3789 9.89349 26.5785C9.96403 26.7778 10.0891 26.9534 10.2546 27.0851L11.1981 27.8369H11.1984C11.4278 28.0168 11.711 28.1146 12.0029 28.1146C12.2945 28.1146 12.5777 28.0168 12.8073 27.8369L13.7283 27.1189C13.9032 26.9868 14.0359 26.8066 14.1098 26.6002C14.1841 26.3939 14.1964 26.1704 14.1455 25.9573L12.9613 21.2657C13.0627 21.1506 13.1511 21.0245 13.2245 20.8897L14.2019 19.01C14.5402 18.8034 14.8973 18.5663 15.2734 18.307L15.7131 18.0062L15.9877 18.2469C16.3863 18.6258 16.8514 18.9279 17.3597 19.1379C17.3597 19.1379 18.1642 19.45 18.5927 19.6228C21.4612 20.7918 23.9385 21.8032 22.7658 26.5285L22.7658 26.5284Z" fill="white"/>
</svg>
