<svg width="186" height="36" viewBox="0 0 186 36" fill="none" xmlns="http://www.w3.org/2000/svg">
<path d="M33.1187 0.109375H8.78641C3.94552 0.109375 0 4.48782 0 9.86002V25.9668C0 31.339 3.94552 35.7174 8.78641 35.7174H33.1187C37.9596 35.7174 41.9052 31.339 41.9052 25.9668V9.86002C41.9052 4.49766 37.9596 0.109375 33.1187 0.109375ZM40.9212 25.9668C40.9212 30.729 37.4185 34.6253 33.1187 34.6253H8.78641C4.48668 34.6253 0.98392 30.7388 0.98392 25.9668V9.86002C0.98392 5.09785 4.48668 1.20153 8.78641 1.20153H33.1187C37.4185 1.20153 40.9212 5.08801 40.9212 9.86002V25.9668Z" fill="white"/>
<path d="M33.3682 18.6748V16.6479H31.4889L37.6089 7.61554H28.5765L22.0629 16.5397H20.1836L26.3528 7.72377H17.714L9.37036 16.9825H4.24414V18.7929H9.4786L17.3303 27.4514H26.4611L20.2427 18.7437H22.1712L28.7831 27.4514H37.7663L31.4987 18.6846H33.3682V18.6748ZM53.9026 7.94023C54.3946 7.94023 54.7881 7.832 55.1817 7.61554C55.6736 8.05831 55.9196 8.27477 55.9688 8.32396C56.1164 8.4322 56.3132 8.54043 56.4608 8.59946L56.8544 7.50731C56.51 7.34004 56.1951 7.11374 55.9196 6.84808C56.1656 6.46435 56.3624 6.03143 56.4608 5.58867C56.5592 5.15574 56.6084 4.60475 56.6084 4.00455C56.6084 2.74514 56.3624 1.76122 55.8704 1.04296C55.3785 0.383729 54.6897 0 53.8927 0C53.0564 0 52.407 0.324694 51.9151 0.98392C51.4231 1.64315 51.1771 2.62707 51.1771 3.94552C51.1771 5.20494 51.4231 6.18886 51.9151 6.90712C52.4267 7.61554 53.0663 7.94023 53.9026 7.94023ZM52.7711 2.02688C53.0663 1.58411 53.4598 1.36765 53.9026 1.36765C54.3454 1.36765 54.7389 1.58411 55.0341 2.02688C55.3293 2.46964 55.4769 3.11903 55.4769 3.99472C55.4769 4.8704 55.3293 5.52963 55.0341 5.96256C54.6897 5.63786 54.3453 5.36236 53.9518 5.1951L53.6566 6.07079C53.9026 6.17902 54.0994 6.34628 54.3453 6.56275C54.1978 6.62178 54.0502 6.67098 53.9026 6.67098C53.4598 6.67098 53.1155 6.45452 52.8203 6.01175C52.5251 5.56899 52.3775 4.9196 52.3775 3.98488C52.3185 3.11903 52.4759 2.46964 52.7711 2.02688ZM58.4975 7.61554C58.8419 7.832 59.2846 7.94023 59.8848 7.94023C60.426 7.94023 60.9179 7.77297 61.2721 7.49747C61.6165 7.22197 61.8625 6.83824 61.9609 6.40532C62.0593 5.96256 62.1085 5.20494 62.1085 4.16198V0.167266H60.977V4.43748C60.977 5.20494 60.9278 5.6969 60.8786 5.91336C60.8294 6.12982 60.6818 6.35612 60.5342 6.46435C60.3473 6.6021 60.121 6.68082 59.8947 6.68082C59.6192 6.68082 59.3633 6.58243 59.1567 6.40532C58.9599 6.23805 58.8615 5.96256 58.8123 5.63786C58.7632 5.4214 58.7631 5.03767 58.7631 4.37844V0.167266H57.6316V4.22102C57.6316 5.3722 57.73 6.13966 57.8776 6.57259C57.8973 7.06455 58.1433 7.39908 58.4975 7.61554ZM64.3223 6.08063H66.5952L67.0871 7.832H68.317L66.0442 0.167266H64.8143L62.5906 7.832H63.8205L64.3223 6.08063ZM65.4538 1.97768L66.2409 4.82121H64.6568L65.4538 1.97768ZM72.9119 6.52339H70.0979V0.275498H68.9664V7.832H72.9119V6.52339Z" fill="white"/>
<path d="M74.8249 0.167969H73.6836V7.83271H74.8151L74.8249 0.167969Z" fill="white"/>
<path d="M77.1981 7.83271H78.3296V1.47658H80.0121V0.167969H75.5156V1.48642H77.1981V7.83271ZM82.2358 7.83271H83.3673V4.60545L85.4434 0.167969H84.1151L82.836 3.17876L81.5077 0.167969H80.1794L82.2555 4.60545L82.2358 7.83271ZM88.9461 6.08133H91.219L91.711 7.83271H92.9409L90.6778 0.167969H89.4479L87.2243 7.83271H88.4542L88.9461 6.08133ZM90.0776 1.97838L90.8648 4.82191H89.3299L90.0776 1.97838Z" fill="white"/>
<path d="M94.8717 0.167969H93.7402V7.83271H94.8717V0.167969Z" fill="white"/>
<path d="M97.8343 4.65404H98.0802C98.3262 4.65404 98.523 4.71307 98.6706 4.76227C98.769 4.8213 98.9166 4.92953 99.015 5.08696C99.1134 5.25423 99.3101 5.63796 99.6053 6.23815L100.442 7.88129H101.829L101.14 6.40541C100.934 5.98233 100.717 5.55924 100.501 5.146C100.333 4.90002 100.137 4.68355 99.9103 4.48677C100.402 4.37854 100.747 4.16208 100.993 3.77835C101.239 3.39462 101.386 2.96169 101.386 2.35166C101.386 1.8597 101.288 1.47597 101.14 1.15128C100.993 0.826587 100.747 0.551089 100.501 0.442858C100.255 0.334626 99.8119 0.226395 99.1724 0.226395H96.752V7.89113H97.8835V4.65404H97.8343ZM97.8343 1.47597H98.7198C99.2118 1.47597 99.5561 1.47597 99.6545 1.53501C99.8021 1.59404 99.9005 1.70228 99.9989 1.8597C100.097 2.02697 100.146 2.1844 100.146 2.45989C100.146 2.73539 100.097 2.90266 99.9989 3.06009C99.9005 3.22735 99.8021 3.33558 99.6545 3.38478C99.5069 3.44381 99.1626 3.44381 98.6706 3.44381H97.8343V1.47597ZM106.03 5.03776C105.932 5.58876 105.784 6.02168 105.538 6.29718C105.342 6.57268 105.046 6.68091 104.751 6.68091C104.358 6.68091 104.013 6.46445 103.767 6.08072C103.521 5.69699 103.374 4.98857 103.374 4.05384C103.374 3.11912 103.521 2.46973 103.767 2.086C104.013 1.70228 104.358 1.48581 104.8 1.48581C105.096 1.48581 105.342 1.59404 105.538 1.81051C105.735 2.02697 105.883 2.3615 105.981 2.74523L107.113 2.3615C106.965 1.70228 106.768 1.16112 106.424 0.826587C105.981 0.334627 105.489 0.118164 104.84 0.118164C104.053 0.118164 103.452 0.442858 102.96 1.10208C102.419 1.81051 102.173 2.85346 102.173 4.17191C102.173 5.43133 102.419 6.36606 102.96 7.13351C103.403 7.73371 103.994 8.06824 104.741 8.06824C105.332 8.06824 105.824 7.85178 106.227 7.46805C106.621 7.08432 106.916 6.42509 107.063 5.60844L106.03 5.03776ZM109.238 4.65404H109.484C109.73 4.65404 109.927 4.71307 110.074 4.76227C110.173 4.8213 110.32 4.92953 110.419 5.08696C110.517 5.25423 110.714 5.63796 111.009 6.23815L111.845 7.88129H113.233L112.544 6.40541C112.337 5.98233 112.121 5.55924 111.904 5.146C111.737 4.90002 111.54 4.68355 111.314 4.48677C111.806 4.37854 112.15 4.16208 112.396 3.77835C112.642 3.39462 112.79 2.96169 112.79 2.35166C112.79 1.8597 112.691 1.47597 112.544 1.15128C112.396 0.826587 112.15 0.551089 111.904 0.442858C111.658 0.334626 111.216 0.226395 110.576 0.226395H108.106V7.89113H109.238V4.65404ZM109.238 1.47597H110.123C110.615 1.47597 110.96 1.47597 111.058 1.53501C111.206 1.59404 111.304 1.70228 111.403 1.8597C111.501 2.02697 111.55 2.1844 111.55 2.45989C111.55 2.73539 111.501 2.90266 111.403 3.06009C111.304 3.22735 111.206 3.33558 111.058 3.38478C110.911 3.44381 110.566 3.44381 110.074 3.44381H109.238V1.47597Z" fill="white"/>
<path d="M114.913 6.08018H117.186L117.678 7.83156H118.908L116.635 0.166825H115.405L113.182 7.83156H114.412L114.913 6.08018ZM115.996 1.97724L116.783 4.82077H115.248L115.996 1.97724ZM120.64 4.6043H123.011V3.28585H120.64V1.47544H123.355V0.166825H119.508V7.83156H120.64V4.6043ZM125.579 7.83156H126.711V1.47544H128.393V0.166825H123.897V1.48528H125.579V7.83156ZM133.372 6.68038C132.683 6.68038 132.289 6.18842 132.142 5.2045L131.059 5.37176C131.207 7.12314 131.994 7.99883 133.382 7.99883C134.169 7.99883 134.769 7.78237 135.113 7.3396C135.458 6.90668 135.654 6.35568 135.654 5.63742C135.654 5.19466 135.605 4.76173 135.458 4.48623C135.31 4.16154 135.113 3.88604 134.867 3.71878C134.621 3.50231 134.178 3.33505 133.637 3.11859C133.096 2.95132 132.752 2.79389 132.604 2.62663C132.457 2.45936 132.358 2.30193 132.358 2.07563C132.358 1.85917 132.457 1.6919 132.604 1.52463C132.752 1.35737 132.998 1.30817 133.293 1.30817C133.588 1.30817 133.834 1.35737 133.982 1.52463C134.129 1.6919 134.277 1.9674 134.326 2.40032L135.448 2.36097C135.448 1.59351 135.251 1.04251 134.857 0.658785C134.464 0.275056 133.972 0.0585938 133.273 0.0585938C132.831 0.0585938 132.437 0.166825 132.142 0.334092C131.847 0.501358 131.601 0.767016 131.453 1.10155C131.286 1.4656 131.207 1.85917 131.207 2.25274C131.207 2.63646 131.256 2.96116 131.404 3.23666C131.551 3.56135 131.699 3.78765 131.945 4.00411C132.28 4.24025 132.644 4.41736 133.027 4.55511C133.568 4.72238 133.913 4.8798 134.06 4.93884C134.129 4.95852 134.188 4.99787 134.238 5.04707C134.287 5.09626 134.326 5.1553 134.356 5.21434C134.405 5.32257 134.454 5.48983 134.454 5.6571C134.454 5.9326 134.356 6.20809 134.159 6.42456C133.942 6.59182 133.657 6.69022 133.372 6.68038Z" fill="white"/>
<path d="M137.673 0.167969H136.541V7.83271H137.673V0.167969Z" fill="white"/>
<path d="M139.836 2.85383L142.158 7.84231H143.29V0.167728H142.208V5.31363L139.885 0.167728H138.803V7.83247H139.836V2.85383ZM147.59 6.24835C147.393 6.52385 147.098 6.63208 146.802 6.63208C146.409 6.63208 146.064 6.41562 145.819 6.03189C145.573 5.64816 145.425 4.93974 145.425 4.00502C145.425 3.07029 145.573 2.42091 145.819 2.03718C146.064 1.65345 146.409 1.43699 146.852 1.43699C147.147 1.43699 147.393 1.54522 147.59 1.76168C147.786 1.97814 147.934 2.31267 148.032 2.6964L149.164 2.31267C149.016 1.65345 148.819 1.11229 148.475 0.777758C148.082 0.285798 147.54 0.0693359 146.891 0.0693359C146.104 0.0693359 145.504 0.39403 145.012 1.05326C144.471 1.76168 144.225 2.80463 144.225 4.12309C144.225 5.3825 144.471 6.31723 145.012 7.08469C145.454 7.68488 146.045 8.01941 146.793 8.01941C147.383 8.01941 147.875 7.80295 148.278 7.41922C148.672 7.03549 148.967 6.37626 149.115 5.55961L148.082 5.06765C147.983 5.58913 147.836 5.97286 147.59 6.24835ZM154.448 6.52385H151.289V4.43794H154.152V3.17852H151.289V1.47634H154.349V0.167728H150.158V7.83247H154.448V6.52385ZM159.092 2.30283V7.83247H160.174V0.167728H159.288C159.141 0.610492 158.944 1.04342 158.6 1.36811C158.255 1.6928 157.96 1.9683 157.665 2.07653V3.39499C158.206 3.17852 158.649 2.79479 159.092 2.30283ZM163.332 5.26443C163.529 5.26443 163.726 5.2054 163.873 5.09717C164.021 4.98894 164.218 4.82167 164.316 4.60521C164.267 5.4809 164.169 6.03189 164.021 6.30739C163.873 6.58289 163.677 6.75015 163.431 6.75015C163.086 6.75015 162.89 6.47466 162.84 5.87446L161.807 6.04173C161.906 6.70096 162.053 7.19292 162.348 7.46842C162.644 7.79311 162.988 7.96038 163.382 7.96038C163.972 7.96038 164.513 7.63568 164.867 7.02565C165.261 6.42546 165.458 5.3825 165.458 4.01486C165.458 2.64721 165.261 1.66329 164.916 1.05326C164.572 0.443226 164.08 0.177567 163.48 0.177567C162.988 0.177567 162.545 0.39403 162.201 0.88599C161.856 1.32875 161.66 1.97814 161.66 2.80463C161.66 3.57209 161.807 4.17228 162.152 4.61505C162.496 5.03813 162.89 5.26443 163.332 5.26443ZM162.939 1.70264C163.086 1.48618 163.234 1.37795 163.431 1.37795C163.627 1.37795 163.824 1.48618 163.972 1.76168C164.119 2.03718 164.218 2.36187 164.218 2.85383C164.218 3.29659 164.169 3.62129 164.021 3.83775C163.873 4.05421 163.677 4.16244 163.48 4.16244C163.283 4.16244 163.086 4.05421 162.939 3.83775C162.791 3.62129 162.742 3.23756 162.742 2.7456C162.742 2.2438 162.791 1.91911 162.939 1.70264ZM168.616 7.83247H169.649V6.29755H170.338V4.98894H169.649V0.167728H168.764L166.294 4.98894V6.30739H168.616V7.83247ZM167.337 4.98894L168.616 2.36187V4.98894H167.337ZM174.342 4.43794C174.195 4.11325 173.949 3.88695 173.604 3.72952C173.85 3.56225 174.047 3.40482 174.195 3.12933C174.342 2.85383 174.392 2.52914 174.392 2.14541C174.392 1.59441 174.244 1.16149 173.949 0.777758C173.654 0.39403 173.26 0.226763 172.719 0.226763C172.178 0.226763 171.784 0.39403 171.489 0.777758C171.194 1.10245 171.046 1.59441 171.046 2.20444C171.046 2.58817 171.095 2.91287 171.243 3.13917C171.391 3.41466 171.587 3.63113 171.833 3.73936C171.538 3.90662 171.292 4.12309 171.145 4.44778C170.977 4.83151 170.889 5.23492 170.899 5.64816C170.899 6.35659 171.095 6.90758 171.44 7.35035C171.784 7.79311 172.227 7.95054 172.768 7.95054C173.112 7.95054 173.408 7.84231 173.703 7.67504C173.998 7.50777 174.195 7.18308 174.342 6.85839C174.49 6.47466 174.588 6.09093 174.588 5.59897C174.588 5.14636 174.539 4.76264 174.342 4.43794ZM172.276 1.59441C172.335 1.52554 172.414 1.4665 172.493 1.42715C172.581 1.38779 172.67 1.36811 172.768 1.37795C172.965 1.37795 173.112 1.42715 173.26 1.59441C173.408 1.76168 173.457 1.97814 173.457 2.25364C173.457 2.52914 173.408 2.80463 173.26 2.91287C173.201 2.98174 173.122 3.04077 173.044 3.08013C172.955 3.11949 172.866 3.13917 172.768 3.12933C172.67 3.12933 172.581 3.11949 172.493 3.08013C172.404 3.04077 172.335 2.98174 172.276 2.91287C172.129 2.7456 172.079 2.52914 172.079 2.25364C172.07 1.97814 172.119 1.75184 172.276 1.59441ZM173.309 6.46482C173.162 6.68128 172.965 6.78951 172.768 6.78951C172.571 6.78951 172.375 6.68128 172.227 6.46482C172.079 6.24835 171.981 5.91382 171.981 5.53009C171.981 5.2054 172.079 4.87087 172.227 4.6544C172.375 4.43794 172.571 4.32971 172.768 4.32971C172.965 4.32971 173.162 4.43794 173.309 4.6544C173.457 4.87087 173.555 5.14636 173.555 5.53009C173.506 5.91382 173.457 6.24835 173.309 6.46482ZM67.8232 35.0575H83.1231L83.9595 30.5118H74.2875L75.0255 26.5663H83.7135L84.4514 22.4535H75.7634L76.3046 19.2263H85.6813L86.4685 14.956H71.4735L67.8232 35.0575ZM103.51 15.3398C102.378 14.2968 100.696 13.8049 98.3739 13.8049C95.4615 13.8049 93.041 14.6805 91.1224 16.491C89.1939 18.3014 87.964 21.9124 87.3245 25.2577C86.8817 27.7765 86.9801 29.8034 87.5705 31.3875C88.21 32.9716 89.0562 34.1228 90.1877 34.7328C91.3192 35.3921 92.9033 35.6676 94.881 35.6676C96.5143 35.6676 97.8426 35.6676 98.9741 35.1756C100.106 34.6246 101.641 33.9752 102.428 32.8732C104.946 29.4787 104.651 28.9867 105.242 27.4518C105.389 27.2846 100.007 27.2354 100.007 27.2354C99.5153 28.4948 98.7773 29.5869 98.0787 30.2462C97.39 30.9054 96.4454 31.0136 95.3631 31.0136C94.2808 31.0136 93.4838 30.5709 92.9919 29.7542C92.5491 28.9277 92.4999 27.4026 92.8935 25.1495C93.2378 23.339 93.7298 20.9284 94.3792 20.1118C95.2647 18.9606 96.3569 18.4096 97.636 18.4096C98.1771 18.4096 98.6691 18.5178 99.1217 18.7933C99.5152 19.0688 99.8596 19.3935 100.056 19.8855C100.204 20.161 100.302 21.2531 100.352 21.8533L105.783 21.9124C106.127 18.9016 104.641 16.3827 103.51 15.3398ZM122.667 14.956L120.689 26.0743L115.848 14.956H110.614L107.013 35.0575H112.296L114.274 23.9983L119.066 35.0575H124.349L128 14.956H122.667ZM137.229 14.7888L126.76 34.9395H132.486L134.021 31.5941H140.387L140.682 34.9395H146.556L143.398 14.7888H137.229ZM135.94 27.2747L139.246 20.0429L139.935 27.2747H135.94ZM161.069 27.3338L160.479 15.0643H153.08L149.42 35.215H154.015L156.779 19.8265L157.567 35.215H161.719L168.035 19.8265L165.261 35.215H169.856L173.457 15.0544H166.097L161.069 27.3338ZM51.0867 15.0643L50.2012 20.0528H55.9276L53.1628 35.215H58.7908L61.5064 20.0429H67.2328L68.1184 15.0544H51.0867V15.0643Z" fill="white"/>
<path d="M180.414 24.6568C182.884 24.6568 184.891 22.6496 184.891 20.18C184.891 17.7103 182.884 15.7031 180.414 15.7031C177.945 15.7031 175.938 17.7103 175.938 20.18C175.938 22.6496 177.945 24.6568 180.414 24.6568Z" stroke="white" stroke-width="1.38245" stroke-miterlimit="10"/>
<path d="M179.066 22.4143V17.9375H180.759C181.182 17.9375 181.497 17.9769 181.684 18.0556C181.88 18.1343 182.028 18.2819 182.146 18.4787C182.264 18.6853 182.323 18.9214 182.323 19.1871C182.323 19.5216 182.235 19.7971 182.058 20.0234C181.88 20.2399 181.625 20.3776 181.27 20.4367C181.447 20.5547 181.585 20.6728 181.703 20.8105C181.821 20.9483 181.969 21.1844 182.166 21.5386L182.648 22.4143H181.693L181.113 21.4403C180.906 21.0959 180.769 20.8696 180.69 20.781C180.631 20.7023 180.542 20.6334 180.444 20.5941C180.355 20.5547 180.227 20.5449 180.04 20.5449H179.873V22.4143H179.066ZM179.873 19.8365H180.473C180.857 19.8365 181.103 19.8168 181.192 19.7774C181.29 19.7381 181.369 19.679 181.418 19.5905C181.477 19.4921 181.507 19.374 181.497 19.256C181.507 19.128 181.467 19.0001 181.388 18.8919C181.31 18.7935 181.211 18.7345 181.083 18.7148C180.887 18.705 180.69 18.6951 180.493 18.6951H179.863V19.8365H179.873Z" fill="white"/>
</svg>
