<svg width="140" height="51" viewBox="0 0 140 51" fill="none" xmlns="http://www.w3.org/2000/svg">
<path d="M26.6596 34.0263L37.1056 31.8945V35.7199C34.0973 39.1427 29.8219 41.085 25.2503 41.085C16.5098 41.085 9.40372 33.9671 9.40372 25.2621C9.40372 16.5216 16.5216 9.41556 25.2503 9.41556C30.0114 9.41556 34.3934 11.4882 37.4254 15.136V17.9547H46.4146V0.485582H37.4254V3.13852C33.7065 1.0896 29.5258 0 25.2503 0C11.3224 0 0 11.3224 0 25.2503C0 39.1782 11.3224 50.5006 25.2503 50.5006C29.4192 50.5006 33.4696 49.4702 37.1056 47.5278V49.9439H46.7817V29.9048L50.9032 29.0757V19.1272L26.6596 24.0778V34.0263ZM67.3657 8.19568C68.0289 8.19568 68.6566 8.27859 69.1895 8.50361C69.7225 8.72864 70.1607 8.98919 70.5634 9.29712C70.966 9.65243 71.274 10.0077 71.499 10.4459C71.724 10.8841 71.9017 11.3342 71.9846 11.8198L69.1066 12.708C69.0593 12.5778 69.0237 12.4001 68.9763 12.2225C68.929 12.0448 68.7987 11.8672 68.6684 11.6895C68.5381 11.5592 68.3605 11.3816 68.1355 11.2868C67.9104 11.1565 67.6972 11.1092 67.3775 11.1092C67.0695 11.1092 66.7972 11.1565 66.584 11.2868C66.359 11.3697 66.1813 11.5119 66.0984 11.6895C65.9681 11.8672 65.8734 12.0448 65.8378 12.2225C65.7905 12.4001 65.7549 12.5778 65.7549 12.7554V18.2153C65.7549 18.7482 65.8852 19.2338 66.1102 19.5891C66.3708 19.9918 66.7735 20.1694 67.3538 20.1694C68.017 20.1694 68.4671 19.9918 68.7276 19.6838C68.9882 19.3759 69.1303 18.9732 69.1303 18.535V17.3862H67.1288V14.8517H72.1386V18.0494C72.1386 18.8074 72.0556 19.518 71.8306 20.1339C71.653 20.7498 71.345 21.2827 70.9424 21.7328C70.5397 22.171 70.0541 22.5263 69.4383 22.7987C68.8224 23.0592 68.1473 23.154 67.3538 23.154C66.5129 23.154 65.8023 23.0237 65.1746 22.7513C64.5587 22.4907 64.1087 22.1354 63.706 21.638C63.3507 21.1998 63.0428 20.6669 62.8651 20.0392C62.6875 19.4114 62.6046 18.7956 62.6046 18.1324V12.8975C62.6046 12.3646 62.6875 11.7843 62.8651 11.2513C63.0428 10.671 63.3033 10.1854 63.6586 9.74718C64.0139 9.30897 64.4995 8.90629 65.1272 8.63389C65.7668 8.37333 66.4774 8.19568 67.3657 8.19568ZM82.5371 23.0119L80.5356 17.1967H79.2447V23.0119H76.189V8.29043H81.0685C81.6844 8.29043 82.2647 8.37333 82.845 8.55099C83.4254 8.72864 83.911 8.98919 84.3137 9.3445C84.7163 9.6998 85.0716 10.138 85.2848 10.671C85.5098 11.2039 85.6401 11.8672 85.6401 12.6251C85.6401 13.5608 85.4624 14.4017 85.1071 15.0649C84.7518 15.7281 84.2189 16.2611 83.5083 16.6638L85.9007 23.0474H82.5253V23.0119H82.5371ZM82.6674 12.6725C82.6674 12.0922 82.4897 11.7013 82.1818 11.4763C81.8739 11.2513 81.4712 11.121 80.9856 11.121H79.2565V14.449H80.9027C81.3883 14.449 81.8383 14.3188 82.1463 14.0464C82.5371 13.7858 82.6674 13.3002 82.6674 12.6725ZM89.809 23.0119V8.32596H98.3718V11.1684H92.912V14.1885H97.6257V17.0309H92.9238V20.1339H98.3837V23.0119H89.809ZM109.777 23.0119L107.029 18.1324L105.431 15.0294H105.383V23.0119H102.328V8.32596H105.04L107.432 12.7199L109.339 16.2729L109.422 16.2256V8.32596H112.442V23.0119H109.777ZM125.967 19.5062C125.742 20.655 125.209 21.5433 124.416 22.2183C123.575 22.8816 122.556 23.1895 121.36 23.1895C120.519 23.1895 119.809 23.0592 119.181 22.7868C118.565 22.5263 118.115 22.171 117.712 21.6735C117.357 21.2353 117.049 20.7024 116.871 20.0747C116.694 19.4588 116.611 18.8311 116.611 18.1679V12.9331C116.611 12.4001 116.694 11.8198 116.871 11.2868C117.049 10.7065 117.31 10.2209 117.665 9.78271C118.02 9.3445 118.506 8.94182 119.133 8.66942C119.749 8.36149 120.46 8.23121 121.313 8.23121C121.976 8.23121 122.604 8.31412 123.137 8.53914C123.669 8.76417 124.108 9.02472 124.51 9.33265C124.913 9.68796 125.221 10.0433 125.446 10.4815C125.671 10.9197 125.849 11.3697 125.932 11.8553L123.054 12.7436C123.006 12.6133 122.971 12.4356 122.923 12.258C122.876 12.0803 122.746 11.9027 122.615 11.725C122.485 11.5948 122.307 11.4645 122.082 11.3224C121.857 11.1802 121.597 11.1447 121.324 11.1447C121.017 11.1447 120.744 11.1921 120.531 11.3224C120.306 11.4053 120.128 11.5474 120.045 11.725C119.915 11.9027 119.82 12.0803 119.785 12.258C119.737 12.4356 119.702 12.6133 119.702 12.7909V18.2508C119.702 18.8311 119.832 19.2693 120.057 19.6246C120.318 19.9799 120.72 20.1576 121.348 20.1576C121.786 20.1576 122.142 20.0273 122.461 19.7549C122.769 19.4944 122.994 19.0917 123.042 18.6416L125.967 19.5062ZM139.149 18.4048C139.149 19.1627 139.019 19.7786 138.794 20.4063C138.569 20.9866 138.213 21.4722 137.822 21.9104C137.42 22.3131 136.934 22.6684 136.354 22.8461C135.774 23.0711 135.158 23.154 134.447 23.154C133.606 23.154 132.896 23.0237 132.268 22.7513C131.652 22.4907 131.155 22.1354 130.799 21.638C130.397 21.1998 130.136 20.6669 129.958 20.0392C129.781 19.4114 129.698 18.7956 129.698 18.1324V12.8975C129.698 12.3646 129.781 11.7843 129.958 11.2513C130.136 10.671 130.397 10.1854 130.799 9.74718C131.202 9.30897 131.688 8.90629 132.268 8.63389C132.884 8.32596 133.594 8.19568 134.447 8.19568C135.241 8.19568 135.951 8.32596 136.531 8.59836C137.112 8.85892 137.597 9.21422 138 9.66427C138.403 10.1025 138.663 10.5999 138.841 11.1684C139.019 11.7369 139.102 12.3172 139.102 12.8975V18.4048H139.149ZM136.046 12.8146C136.046 12.6844 135.999 12.5067 135.963 12.3291C135.916 12.1514 135.833 11.9737 135.702 11.7961C135.572 11.6184 135.395 11.4882 135.217 11.3579C134.992 11.2276 134.779 11.1802 134.459 11.1802C134.151 11.1802 133.879 11.2276 133.665 11.3579C133.44 11.4408 133.263 11.5829 133.132 11.7606C133.002 11.9382 132.907 12.1159 132.824 12.2935C132.777 12.4712 132.742 12.6488 132.742 12.8265V18.2863C132.742 18.8666 132.872 19.3049 133.144 19.6602C133.405 20.0155 133.855 20.1931 134.435 20.1931C134.873 20.1931 135.229 20.0628 135.548 19.7549C135.856 19.4944 136.034 19.0917 136.034 18.6061V12.8383H136.046V12.8146ZM71.724 37.9109C71.724 39.1664 71.3569 40.2086 70.5397 40.8837C69.7225 41.6298 68.6092 41.9259 67.1998 41.9259C66.6077 41.9259 66.0865 41.8548 65.6365 41.7719C65.1864 41.6179 64.7482 41.4758 64.3811 41.3219C64.0139 41.0968 63.7178 40.8718 63.4218 40.5757C63.1257 40.2796 62.8296 39.9836 62.6046 39.6875L64.8311 37.9109C65.1983 38.4321 65.5773 38.7281 65.9444 39.0242C66.3116 39.2493 66.7616 39.3914 67.2827 39.3914C67.8749 39.3914 68.2421 39.2374 68.4671 39.0242C68.6921 38.7992 68.8342 38.4321 68.8342 38.0649C68.8342 37.8399 68.7632 37.6149 68.6803 37.4017C68.5263 37.1767 68.3842 37.0345 68.1591 36.8806C67.9341 36.7266 67.7091 36.5845 67.413 36.5134C67.1169 36.4424 66.8208 36.2884 66.5247 36.2173C65.9326 35.9923 65.4115 35.7673 64.9614 35.5541C64.5114 35.3291 64.1442 35.033 63.9192 34.7369C63.6231 34.4408 63.4691 34.0737 63.327 33.6947C63.1731 33.3275 63.102 32.8775 63.102 32.3564C63.102 31.7642 63.1731 31.2431 63.3981 30.793C63.6231 30.2719 63.9192 29.9048 64.2863 29.5376C64.6535 29.1705 65.1035 28.9454 65.6247 28.7204C66.1458 28.4954 66.7379 28.4243 67.3301 28.4243C68.3723 28.4243 69.1895 28.5783 69.8528 28.8744C70.516 29.1705 71.0371 29.6916 71.4872 30.2838L69.4856 32.1432C68.8224 31.397 68.1473 31.0299 67.3301 31.0299C66.8801 31.0299 66.584 31.101 66.2879 31.326C65.9918 31.551 65.9207 31.8471 65.9207 32.2142C65.9207 32.4393 65.9918 32.5814 66.1458 32.7353C66.2997 32.8893 66.4418 33.0314 66.6669 33.1854C66.8919 33.3394 67.1169 33.4104 67.413 33.5525C67.7091 33.7065 68.0052 33.7776 68.3723 33.8486C69.0356 34.0737 69.6277 34.2987 70.0778 34.5119C70.5278 34.808 70.895 35.104 71.1911 35.4001C71.4872 35.7673 71.6411 36.1463 71.7832 36.5134C71.6411 36.9516 71.724 37.4727 71.724 37.9109ZM83.7333 38.6571C83.5083 39.6993 83.0701 40.5165 82.3239 41.1087C81.5778 41.7009 80.6185 41.9969 79.5763 41.9969C78.8301 41.9969 78.1669 41.843 77.5747 41.6298C77.0536 41.4048 76.6154 41.0376 76.2364 40.6705C75.8692 40.2204 75.6442 39.7822 75.4902 39.19C75.3363 38.6689 75.2652 38.0768 75.2652 37.4846V32.6643C75.2652 32.1432 75.3363 31.6221 75.4902 31.1839C75.6442 30.6627 75.8574 30.2245 76.2364 29.7745C76.6035 29.3244 77.0536 29.0283 77.5747 28.7323C78.0958 28.4362 78.7591 28.3651 79.5763 28.3651C80.1684 28.3651 80.7606 28.4362 81.2107 28.6612C81.7318 28.8862 82.0989 29.1112 82.4661 29.4073C82.8332 29.7034 83.0583 30.0706 83.2833 30.4496C83.5083 30.8167 83.6504 31.2668 83.7333 31.705L81.0685 32.5222C81.0685 32.3682 80.9975 32.2261 80.9146 32.0721C80.8435 31.9181 80.7606 31.776 80.6185 31.6221C80.4645 31.4681 80.3224 31.326 80.1684 31.2549C79.9434 31.1839 79.7184 31.101 79.5052 31.101C79.2091 31.101 78.9841 31.172 78.7591 31.2549C78.534 31.3378 78.3919 31.4799 78.309 31.6221C78.155 31.776 78.084 31.9181 78.084 32.0721C78.0129 32.2261 78.0129 32.4393 78.0129 32.5932V37.5675C78.0129 38.0886 78.1669 38.5268 78.3801 38.8229C78.6051 39.19 78.9722 39.344 79.5644 39.344C79.9316 39.344 80.3106 39.19 80.6066 38.9769C80.9027 38.7518 81.0567 38.3847 81.1278 37.9346L83.7333 38.6571ZM87.5232 28.4954H90.342V41.9259H87.5232V28.4954ZM94.4161 41.9259V28.4954H102.28V31.0891H97.2349V33.8368H101.534V36.4305H97.2349V39.2493H102.28V41.914L94.4161 41.9259ZM112.738 41.9259L110.286 37.4017L108.806 34.5829H108.735V41.9259H105.916V28.4954H108.439L110.594 32.4985L112.371 35.6844H112.442V28.4954H115.19V41.9259H112.738ZM127.649 38.6571C127.424 39.6993 126.986 40.5165 126.24 41.1087C125.493 41.7009 124.534 41.9969 123.492 41.9969C122.746 41.9969 122.082 41.843 121.49 41.6298C120.969 41.4048 120.531 41.0376 120.152 40.6705C119.785 40.2204 119.56 39.7822 119.406 39.19C119.252 38.6689 119.181 38.0768 119.181 37.4846V32.6643C119.181 32.1432 119.252 31.6221 119.406 31.1839C119.56 30.6627 119.773 30.2245 120.152 29.7745C120.531 29.3244 120.969 29.0283 121.49 28.7323C122.011 28.4362 122.675 28.3651 123.492 28.3651C124.084 28.3651 124.676 28.4362 125.126 28.6612C125.647 28.8862 126.014 29.1112 126.382 29.4073C126.749 29.7034 126.974 30.0706 127.199 30.4496C127.424 30.8167 127.566 31.2668 127.649 31.705L124.984 32.5222C124.984 32.3682 124.913 32.2261 124.83 32.0721C124.759 31.9181 124.676 31.776 124.534 31.6221C124.38 31.4681 124.238 31.326 124.084 31.2549C123.859 31.1839 123.634 31.101 123.421 31.101C123.125 31.101 122.9 31.172 122.675 31.2549C122.45 31.3378 122.307 31.4799 122.225 31.6221C122.071 31.776 122 31.9181 122 32.0721C121.928 32.2261 121.928 32.4393 121.928 32.5932V37.5675C121.928 38.0886 122.082 38.5268 122.296 38.8229C122.521 39.19 122.888 39.344 123.48 39.344C123.847 39.344 124.226 39.19 124.522 38.9769C124.818 38.7518 124.972 38.3847 125.043 37.9346L127.649 38.6571ZM131.356 41.9259V28.4954H139.149V31.0891H134.104V33.8368H138.486V36.4305H134.104V39.2493H139.149V41.914" fill="white"/>
</svg>
