<svg width="136" height="30" viewBox="0 0 136 30" fill="none" xmlns="http://www.w3.org/2000/svg">
<path d="M106.918 14.7788C106.918 23.2176 100.912 29.5468 92.4171 29.5468C83.922 29.5468 77.9445 23.5271 77.9445 14.7788C77.9445 6.50873 83.7392 0.010823 92.4734 0.010823C100.969 0.010823 106.918 6.29776 106.918 14.7788ZM99.4214 14.7788C99.4214 9.82801 97.5086 5.42575 92.389 5.42575C87.2694 5.42575 85.3566 9.82801 85.3566 14.7788C85.3566 19.7296 87.3116 24.1459 92.389 24.1459C97.4664 24.1459 99.4917 19.7014 99.4917 14.7788H99.4214ZM55.9473 12.1487C55.789 8.7242 54.3124 5.49365 51.8263 3.13319C49.2957 0.991092 46.0533 -0.123178 42.7405 0.010823C39.5265 0.0367387 36.4112 1.12461 33.8797 3.10506C32.1322 4.53729 30.732 6.34698 29.7844 8.39812C28.8368 10.4493 28.3664 12.6885 28.4085 14.9476C28.3167 16.9452 28.6448 18.9398 29.3716 20.8028C30.0984 22.6658 31.2077 24.3556 32.628 25.7633C35.67 28.3941 39.6099 29.7494 43.6266 29.5468C47.1566 29.4769 50.6225 28.5912 53.7532 26.9588C54.4283 26.5369 54.6393 26.3681 54.4705 25.679L53.2609 22.2753C53.2214 22.1514 53.1538 22.0383 53.0634 21.9448C52.973 21.8513 52.8621 21.78 52.7396 21.7364C52.617 21.6929 52.4861 21.6782 52.3569 21.6936C52.2278 21.709 52.104 21.7541 51.9951 21.8252C51.2371 22.22 50.4576 22.5722 49.6604 22.8801C48.0601 23.5169 46.3608 23.8691 44.6392 23.9209C41.1934 23.9209 39.2243 22.9785 37.7194 21.2486C36.7456 20.0871 36.1559 18.6522 36.0316 17.1417H55.019C55.1763 17.14 55.3312 17.1027 55.472 17.0326C55.6128 16.9625 55.7359 16.8614 55.832 16.7368C55.9282 16.6123 55.9948 16.4676 56.0269 16.3136C56.0591 16.1596 56.0559 16.0003 56.0176 15.8477V14.4412C56.0317 13.8224 56.0035 12.7816 55.9473 12.1487ZM49.1118 12.0362H35.9613C36.0975 11.0925 36.3823 10.1763 36.8052 9.32168C37.3566 8.15396 38.2315 7.1689 39.3258 6.48335C40.4202 5.7978 41.6883 5.44051 42.9796 5.45387C46.7911 5.45387 49.1118 8.04179 49.1118 11.8674V12.0362ZM62.7827 4.10366C64.9487 1.31884 68.3102 0.010823 73.8095 0.010823C75.1097 0.0199344 76.4057 0.16131 77.6773 0.432765C77.8126 0.467503 77.9387 0.531471 78.0467 0.620169C78.1546 0.708868 78.2418 0.820143 78.3022 0.946166C78.3625 1.07219 78.3945 1.2099 78.3959 1.34962C78.3973 1.48933 78.368 1.62765 78.3102 1.75485L77.6632 4.97567C77.5085 5.63672 77.3819 5.74923 76.8756 5.74923H76.4959C75.9755 5.63672 74.7378 5.51013 74.2033 5.51013C71.4748 5.51013 70.1667 6.19931 69.1963 7.2401C68.2258 8.28089 68.0289 10.2499 68.0289 13.4567V27.7043C68.0515 27.8944 68.0307 28.0872 67.968 28.2682C67.9053 28.4491 67.8024 28.6135 67.667 28.7489C67.5316 28.8843 67.3672 28.9872 67.1863 29.0499C67.0054 29.1126 66.8126 29.1334 66.6224 29.1108H62.2483C62.0593 29.128 61.8687 29.1035 61.6902 29.039C61.5117 28.9744 61.3496 28.8714 61.2154 28.7371C61.0812 28.6029 60.9782 28.4408 60.9136 28.2623C60.849 28.0838 60.8245 27.8933 60.8418 27.7043V13.6395C60.8418 8.61844 61.1372 6.22744 62.7827 4.10366ZM14.0063 10.0249C16.2695 7.41134 18.1885 4.51859 19.7165 1.4173C19.8042 1.11569 19.9904 0.852122 20.2453 0.668595C20.5002 0.485067 20.8092 0.392144 21.123 0.404636H25.8066C26.2285 0.404636 26.7348 0.601542 26.4535 1.4173C24.597 6.93067 20.3494 11.7689 18.0147 14.2725C21.9774 18.2449 25.1217 22.9566 27.2693 28.1403C27.4662 28.6466 27.3678 29.2233 26.2988 29.2233H20.6729C20.3542 29.2616 20.0327 29.1788 19.7722 28.9912C19.5117 28.8036 19.3312 28.525 19.2665 28.2106C17.9149 24.6712 15.8681 21.4383 13.2468 18.7029C10.6908 21.4962 8.60124 24.6827 7.05827 28.1403C6.97057 28.4419 6.78444 28.7055 6.52954 28.889C6.27464 29.0725 5.96565 29.1654 5.6518 29.1529H0.560365C0.452253 29.1343 0.350314 29.0896 0.263371 29.0227C0.176429 28.9558 0.107102 28.8687 0.0613911 28.7689C0.0156807 28.6692 -0.00503598 28.5598 0.00103434 28.4503C0.00710466 28.3408 0.039779 28.2344 0.0962293 28.1403C1.98791 23.0693 5.04195 18.5123 9.01327 14.8351C5.6518 10.7281 2.30439 5.63672 1.01044 1.4173C0.963857 1.31315 0.943861 1.19906 0.952245 1.08528C0.960629 0.971499 0.99713 0.861578 1.05847 0.765381C1.11982 0.669184 1.20408 0.589722 1.30371 0.534123C1.40334 0.478525 1.51521 0.44853 1.62929 0.44683H7.64899C7.94755 0.430945 8.2424 0.51894 8.48342 0.695858C8.72444 0.872777 8.89675 1.1277 8.97108 1.4173C10.2575 4.49849 11.951 7.39344 14.0063 10.0249ZM121.826 10.0249C124.109 7.41438 126.047 4.52151 127.593 1.4173C127.681 1.11569 127.867 0.852122 128.122 0.668595C128.377 0.485067 128.686 0.392144 129 0.404636H133.641C134.063 0.404636 134.569 0.601542 134.288 1.4173C132.431 6.93067 128.184 11.7689 125.849 14.2725C129.79 18.2515 132.914 22.9624 135.047 28.1403C135.244 28.6466 135.146 29.2233 134.077 29.2233H128.451C128.132 29.2616 127.811 29.1788 127.55 28.9912C127.29 28.8036 127.109 28.525 127.045 28.2106C125.685 24.6845 123.633 21.4661 121.011 18.745C118.493 21.5324 116.437 24.7042 114.921 28.1403C114.833 28.4419 114.647 28.7055 114.392 28.889C114.137 29.0725 113.828 29.1654 113.514 29.1529H108.324C108.22 29.1288 108.123 29.08 108.041 29.0108C107.959 28.9416 107.895 28.8539 107.854 28.7549C107.812 28.6559 107.795 28.5486 107.804 28.4417C107.812 28.3348 107.846 28.2315 107.902 28.1403C109.78 23.0799 112.814 18.5284 116.763 14.8491C113.402 10.7281 110.111 5.63672 108.817 1.4173C108.77 1.31315 108.75 1.19906 108.758 1.08528C108.767 0.971499 108.803 0.861578 108.865 0.765381C108.926 0.669184 109.01 0.589722 109.11 0.534123C109.21 0.478525 109.321 0.44853 109.435 0.44683H115.455C115.751 0.434262 116.043 0.523794 116.281 0.700449C116.519 0.877104 116.689 1.13017 116.763 1.4173C118.058 4.50003 119.761 7.39506 121.826 10.0249Z" fill="white"/>
</svg>
