<svg width="150" height="60" viewBox="0 0 150 60" fill="none" xmlns="http://www.w3.org/2000/svg">
<path d="M1 12.9844L12.4909 24.118L1 34.9635V12.9844Z" fill="white" stroke="#234796" stroke-width="1.07104" stroke-miterlimit="10"/>
<path d="M1 12.9838L20.0286 2L12.4909 24.1175L1 12.9838Z" fill="white" stroke="#234796" stroke-width="1.07104" stroke-miterlimit="10"/>
<path d="M1 34.9627L12.4909 24.1172L20.0286 45.958L1 34.9627Z" fill="white" stroke="#234796" stroke-width="1.07104" stroke-miterlimit="10"/>
<path d="M39.0694 34.9632L26.6565 33.0039L20.0293 45.9586L39.0694 34.9632Z" fill="white" stroke="#234796" stroke-width="1.07104" stroke-miterlimit="10"/>
<path d="M12.4902 24.1172L20.028 45.958L26.6551 33.0034L12.4902 24.1172Z" fill="white" stroke="#234796" stroke-width="1.07104" stroke-miterlimit="10"/>
<path d="M20.028 2L12.4902 24.1175L32.925 18.3893L20.028 2Z" fill="white" stroke="#234796" stroke-width="1.07104" stroke-miterlimit="10"/>
<path d="M12.4902 24.1169L26.6551 33.003L32.925 18.3887L12.4902 24.1169Z" fill="white" stroke="#234796" stroke-width="1.07104" stroke-miterlimit="10"/>
<path d="M32.9242 18.3887L26.6543 33.003L39.0672 34.9624L32.9242 18.3887Z" fill="white" stroke="#234796" stroke-width="1.07104" stroke-miterlimit="10"/>
<path d="M32.9263 18.3893L20.0293 2L39.0694 12.9838L32.9263 18.3893Z" fill="white" stroke="#234796" stroke-width="1.07104" stroke-miterlimit="10"/>
<path d="M39.0688 34.9635L32.9258 18.3898L39.0688 12.9844V34.9635Z" fill="white" stroke="#234796" stroke-width="1.07104" stroke-miterlimit="10"/>
<path d="M70.2779 13.0645H61.7836L54.8798 21.3628V13.0645H47.9414V34.9975H54.9029V29.7995L58.1415 26.2381L62.9592 34.9975H70.8081L62.6364 21.3743L70.2779 13.0645ZM83.1864 18.5045C79.6251 18.5045 78.4264 20.314 77.8962 21.0516V18.9079H71.8338V34.9975H78.2535V26.434C78.2535 25.5581 78.3227 23.7832 80.5817 23.7832C82.7254 23.7832 82.7254 25.3968 82.7254 26.2035V34.986H89.1451V24.832C89.1451 23.6218 89.053 21.4666 87.5316 19.9798C86.3445 18.9425 84.777 18.4008 83.1864 18.5045ZM100.797 18.2164C94.8503 18.2164 91.2774 21.7777 91.2774 27.0795C91.2774 31.4015 93.9513 35.6429 100.463 35.6429C106.56 35.6429 110.075 32.0815 110.075 26.9988C110.11 24.613 109.211 22.3079 107.563 20.5791C106.318 19.3689 104.082 18.2509 100.797 18.2164ZM100.648 31.1595C98.0313 31.1595 97.6625 28.451 97.6625 26.8835C97.6625 25.074 98.1927 22.7805 100.625 22.7228C103.541 22.6306 103.61 25.8578 103.61 26.8259C103.633 29.2924 102.918 31.1595 100.648 31.1595ZM122.569 18.4699C119.803 18.4699 118.743 19.657 118.293 20.1526V18.9079H112.035V40.8755H118.351V33.9372C118.881 34.4328 119.907 35.4355 122.523 35.4355C127.375 35.4355 129.611 31.7588 129.611 27.068C129.611 22.8266 127.767 18.4699 122.569 18.4699ZM122.385 30.2259C121.486 31.1365 120.034 31.1365 119.123 30.249C118.835 29.9724 118.627 29.6151 118.524 29.2232C118.305 28.5086 118.212 27.7595 118.247 27.0103C118.247 26.1113 118.247 24.6476 119.181 23.7832C119.642 23.3452 120.252 23.1032 120.898 23.1262C123.168 23.1954 123.295 25.8693 123.295 27.1371C123.387 28.2551 123.065 29.35 122.385 30.2259ZM142.324 18.4699C139.558 18.4699 138.497 19.657 138.048 20.1526V18.9079H131.79V40.8755H138.106V33.9372C138.636 34.4328 139.661 35.4355 142.278 35.4355C147.13 35.4355 149.366 31.7588 149.366 27.068C149.354 22.8266 147.522 18.4699 142.324 18.4699ZM142.151 30.2259C141.252 31.1365 139.8 31.1365 138.889 30.249C138.601 29.9724 138.394 29.6151 138.29 29.2232C138.071 28.5086 137.979 27.7595 138.013 27.0103C138.013 26.1113 138.013 24.6476 138.947 23.7832C139.408 23.3452 140.019 23.1032 140.664 23.1262C142.935 23.1954 143.062 25.8693 143.062 27.1371C143.165 28.2551 142.831 29.35 142.151 30.2259Z" fill="white"/>
<path d="M57.3401 51.2718C58.7116 50.8454 59.6337 49.543 59.5761 48.1023C59.5761 45.8318 57.8127 44.7484 56.3489 44.4603C55.7035 44.3681 55.0465 44.3335 54.3896 44.3565H48.3848V58.9709H54.0899C56.2452 58.9709 57.2479 58.9709 58.4004 58.1987C59.4838 57.4726 60.1062 56.2278 60.037 54.9254C60.1408 53.2081 59.0113 51.6637 57.3401 51.2718ZM50.2058 46.0738H54.7353C55.5191 46.0738 57.5245 46.1199 57.5245 48.206C57.536 48.6671 57.4092 49.1281 57.1557 49.5084C56.4987 50.4996 55.4615 50.4996 53.2486 50.4996H50.2058V46.0738ZM56.3259 57.1268C55.7265 57.242 55.1272 57.2881 54.5279 57.2536H50.2058V52.1708H53.7787C55.5767 52.1708 56.0377 52.2054 56.614 52.459C57.513 52.8854 58.0662 53.8074 58.0201 54.7986C58.0201 55.9281 57.5706 56.8156 56.3259 57.1268ZM61.4432 46.2698H63.0337V44.368H61.4432V46.2698ZM61.4432 58.9709H63.0337V49.2203H61.4432V58.9709ZM69.3612 48.9091C65.5693 48.9091 64.4975 51.9864 64.4975 54.1647C64.4975 56.7349 65.9266 59.259 69.2921 59.259C72.2772 59.259 74.0291 57.0461 74.0521 54.0841C74.0752 51.4217 72.5768 48.9091 69.3612 48.9091ZM72.2541 54.0841C72.2541 55.0752 72.0236 57.9105 69.269 57.9105C67.1368 57.9105 66.2955 56.2163 66.2955 54.1647C66.2955 51.9288 67.1829 50.2115 69.3958 50.2115C70.5138 50.2115 71.7816 50.7532 72.1274 52.701C72.2196 53.1505 72.2657 53.623 72.2541 54.0841ZM80.783 53.381L79.8494 53.1505C78.5701 52.8393 77.5098 52.5512 77.5098 51.6176C77.5098 50.9606 78.1552 50.1884 79.4345 50.1884C80.103 50.1654 80.7715 50.3728 81.3132 50.7647C81.8088 51.122 82.0738 51.7213 82.0162 52.3437L83.8027 52.1132C83.4685 49.8196 81.4861 48.9322 79.6189 48.9322C77.3599 48.9322 75.8501 50.0271 75.8501 51.8251C75.8501 53.8535 77.7748 54.2915 79.3423 54.6603L80.2758 54.8447C81.4514 55.0752 82.3043 55.2827 82.3043 56.4007C82.3043 57.5187 81.463 58.0143 80.0108 58.0143C79.3077 58.0834 78.6047 57.8875 78.04 57.4726C77.5098 56.9885 77.2332 56.2854 77.3138 55.5708L75.4467 55.859C75.5274 56.9078 76.0575 57.8644 76.8989 58.4983C77.7979 59.0516 78.8582 59.3282 79.9186 59.2821C82.6155 59.2821 84.0216 57.7953 84.0216 56.2048C84.0216 54.1532 81.9355 53.6461 80.783 53.381ZM90.3146 58.0027C89.3349 58.0373 88.4129 57.5417 87.8943 56.7003C87.4332 55.9051 87.2143 54.9946 87.2604 54.0725C87.2604 53.2081 87.3756 50.1193 90.2109 50.1193C91.5479 50.0501 92.7004 51.0298 92.8387 52.3552L94.6597 52.1823C94.0258 49.4508 91.7207 48.9091 90.1532 48.9091C86.903 48.9091 85.4278 51.4101 85.4278 54.1878C85.4278 56.5851 86.7071 59.259 90.2915 59.259C92.0895 59.259 93.4841 58.5905 94.2909 57.1037C94.5675 56.5966 94.7519 56.0434 94.8326 55.4671L93.0461 55.3058C92.9655 56.0549 92.7004 58.0027 90.3146 58.0027ZM96.2618 58.9709H97.8522V49.2203H96.2618V58.9709ZM96.2618 46.2698H97.8522V44.368H96.2618V46.2698ZM108.283 52.3668C107.891 50.3267 106.081 48.863 103.995 48.9091C101.921 48.9091 99.2699 50.3152 99.2699 54.0034C99.2699 57.2766 101.16 59.259 104.053 59.259C106.105 59.3282 107.937 57.9682 108.467 55.9858L106.785 55.7668C106.496 57.0692 105.667 58.0373 104.203 58.0373C101.886 58.0373 101.01 56.0088 101.056 54.3722H108.467C108.479 53.7037 108.41 53.0237 108.26 52.3668H108.283ZM101.102 53.1735C101.298 51.2027 102.474 50.1769 103.88 50.1769C104.687 50.1769 106.531 50.6034 106.669 53.1735H101.102ZM114.599 48.9091C113.343 48.8861 112.178 49.5545 111.556 50.6495V49.2203H109.919V58.9709H111.556V53.4041C111.464 52.6088 111.729 51.802 112.282 51.2142C112.778 50.7186 113.446 50.4535 114.149 50.4766C115.071 50.4074 115.913 50.9606 116.235 51.8251C116.351 52.3668 116.385 52.92 116.339 53.4617V59.0055H117.976V53.1505C118.01 52.482 117.953 51.802 117.803 51.1451C117.365 49.7505 116.04 48.84 114.576 48.9091H114.599ZM124.269 58.0027C123.289 58.0373 122.367 57.5417 121.848 56.7003C121.387 55.9051 121.168 54.9946 121.214 54.0725C121.214 53.2081 121.341 50.1193 124.165 50.1193C125.502 50.0386 126.655 51.0298 126.793 52.3552L128.614 52.1823C127.968 49.4508 125.675 48.9091 124.096 48.9091C120.846 48.9091 119.382 51.4101 119.382 54.1878C119.382 56.5851 120.661 59.259 124.246 59.259C126.044 59.259 127.427 58.5905 128.245 57.1037C128.522 56.5966 128.706 56.0434 128.787 55.4671L127 55.3058C126.897 56.0664 126.62 58.0143 124.246 58.0143H124.269V58.0027ZM139.206 52.3668C138.814 50.3267 137.004 48.863 134.918 48.9091C132.855 48.9091 130.204 50.3152 130.204 54.0034C130.204 57.2766 132.083 59.259 134.987 59.259C137.039 59.3282 138.86 57.9682 139.39 55.9858L137.719 55.7668C137.431 57.0692 136.601 58.0373 135.126 58.0373C132.809 58.0373 131.945 56.0088 131.979 54.3722H139.39C139.402 53.7037 139.333 53.0237 139.183 52.3668H139.206ZM132.025 53.1735C132.21 51.2027 133.397 50.1769 134.803 50.1769C135.61 50.1769 137.442 50.6034 137.592 53.1735H132.025ZM146.121 53.381L145.188 53.1505C143.908 52.8393 142.848 52.5512 142.848 51.6176C142.848 50.9606 143.493 50.1884 144.773 50.1884C145.453 50.1654 146.11 50.3728 146.663 50.7647C147.158 51.122 147.424 51.7213 147.366 52.3437L149.152 52.1132C148.818 49.8196 146.836 48.9322 144.969 48.9322C142.721 48.9322 141.2 50.0271 141.2 51.8251C141.2 53.8535 143.124 54.2915 144.692 54.6603L145.626 54.8447C146.801 55.0752 147.654 55.2827 147.654 56.4007C147.654 57.5187 146.813 58.0143 145.36 58.0143C144.657 58.0834 143.954 57.8875 143.39 57.4726C142.848 57 142.583 56.2854 142.663 55.5708L140.796 55.859C140.889 56.9078 141.407 57.8644 142.249 58.4983C143.159 59.0516 144.208 59.3282 145.268 59.2821C147.965 59.2821 149.371 57.7953 149.371 56.2048C149.36 54.1417 147.274 53.6461 146.11 53.381H146.121Z" fill="white"/>
</svg>
