<svg width="217" height="35" viewBox="0 0 217 35" fill="none" xmlns="http://www.w3.org/2000/svg">
<g clip-path="url(#clip0_5774_68862)">
<path d="M0.922428 16.4791C1.69193 12.3984 5.23165 9.57324 10.1565 9.57324C15.8508 9.57324 20.3139 12.0845 20.3139 19.932V34.5284H15.3891L14.7735 31.3894C13.0806 33.5867 10.7721 34.9993 7.38626 34.9993C3.23094 34.9993 -0.000976562 32.3311 -0.000976562 27.4656C-0.000976562 22.6001 4.30824 19.4611 10.3104 19.4611H14.3118V18.3625C14.3118 15.5374 12.3111 14.7526 10.0026 14.7526C8.30966 14.7526 6.61675 15.3804 5.84725 17.5777L0.922428 16.4791ZM8.77136 29.8199C11.5416 29.8199 14.3118 27.9365 14.3118 24.7975V24.3266H10.4643C7.84796 24.1697 6.30895 25.2683 6.30895 27.4656C6.30895 28.5643 7.23236 29.8199 8.77136 29.8199Z" fill="white"/>
<path d="M116.964 16.4791C117.734 12.3984 121.274 9.57324 126.198 9.57324C131.893 9.57324 136.356 12.0845 136.356 19.932V34.5284H131.431L130.815 31.3894C129.123 33.5867 126.814 34.9993 123.428 34.9993C119.273 34.9993 116.041 32.3311 116.041 27.4656C116.041 22.6001 120.35 19.4611 126.352 19.4611H130.354V18.3625C130.354 15.5374 128.353 14.7526 126.045 14.7526C124.352 14.7526 122.659 15.3804 121.889 17.5777L116.964 16.4791ZM124.813 29.8199C127.584 29.8199 130.354 27.9365 130.354 24.7975V24.3266H126.352C123.736 24.3266 122.197 25.2683 122.197 27.4656C122.351 28.5643 123.274 29.8199 124.813 29.8199Z" fill="white"/>
<path d="M141.741 34.6854V9.88714H147.743V13.9679C149.436 10.9858 152.206 9.57324 154.823 9.57324C155.9 9.57324 156.823 9.73019 157.747 10.0441L156.67 15.6943C155.9 15.2235 155.131 14.9096 154.207 14.9096C150.667 14.9096 147.743 17.8916 147.743 25.7392V34.5284L141.741 34.6854Z" fill="white"/>
<path d="M170.522 9.57399C172.984 9.57399 175.293 10.8296 176.37 12.2422V0H182.372V34.6861H176.37V32.1749C175.6 33.4305 173.446 35.1569 170.522 35.1569C163.288 35.1569 159.595 29.9776 159.595 22.4439C159.595 14.9103 163.288 9.57399 170.522 9.57399ZM171.445 29.8206C174.523 29.8206 176.986 27.1525 176.986 22.287C176.986 17.4215 174.523 14.7534 171.445 14.7534C168.367 14.7534 165.905 17.4215 165.905 22.287C165.905 27.1525 168.367 29.8206 171.445 29.8206Z" fill="white"/>
<path d="M203.917 13.4984L200.378 16.7944C199.3 15.2249 197.607 14.5971 196.376 14.5971C195.145 14.5971 194.068 15.3818 194.068 16.6374C194.068 17.7361 194.991 18.5208 196.376 18.9917C199.762 20.2473 205.149 21.3459 205.149 26.5253C205.149 31.0769 201.763 34.6868 196.53 34.6868C191.451 34.6868 188.066 31.0769 186.988 28.0948L191.759 25.4267C192.683 27.7809 194.222 29.5074 196.684 29.5074C198.531 29.5074 199.762 28.5657 199.762 26.8392C199.762 24.7989 196.684 24.328 193.76 23.0724C191.144 21.9737 188.835 20.2473 188.835 16.4805C188.835 12.7137 191.913 9.26074 196.53 9.26074C199.608 9.41769 202.532 11.1442 203.917 13.4984Z" fill="white"/>
<path d="M79.8736 9.8877L75.5643 26.9953L71.409 9.8877H65.8686L61.8672 26.9953L58.4814 17.1074L58.0197 18.2061L56.1729 24.6411L59.2509 34.6859H64.4835L68.6388 18.6769L72.7941 34.6859H78.1807L85.8757 9.8877H79.8736Z" fill="white"/>
<path d="M108.653 9.8877L104.344 26.9953L100.189 9.8877H94.6485L90.6471 26.9953L87.2612 17.1074L86.7995 18.2061L84.7988 24.6411L88.0307 34.6859H93.2634L97.4187 18.6769L101.574 34.6859H106.807L114.656 9.8877H108.653Z" fill="white"/>
<path d="M57.0956 9.8877L49.4006 34.529H44.168L40.0127 18.6769L35.8573 34.6859H30.6247L22.9297 10.0446H28.9318L33.241 26.9953L37.3964 10.0446H42.9368L47.0921 26.9953L51.4013 10.0446L57.0956 9.8877Z" fill="white"/>
<path d="M212.998 26.6816C215.307 26.6816 217 28.4081 217 30.7624C217 33.1166 215.307 34.8431 212.998 34.8431C210.69 34.8431 208.997 33.1166 208.997 30.7624C208.997 28.4081 210.69 26.6816 212.998 26.6816Z" fill="white"/>
</g>
<defs>
<clipPath id="clip0_5774_68862">
<rect width="217" height="35" fill="white"/>
</clipPath>
</defs>
</svg>
