<svg width="84" height="84" viewBox="0 0 84 84" fill="none" xmlns="http://www.w3.org/2000/svg">
<path d="M39.8469 0.0532302C39.0424 2.01201 31.4171 23.0864 31.3996 23.4537H38.5002C39.1583 23.4439 39.8154 23.5084 40.459 23.6461C41.7083 23.8772 42.8209 24.5798 43.5665 25.6086C44.312 26.6374 44.6334 27.9135 44.464 29.1726C44.3894 29.8672 44.2248 30.5492 43.9743 31.2014L33.6557 59.5862L33.5158 59.9185H24.7713L35.9643 28.9977H29.3184L18.0379 59.936H9.29338L30.3678 1.80214V1.59227C21.4904 4.10411 13.698 9.49173 8.21297 16.91C2.7279 24.3282 -0.139495 33.3574 0.0605847 42.5811C0.260665 51.8048 3.5169 60.7011 9.31849 67.8745C15.1201 75.048 23.1388 80.0926 32.1167 82.2171L53.4359 23.4887H69.6134C70.4131 23.4729 71.2101 23.585 71.9744 23.821C73.0075 24.1224 73.9114 24.7582 74.5444 25.6286C75.1774 26.4989 75.5037 27.5547 75.4722 28.6305C75.4591 29.4923 75.2933 30.345 74.9825 31.1489L65.8007 56.2983C65.6161 56.8275 65.3377 57.3192 64.9788 57.7499C64.4358 58.4391 63.7419 58.9946 62.9506 59.3736C62.1592 59.7526 61.2915 59.945 60.4141 59.936H49.0462C49.0128 59.986 48.9835 60.0386 48.9587 60.0934L40.529 83.214C48.1613 83.4275 55.7057 81.5401 62.3385 77.7579C68.9713 73.9757 74.4376 68.4441 78.1408 61.7669C81.8439 55.0897 83.6416 47.5234 83.3376 39.8941C83.0335 32.2648 80.6394 24.8656 76.4166 18.5043C72.4476 12.5184 66.9883 7.66928 60.5761 4.43404C54.1639 1.1988 47.0198 -0.311001 39.8469 0.0532302ZM60.3092 28.9977L51.0224 54.4094H57.6683L66.955 28.9977H60.3092Z" fill="white"/>
<path d="M39.8486 0.0543412C47.3709 -0.30145 54.849 1.38846 61.4873 4.94432C68.1257 8.50017 73.676 13.789 77.5479 20.2481C81.4198 26.7072 83.4684 34.0951 83.4758 41.6258C83.4833 49.1565 81.4492 56.5484 77.5901 63.0152C73.7984 69.4026 68.3639 74.6568 61.8523 78.231C55.3407 81.8051 47.9901 83.5685 40.5656 83.3375L48.9604 60.0945C48.9852 60.0397 49.0145 59.9871 49.0478 59.9371H60.4333C61.3106 59.9461 62.1784 59.7537 62.9697 59.3747C63.7611 58.9957 64.4549 58.4402 64.9979 57.751C65.3568 57.3204 65.6353 56.8286 65.8199 56.2994L74.9842 31.1325C75.295 30.3286 75.4608 29.4759 75.4739 28.6141C75.5054 27.5383 75.1791 26.4825 74.5461 25.6122C73.9131 24.7418 73.0092 24.1061 71.9761 23.8046C71.2118 23.5687 70.4147 23.4565 69.6151 23.4723H53.4376L32.0659 82.1833C23.088 80.0588 15.0693 75.0141 9.26771 67.8407C3.46612 60.6673 0.209883 51.7709 0.0098035 42.5472C-0.190276 33.3235 2.67712 24.2944 8.16219 16.8761C13.6473 9.45786 21.4397 4.07024 30.317 1.55841V1.80325L9.27758 59.7447H18.0221L29.3201 28.9988H35.966L24.7205 59.8671C25.0178 59.9546 32.748 59.9896 33.465 59.8671L33.6049 59.5349L43.941 31.15C44.1915 30.4978 44.3561 29.8159 44.4307 29.1213C44.6001 27.8621 44.2787 26.586 43.5332 25.5572C42.7876 24.5285 41.675 23.8258 40.4257 23.5947C39.7821 23.4571 39.125 23.3925 38.4669 23.4023H31.4013C31.4363 23.0875 39.0441 2.01312 39.8486 0.0543412Z" fill="white"/>
<path d="M60.3121 28.998H66.958L57.6713 54.4097H51.0254L60.3121 28.998Z" fill="white"/>
</svg>
