<svg width="204" height="203" viewBox="0 0 204 203" fill="none" xmlns="http://www.w3.org/2000/svg">
<path d="M169.281 77.121C169.904 77.8059 170.526 78.4909 171.18 79.1447C174.636 82.7875 178.092 86.3992 181.548 90.042C184.568 93.1866 187.588 96.3935 190.608 99.5382C191.107 100.067 191.574 100.534 192.134 101.126C192.134 97.2964 192.134 93.5602 192.134 89.7929C192.134 86.0256 192.134 82.3516 192.134 78.5843C193.411 78.5843 194.656 78.5843 195.933 78.5843C195.933 89.1391 195.933 99.725 195.933 110.373C188.304 102.371 180.708 94.4009 173.048 86.3992C173.048 93.9961 173.048 101.562 173.048 109.128C171.741 109.128 170.464 109.128 169.219 109.128C169.219 98.4173 169.219 87.7691 169.219 77.0898C169.25 77.121 169.25 77.121 169.281 77.121Z" fill="white"/>
<path d="M48.1345 112.366C47.2005 111.743 46.2353 111.151 45.3635 110.466C41.5962 107.478 39.1988 103.648 38.5138 98.8532C37.7043 93.1866 39.3233 88.1739 43.184 84.0018C46.2664 80.6392 50.096 78.74 54.6106 78.0861C62.4255 76.9653 70.1158 80.5147 74.1011 87.3021C75.1597 89.1079 75.8446 91.0383 76.2494 93.1243C76.2805 93.2177 76.2805 93.3423 76.2805 93.5291C76.156 93.4668 76.0314 93.4357 75.938 93.3734C70.1469 90.9449 64.2935 90.6647 58.5647 93.4668C52.7736 96.269 49.2554 100.908 48.1968 107.291C47.9166 108.941 47.8854 110.622 48.1345 112.366Z" fill="white"/>
<path d="M149.853 109.813C140.824 109.813 133.725 102.621 133.849 93.6538C133.943 85.4653 140.855 77.8684 149.946 77.8995C158.944 77.9618 166.074 85.3719 165.918 94.1831C165.763 102.807 158.851 109.813 149.853 109.813ZM162.089 93.6538C162.058 93.3113 162.058 92.782 161.995 92.2216C161.559 88.8279 160.065 85.9946 157.325 83.9397C154.492 81.7914 151.285 81.1375 147.798 81.698C145.182 82.1339 142.941 83.2547 141.135 85.1851C138.146 88.3609 137.181 92.1593 137.959 96.3937C139.142 102.839 145.556 107.26 151.97 106.077C157.823 104.987 162.12 99.8497 162.089 93.6538Z" fill="white"/>
<path d="M31.2913 109.16C30.0147 109.16 28.8005 109.16 27.4928 109.16C27.4928 104.271 27.4928 99.4143 27.4928 94.495C22.6357 94.495 17.841 94.495 12.9839 94.495C12.9839 99.3832 12.9839 104.24 12.9839 109.128C11.6762 109.128 10.462 109.128 9.18543 109.128C9.1543 98.9785 9.1543 88.7973 9.1543 78.6162C10.4308 78.6162 11.6451 78.6162 12.9528 78.6162C12.9528 82.6949 12.9528 86.7736 12.9528 90.8834C17.8098 90.8834 22.6046 90.8834 27.4617 90.8834C27.4617 86.8047 27.4617 82.726 27.4617 78.6162C28.7693 78.6162 29.9836 78.6162 31.2913 78.6162C31.2913 88.7973 31.2913 98.9473 31.2913 109.16Z" fill="white"/>
<path d="M82.2273 78.6161C82.3207 78.6161 82.4141 78.585 82.4764 78.585C84.9983 78.6161 87.5514 78.6161 90.0733 78.6784C91.8791 78.7406 93.6538 79.1143 95.1795 80.1417C97.8571 82.0098 98.9779 84.594 98.8845 87.7698C98.8222 89.8558 98.075 91.6928 96.6739 93.2807C95.4285 94.6506 93.8718 95.4601 92.0971 95.7715C91.9726 95.8026 91.8169 95.8337 91.6301 95.8649C94.837 100.286 98.0439 104.676 101.251 109.128C101.064 109.128 100.971 109.16 100.815 109.16C99.5384 109.16 98.2929 109.16 96.9853 109.16C96.7051 109.16 96.5183 109.066 96.3626 108.848C93.5293 104.738 90.6649 100.66 87.8005 96.5498C87.6448 96.3319 87.4891 96.2385 87.1778 96.2696C86.8353 96.3008 86.4305 96.2696 85.9946 96.2696C85.9946 100.597 85.9946 104.863 85.9946 109.191C84.687 109.191 83.4104 109.191 82.165 109.191C82.2273 98.9472 82.2273 88.7972 82.2273 78.6161ZM86.0569 92.9693C87.0844 92.9693 88.143 93.0316 89.1393 92.9693C90.4781 92.8759 91.7857 92.5646 93 91.973C93.9652 91.4748 94.6502 90.7276 95.0238 89.7001C95.4285 88.5793 95.4597 87.4584 95.2729 86.3064C95.0238 84.6563 94.0897 83.5043 92.533 82.9127C91.1942 82.3834 89.7931 82.1344 88.3609 82.0721C87.6137 82.0409 86.8664 82.0721 86.088 82.0721C86.0569 85.7149 86.0569 89.3577 86.0569 92.9693Z" fill="white"/>
<path d="M113.299 82.1033C113.299 80.9202 113.299 79.7993 113.299 78.6162C119.775 78.6162 126.251 78.6162 132.79 78.6162C127.653 87.6142 122.515 96.6122 117.347 105.641C122.515 105.641 127.621 105.641 132.759 105.641C132.759 106.856 132.759 107.976 132.759 109.16C125.535 109.16 118.343 109.16 111.058 109.16C116.226 100.162 121.363 91.1636 126.532 82.1033C122.111 82.1033 117.721 82.1033 113.299 82.1033Z" fill="white"/>
<path d="M107.913 109.128C106.636 109.128 105.422 109.128 104.114 109.128C104.114 98.9472 104.114 88.7972 104.114 78.585C105.391 78.585 106.605 78.585 107.913 78.585C107.913 88.7972 107.913 98.9472 107.913 109.128Z" fill="white"/>
<path d="M142.504 125.131C141.788 123.232 141.072 121.457 140.355 119.527C139.608 121.457 138.923 123.232 138.207 125.131C137.149 122.422 136.09 119.838 135.062 117.191C135.156 117.16 135.187 117.16 135.218 117.16C136.09 117.129 136.09 117.129 136.401 117.908C136.993 119.371 137.553 120.834 138.114 122.298C138.145 122.36 138.176 122.422 138.238 122.547C138.954 120.647 139.67 118.873 140.387 116.942C141.134 118.873 141.819 120.647 142.535 122.547C142.597 122.391 142.659 122.298 142.691 122.142C143.282 120.647 143.905 119.122 144.434 117.596C144.559 117.254 144.714 117.036 145.15 117.098C145.306 117.129 145.462 117.098 145.711 117.098C144.621 119.838 143.562 122.422 142.504 125.131Z" fill="white"/>
<path d="M35.3685 122.765C35.3685 120.835 35.3685 119.029 35.3685 117.192C35.6798 117.192 36.0223 117.192 36.3025 117.192C36.3025 119.807 36.3025 122.423 36.3025 125.131C34.3722 123.108 32.5352 121.177 30.6048 119.185C30.6048 121.115 30.6048 122.952 30.6048 124.82C30.2935 124.82 29.951 124.82 29.6396 124.82C29.6396 122.174 29.6396 119.558 29.6396 116.818C31.57 118.78 33.407 120.741 35.3685 122.765Z" fill="white"/>
<path d="M168.875 117.067C169.902 117.161 170.961 117.13 171.926 117.316C173.639 117.659 174.697 118.998 174.728 120.741C174.759 122.703 173.825 124.073 172.051 124.571C171.023 124.851 169.934 124.789 168.875 124.789C168.875 122.236 168.875 119.714 168.875 117.067ZM169.809 123.855C170.214 123.855 170.525 123.886 170.836 123.855C172.954 123.668 174.043 122.236 173.67 120.243C173.39 118.718 171.49 117.628 169.809 118.064C169.809 119.994 169.809 121.924 169.809 123.855Z" fill="white"/>
<path d="M62.3946 124.789C61.9587 124.789 61.6785 124.82 61.3672 124.789C61.2737 124.789 61.1492 124.664 61.0558 124.571C60.402 123.668 59.7793 122.765 59.1566 121.862C59.0632 121.738 58.8764 121.675 58.7207 121.551C58.6896 121.582 58.6584 121.613 58.5962 121.644C58.5962 122.672 58.5962 123.73 58.5962 124.789C58.2848 124.789 57.9735 124.789 57.6621 124.789C57.6621 122.267 57.6621 119.745 57.6621 117.099C58.5339 117.13 59.4057 117.13 60.2774 117.254C61.1803 117.379 61.8342 118.251 61.8653 119.247C61.8964 120.274 61.3049 121.146 60.402 121.395C60.3086 121.426 60.2152 121.458 60.0906 121.489C60.8067 122.578 61.5851 123.668 62.3946 124.789ZM58.5962 120.835C59.1877 120.71 59.7481 120.648 60.2152 120.523C60.6511 120.399 60.8379 120.025 60.869 119.589C60.9001 119.122 60.869 118.687 60.4331 118.406C59.8727 118.064 59.2189 117.97 58.5339 118.064C58.5962 118.936 58.5962 119.839 58.5962 120.835Z" fill="white"/>
<path d="M161.03 121.489C161.03 122.703 161.03 123.73 161.03 124.789C160.718 124.789 160.407 124.789 160.096 124.789C160.096 122.298 160.096 119.745 160.096 117.099C160.967 117.161 161.839 117.13 162.742 117.285C163.676 117.441 164.237 118.282 164.268 119.309C164.299 120.306 163.707 121.115 162.804 121.426C162.711 121.458 162.618 121.489 162.493 121.52C163.271 122.641 164.05 123.668 164.859 124.82C164.455 124.82 164.143 124.851 163.832 124.82C163.707 124.82 163.583 124.664 163.521 124.571C162.867 123.668 162.244 122.765 161.621 121.862C161.497 121.675 161.279 121.613 161.03 121.489ZM161.061 120.741C161.684 120.773 162.275 120.741 162.773 120.492C163.24 120.274 163.334 119.87 163.365 119.434C163.365 118.998 163.271 118.593 162.836 118.375C162.275 118.095 161.684 118.033 161.061 118.095C161.061 118.936 161.061 119.838 161.061 120.741Z" fill="white"/>
<path d="M156.11 124.758C155.083 124.82 154.989 124.851 154.709 123.948C154.429 123.045 153.9 122.672 152.966 122.827C152.312 122.921 151.658 122.858 151.004 122.827C150.786 122.827 150.662 122.89 150.537 123.107C150.381 123.543 150.132 123.917 149.977 124.353C149.852 124.664 149.697 124.82 149.323 124.789C149.167 124.758 148.98 124.789 148.7 124.789C149.946 122.111 151.129 119.496 152.374 116.787C153.682 119.496 154.896 122.142 156.11 124.758ZM152.436 118.935C151.969 119.994 151.565 120.99 151.098 121.956C152.001 121.956 152.841 121.956 153.744 121.956C153.339 120.959 152.903 120.025 152.436 118.935Z" fill="white"/>
<path d="M65.6318 124.789C66.8772 122.08 68.0604 119.496 69.3057 116.787C70.5511 119.496 71.7343 122.111 72.9797 124.789C72.6372 124.789 72.357 124.82 72.0768 124.789C71.9833 124.789 71.8899 124.664 71.8277 124.571C71.6097 124.104 71.3918 123.637 71.1738 123.17C71.1116 123.045 70.9248 122.921 70.7691 122.921C69.8039 122.89 68.8387 122.921 67.8735 122.89C67.6556 122.89 67.5311 122.952 67.4065 123.17C67.2197 123.637 67.0018 124.042 66.815 124.477C66.7216 124.727 66.597 124.882 66.2857 124.82C66.13 124.758 65.912 124.789 65.6318 124.789ZM67.9981 121.987C68.901 121.987 69.7416 121.987 70.6757 121.987C70.2087 120.99 69.8039 119.994 69.3369 118.967C68.8387 120.025 68.4028 120.959 67.9981 121.987Z" fill="white"/>
<path d="M124.54 124.789C125.785 122.08 126.969 119.496 128.214 116.787C129.459 119.496 130.643 122.08 131.888 124.789C131.545 124.789 131.234 124.82 130.985 124.789C130.892 124.789 130.798 124.664 130.736 124.571C130.518 124.104 130.269 123.637 130.082 123.139C129.989 122.952 129.895 122.89 129.646 122.89C128.681 122.89 127.685 122.89 126.719 122.89C126.595 122.89 126.408 123.014 126.377 123.108C126.159 123.543 125.941 123.948 125.785 124.384C125.661 124.695 125.505 124.851 125.163 124.82C125.007 124.758 124.789 124.789 124.54 124.789ZM126.875 121.987C127.778 121.987 128.619 121.987 129.522 121.987C129.055 120.99 128.65 119.994 128.183 118.967C127.778 119.994 127.342 120.959 126.875 121.987Z" fill="white"/>
<path d="M49.0049 124.758C49.0049 122.236 49.0049 119.714 49.0049 117.161C50.3748 117.161 51.7136 117.161 53.1147 117.161C53.1147 117.41 53.1147 117.722 53.1147 118.002C52.0872 118.002 51.0287 118.002 50.0012 118.002C50.0012 118.718 50.0012 119.403 50.0012 120.119C50.9975 120.119 51.9938 120.119 52.9902 120.119C52.9902 120.43 52.9902 120.711 52.9902 120.991C51.9938 120.991 50.9975 120.991 49.9701 120.991C49.9701 121.956 49.9701 122.921 49.9701 123.855C50.9975 123.855 52.025 123.855 53.0524 123.855C53.0524 124.167 53.0524 124.447 53.0524 124.727C51.7136 124.758 50.3437 124.758 49.0049 124.758Z" fill="white"/>
<path d="M110.497 117.161C111.867 117.161 113.237 117.161 114.607 117.161C114.607 117.441 114.607 117.69 114.607 118.002C113.579 118.002 112.552 118.002 111.493 118.002C111.493 118.718 111.493 119.403 111.493 120.119C112.458 120.119 113.486 120.119 114.482 120.119C114.482 120.43 114.482 120.711 114.482 120.991C113.517 120.991 112.49 120.991 111.493 120.991C111.493 121.956 111.493 122.921 111.493 123.886C112.521 123.886 113.548 123.886 114.576 123.886C114.576 124.198 114.576 124.478 114.576 124.758C113.206 124.758 111.836 124.758 110.466 124.758C110.497 122.236 110.497 119.714 110.497 117.161Z" fill="white"/>
<path d="M178.621 122.827C178.901 122.765 179.213 122.703 179.493 122.641C179.586 122.89 179.617 123.139 179.711 123.326C179.96 123.855 180.551 124.135 181.174 124.073C181.735 124.01 182.171 123.575 182.357 123.014C182.513 122.391 182.357 121.862 181.766 121.52C181.454 121.333 181.081 121.208 180.738 120.99C180.427 120.835 180.084 120.71 179.773 120.492C178.559 119.714 178.621 118.095 179.835 117.348C181.019 116.632 182.575 117.036 183.136 118.188C182.918 118.313 182.638 118.468 182.388 118.655C181.984 118.064 181.454 117.815 180.769 118.001C180.302 118.126 179.96 118.406 179.898 118.904C179.835 119.403 180.116 119.683 180.52 119.87C180.956 120.087 181.392 120.212 181.859 120.461C183.167 121.053 183.634 121.956 183.354 123.201C183.105 124.353 182.046 125.1 180.863 125.007C179.68 124.913 178.746 124.01 178.621 122.827Z" fill="white"/>
<path d="M82.537 118.593C80.9492 117.534 79.3924 117.659 78.2715 118.873C77.2752 120.025 77.2752 121.831 78.2404 123.014C79.1122 124.041 80.7623 124.602 82.537 123.294C82.537 123.637 82.537 124.01 82.537 124.29C82.537 124.384 82.4125 124.446 82.3191 124.508C80.8869 125.224 79.1433 125.006 77.8668 123.917C76.6837 122.92 76.2478 121.177 76.7459 119.651C77.2441 118.157 78.6763 117.067 80.2019 116.943C80.8869 116.88 81.5407 116.974 82.1634 117.223C82.4436 117.347 82.6305 117.472 82.5682 117.845C82.5059 118.095 82.537 118.344 82.537 118.593Z" fill="white"/>
<path d="M106.482 117.16C105.361 119.869 104.272 122.484 103.151 125.224C101.999 122.484 100.94 119.869 99.8193 117.16C100.131 117.16 100.442 117.129 100.722 117.16C100.847 117.191 100.971 117.347 101.002 117.472C101.656 119.091 102.31 120.71 102.995 122.36C103.026 122.453 103.089 122.547 103.151 122.765C103.306 122.329 103.462 121.955 103.649 121.581C104.209 120.243 104.708 118.904 105.237 117.596C105.361 117.285 105.486 117.129 105.86 117.16C106.046 117.16 106.233 117.16 106.482 117.16Z" fill="white"/>
<path d="M42.1243 124.758C42.1243 122.516 42.1243 120.306 42.1243 118.033C41.5016 118.033 40.91 118.033 40.3496 118.033C40.3496 117.722 40.3496 117.441 40.3496 117.192C41.8752 117.192 43.3697 117.192 44.8953 117.192C44.8953 117.473 44.8953 117.753 44.8953 118.033C44.3037 118.033 43.7122 118.033 43.1206 118.033C43.1206 120.275 43.1206 122.516 43.1206 124.789C42.7781 124.758 42.4668 124.758 42.1243 124.758Z" fill="white"/>
<path d="M89.0768 124.758C88.7343 124.758 88.423 124.758 88.1116 124.758C88.1116 122.516 88.1116 120.275 88.1116 118.002C87.4889 118.002 86.8973 118.002 86.3369 118.002C86.3369 117.722 86.3369 117.441 86.3369 117.161C87.8625 117.161 89.357 117.161 90.8826 117.161C90.8826 117.41 90.8826 117.69 90.8826 118.002C90.2911 118.002 89.7306 118.002 89.1391 118.002C89.0768 120.275 89.0768 122.485 89.0768 124.758Z" fill="white"/>
<path d="M24.0049 117.161C24.3162 117.161 24.6276 117.161 24.9389 117.161C24.9389 119.683 24.9389 122.205 24.9389 124.758C24.6587 124.758 24.3162 124.758 24.0049 124.758C24.0049 122.236 24.0049 119.714 24.0049 117.161Z" fill="white"/>
<path d="M94.9609 117.161C95.2723 117.161 95.5836 117.161 95.895 117.161C95.895 119.683 95.895 122.236 95.895 124.758C95.5836 124.758 95.2723 124.758 94.9609 124.758C94.9609 122.236 94.9609 119.714 94.9609 117.161Z" fill="white"/>
</svg>
