<svg width="96" height="42" viewBox="0 0 96 42" fill="none" xmlns="http://www.w3.org/2000/svg">
<path fill-rule="evenodd" clip-rule="evenodd" d="M25.8828 3.59578C27.8143 3.59578 33.1632 3.84837 29.7161 13.9964C26.0908 24.62 18.0674 22.4358 18.0674 22.4358L24.0106 3.59578H25.9125H25.8828ZM40.2357 14.665C44.6931 3.50663 36.3131 0.475586 30.7859 0.475586H12.5254C13.0578 0.808435 13.45 1.32468 13.6279 1.92688C13.8059 2.52908 13.7572 3.17558 13.4911 3.74436L2.86761 37.7545C2.34103 39.0844 1.31036 40.1525 0 40.7261H14.7689C14.1958 40.5321 13.7204 40.1231 13.4432 39.5853C13.166 39.0475 13.1086 38.423 13.2831 37.8436L17.1462 25.5412C17.1462 25.5412 34.9759 27.9482 40.2951 14.6502" fill="white"/>
<path fill-rule="evenodd" clip-rule="evenodd" d="M46.2251 35.5117C44.6684 36.4101 42.9532 37.0003 41.1733 37.2501C39.1675 37.4284 35.8244 36.6557 35.8393 32.6441C35.8393 29.197 39.5835 26.7008 41.5894 25.8242C42.5275 29.3131 44.1043 32.5977 46.2399 35.5117H46.2251ZM52.0049 13.8486C51.5443 17.0877 47.3394 20.3564 46.3291 20.8022C46.0351 18.355 46.5574 15.8793 47.8149 13.7595C48.8104 12.2737 50.1476 11.5159 51.2322 11.8873C51.5761 12.0659 51.8438 12.3628 51.9858 12.7233C52.1278 13.0838 52.1346 13.4835 52.0049 13.8486ZM52.0049 40.7269H61.9301C58.2798 39.3876 54.957 37.2855 52.1832 34.5608C54.3852 32.4707 55.7171 29.6265 55.9125 26.5968H50.8014C51.1055 26.7858 51.3574 27.048 51.5339 27.3595C51.7104 27.671 51.8059 28.0218 51.8117 28.3798C51.7815 29.7366 51.3297 31.0504 50.5191 32.1389C48.6258 29.6264 47.3623 26.6968 46.8343 23.5955C49.3776 22.5526 51.7749 21.1841 53.9661 19.5244C54.7166 18.9503 55.3383 18.2253 55.7913 17.3961C56.2443 16.5669 56.5184 15.652 56.596 14.7104V14.5767C56.5956 13.9808 56.4757 13.3912 56.2435 12.8425C56.0112 12.2938 55.6714 11.7972 55.2439 11.3822C54.4011 10.6212 53.3861 10.0762 52.2862 9.79408C51.1863 9.51198 50.0343 9.50119 48.9292 9.76264C47.2758 10.0992 45.7391 10.8624 44.4718 11.9765C41.5002 14.7847 41.0693 19.4055 41.0693 21.5302V22.6594L40.5939 22.8526C38.4097 23.6549 32.5408 25.215 30.4458 30.029C29.9875 31.1217 29.7404 32.2914 29.7178 33.4761C29.6947 34.9369 30.0862 36.3743 30.847 37.6215C32.3328 39.9245 34.8438 41.3806 38.8406 41.3063C43.2089 41.232 47.488 38.3347 48.2606 37.7255C49.4007 38.845 50.6558 39.841 52.0049 40.6971" fill="white"/>
<path fill-rule="evenodd" clip-rule="evenodd" d="M82.2651 3.62596C88.2083 2.14016 93.0372 6.83531 93.4978 7.14733L95.1768 1.78356C92.8292 1.08523 75.8613 -4.64998 63.9748 9.0343C56.5458 17.444 54.7925 34.6942 64.1383 39.3002C74.1377 44.2479 85.1773 38.5424 85.9796 38.1413L90.5708 23.5952C90.8038 22.7355 91.2542 21.9504 91.8788 21.3154C92.5034 20.6804 93.281 20.217 94.1367 19.9698H78.2089C78.5706 20.0561 78.9112 20.2144 79.2103 20.4354C79.5094 20.6564 79.7608 20.9355 79.9495 21.256C80.1382 21.5765 80.2602 21.9317 80.3083 22.3005C80.3565 22.6692 80.3297 23.0439 80.2296 23.4021L75.6681 37.9481C75.0738 38.067 62.2959 41.2466 69.4575 18.9149C70.9433 14.1158 75.2967 5.31978 82.3394 3.62596" fill="white"/>
</svg>
