<svg width="86" height="116" viewBox="0 0 86 116" fill="none" xmlns="http://www.w3.org/2000/svg">
<path d="M46.5523 5.98727C44.9831 4.16258 43.6445 2.15171 42.5665 0C41.4886 2.15171 40.1499 4.16258 38.5808 5.98727C28.5732 17.5995 15.0976 21.4817 0 7.86799V87.0311C0.155289 96.0206 6.98802 99.1091 13.3031 101.421L18.2379 102.819C25.64 103.768 32.8178 105.614 42.5665 115.88C52.3153 105.528 59.5103 103.802 66.8952 102.819L71.8299 101.421C78.1451 99.0573 84.9778 96.0206 85.1331 87.0311V7.86799C70.0355 21.4817 56.5598 17.5995 46.5523 5.98727Z" fill="#234796" fill-opacity="0.5"/>
<path d="M46.6043 11.0253C45.1315 9.33251 43.8792 7.45987 42.8774 5.45215C41.8755 7.45987 40.6232 9.33251 39.1504 11.0253C34.836 16.0207 28.7645 19.164 22.195 19.8033C15.6254 20.4426 9.06177 18.5288 3.86523 14.4589V84.2874C3.86523 92.4142 10.1976 95.1749 15.9433 97.3144L20.4639 98.574C27.2449 99.4367 33.8361 101.11 42.8083 110.428C51.7634 101.093 58.3373 99.4367 65.1528 98.574L69.6734 97.3144C75.4536 95.1749 81.7515 92.4314 81.855 84.3046V14.4589C76.6608 18.5185 70.1048 20.426 63.5434 19.7869C56.9821 19.1478 50.9175 16.0109 46.6043 11.0253Z" fill="white"/>
<path d="M52.4514 18.9796C52.4514 18.9796 40.3734 17.2542 34.6794 26.5198C33.0115 29.0879 31.9842 32.0188 31.684 35.0662C31.3838 38.1137 31.8193 41.1887 32.954 44.033C32.954 44.033 45.0321 46.069 51.4334 36.1822C56.7995 28.0209 52.4514 18.9796 52.4514 18.9796Z" fill="#234796"/>
<path d="M39.5449 26.0539L44.9283 28.8146L45.5494 28.1761L40.0971 25.4154L39.5449 26.0539ZM37.7332 28.3659L42.9095 31.0404L43.5479 30.2984L38.3716 27.6067L37.7332 28.3659ZM36.3184 30.7643L41.3739 33.3525L41.8225 32.6278L36.6462 30.0224L36.3184 30.7643ZM44.8938 21.4814L44.1001 22.0336L49.2764 24.6908L50.0011 24.1559L44.8938 21.4814ZM41.6327 24.0006L46.9988 26.744L47.7408 26.0711L42.4092 23.3449L41.6327 24.0006Z" fill="white"/>
<path d="M47.6011 23.3104C49.3848 21.7738 51.2448 20.3284 53.1743 18.9795L52.7084 18.6689C50.3531 19.6568 48.1737 21.0204 46.2553 22.7065L47.6011 23.3104ZM38.6289 31.3854C36.1826 35.4409 34.159 39.7367 32.5898 44.2054L33.1937 44.5332C35.0308 40.1559 37.2358 35.9423 39.7849 31.9376L38.6289 31.3854Z" fill="white"/>
<path d="M73.3847 23.0859L74.6788 26.7956H78.7853L75.5243 29.401L76.7666 33.3868L73.3847 30.8159L70.0201 33.2315L71.3142 29.3838L68.1394 26.7956H72.0907L73.3847 23.0859ZM73.3847 35.1985L74.6788 38.8909H78.7853L75.5243 41.4964L76.7666 45.4821L73.3847 42.9112L70.0201 45.3268L71.3142 41.4791L68.1394 38.8909H72.0907L73.3847 35.1985ZM60.3922 35.1985L61.7035 38.8909H65.7928L62.5317 41.4964L63.774 45.4821L60.3922 42.9112L57.0276 45.3268L58.3217 41.4791L55.1469 38.8909H59.0981L60.3922 35.1985ZM60.2887 23.0859L61.6 26.7956H65.7065L62.4282 29.401L63.6705 33.3868L60.2887 30.8159L56.9241 33.2315L58.2181 29.3838L55.0433 26.7956H58.9946L60.2887 23.0859ZM25.3141 23.0859L26.6254 26.7956H30.7147L27.4536 29.401L28.6959 33.3868L25.3141 30.8159L21.9322 33.2315L23.2435 29.3838L20.0687 26.7956H24.02L25.3141 23.0859ZM25.3141 35.1985L26.6254 38.8909H30.7147L27.4536 41.4964L28.6959 45.4821L25.3141 42.9112L21.9322 45.3268L23.2435 41.4791L20.0687 38.8909H24.02L25.3141 35.1985ZM12.3215 35.1985L13.6328 38.8909H17.7394L14.4611 41.4964L15.7034 45.4821L12.3215 42.9112L8.95691 45.3268L10.251 41.4791L7.07618 38.8909H11.0274L12.3215 35.1985ZM12.218 23.0859L13.5293 26.7956H17.6359L14.3575 29.401L15.5998 33.3868L12.218 30.8159L8.85338 33.2315L10.1475 29.3838L6.97266 26.7956H10.9239L12.218 23.0859Z" fill="#234796"/>
<path d="M7.66016 48.1914V81.7339C7.79819 89.2051 13.4404 91.7242 18.6339 93.6912L22.7232 94.899C28.8313 95.6927 34.8013 97.2283 42.8418 105.787C50.9169 97.1593 56.8524 95.6927 62.9604 94.899L67.0324 93.743C72.2088 91.776 77.8682 89.2568 78.0062 81.7857V48.1914H7.66016Z" fill="#234796"/>
<path d="M44.9612 52.6254H36.5065V57.9397H38.7323V88.6697C37.3693 88.5144 36.196 88.4282 36.196 88.4282V93.1731C37.8971 93.361 39.5814 93.6782 41.2342 94.1221C42.9252 94.6915 46.9972 96.624 46.9972 96.624V91.3097C46.322 90.8981 45.6186 90.5348 44.8922 90.2226V72.9683H48.1532L48.9297 75.1596H52.3806V65.3763H48.9297L48.1015 67.7229H44.9612V57.9397H49.0505L50.4481 61.0627H54.6581V52.6254H44.9612ZM32.5035 52.6254H24.463V57.9397H26.2919V70.915L19.7871 52.332H11.781V57.6291H13.5065V81.0088H10.832L11.3152 86.2714C13.0563 86.3403 14.7882 86.5596 16.4915 86.927C18.2169 87.3584 22.5305 89.2046 22.5305 89.2046L21.9784 83.3036C21.2754 82.8982 20.5429 82.5464 19.7871 82.2511V71.1911L26.5163 90.4469L32.5035 92.2932V57.9397H34.229V52.6254H32.5035ZM69.5659 74.6247V82.1821C67.8405 82.5444 66.115 82.9758 64.6484 83.3899V57.9397L66.4601 57.1115V52.6254H56.6251V57.1115L58.4368 57.9397V85.8745C57.3843 86.4267 56.4698 86.9616 55.7624 87.4102V93.4837C58.7619 91.7081 61.8485 90.0842 65.0108 88.618C68.0542 87.4315 71.238 86.6427 74.4834 86.2714V74.6247H69.5659Z" fill="white"/>
</svg>
