<svg width="141" height="48" viewBox="0 0 141 48" fill="none" xmlns="http://www.w3.org/2000/svg">
<path d="M60.0757 10.3143H65.5907L78.2906 26.9716V10.3143H84.1846V37.4122H79.1186L65.9696 20.1656V37.4122H60.0757V10.3143ZM97.5581 26.733L87.1736 10.3143H94.134L100.603 21.1759L107.171 10.3143H113.935L103.55 26.5927V37.4122H97.5581V26.733ZM116.475 25.6244V10.188H122.467V25.428C122.467 29.8203 124.684 32.1358 128.305 32.1358C131.925 32.1358 134.142 29.9186 134.142 25.6104V10.0758H140.135V25.428C140.135 33.6373 135.546 37.6508 128.248 37.6508C120.951 37.6508 116.475 33.5952 116.475 25.6244ZM47.7125 47.7125H0V0H47.7125V47.7125ZM22.2144 42.0993C22.2571 42.1918 22.3254 42.2701 22.4112 42.325C22.497 42.3798 22.5967 42.409 22.6985 42.409C22.8004 42.409 22.9001 42.3798 22.9859 42.325C23.0717 42.2701 23.14 42.1918 23.1827 42.0993L24.8666 28.8661H20.8111L22.2144 42.0993ZM26.2279 25.9191H19.3657V27.8978H26.27V25.9332L26.2279 25.9191ZM24.2492 24.9508C32.9918 25.2596 33.6794 17.3449 33.6794 14.3418C33.6794 14.1454 33.5812 14.1454 33.5391 14.3418C32.6232 16.279 30.9942 17.7873 28.9924 18.5518C27.7137 19.1272 26.603 20.0195 25.7656 21.1443C24.9282 22.269 24.3917 23.5889 24.2071 24.9789C24.2391 24.9887 24.2733 24.9887 24.3053 24.9789L24.2492 24.9508ZM23.337 24.4036C24.7403 17.7799 30.101 17.5975 30.5781 16.3345C31.3499 14.3559 29.9466 10.8756 29.6098 10.4968H29.5116C28.8557 11.9527 27.8992 13.2535 26.705 14.3138C25.4981 15.282 20.8111 18.7623 23.1827 24.3615C23.2809 24.4597 23.323 24.4597 23.323 24.3615L23.337 24.4036ZM22.4109 24.6C19.4639 18.3693 25.3157 14.3138 26.27 13.3735C26.3192 13.3223 26.3542 13.2591 26.3714 13.1902C26.3887 13.1212 26.3875 13.049 26.3682 12.9806C26.2599 11.026 25.7487 9.11497 24.8666 7.36738H24.7684C24.2492 9.47234 21.5408 12.3632 21.0496 12.9946C16.5591 18.3553 17.5694 21.639 22.2986 24.7263C22.2986 24.7263 22.3968 24.7263 22.3968 24.6281L22.4109 24.6ZM20.9935 24.8666C16.11 21.9618 16.6012 17.7659 18.6219 14.7207C18.6551 14.6253 18.6551 14.5215 18.6219 14.426C18.3586 13.3479 17.9527 12.3096 17.4151 11.3387C17.3168 11.1984 17.2747 11.2405 17.2747 11.3387C16.7771 13.2355 15.9609 15.0339 14.861 16.6573C13.3174 19.2113 13.3174 24.7684 20.9935 25.0771V24.9789" fill="white"/>
</svg>
