<svg width="148" height="43" viewBox="0 0 148 43" fill="none" xmlns="http://www.w3.org/2000/svg">
<path opacity="0.3" d="M84.68 42.8399C84.68 42.8399 78.1762 36.2369 77.502 29.2672C76.8279 22.2974 82.0626 17.1617 88.1401 13.2555C94.2077 9.33931 99.9085 3.57908 100.543 0C100.543 0 106.73 16.7354 98.4114 24.4488C90.3312 31.944 84.3429 37.3374 84.68 42.8399Z" fill="white"/>
<path d="M112.773 32.5094L113.279 35.5134C112.297 35.7117 111.425 35.8208 110.652 35.8208C109.393 35.8208 108.411 35.6225 107.717 35.2358C107.023 34.8492 106.537 34.3336 106.25 33.6991C105.962 33.0646 105.823 31.7262 105.823 29.6838V18.1138H103.275V15.4666H105.823V10.4896L109.274 8.44727V15.4666H112.763V18.1138H109.274V29.8623C109.274 30.8339 109.333 31.4585 109.452 31.7361C109.571 32.0137 109.769 32.2318 110.047 32.4003C110.324 32.5689 110.721 32.6482 111.237 32.6482C111.643 32.6383 112.149 32.5986 112.773 32.5094Z" fill="white"/>
<path d="M129.29 29.089L132.879 29.5252C132.314 31.5775 131.263 33.1737 129.736 34.3138C128.21 35.4441 126.247 36.0191 123.867 36.0191C120.873 36.0191 118.494 35.1169 116.739 33.3026C114.984 31.4982 114.102 28.9601 114.102 25.6883C114.102 22.3076 114.994 19.6902 116.769 17.8164C118.543 15.9425 120.843 15.0205 123.679 15.0205C126.415 15.0205 128.656 15.9326 130.401 17.7668C132.136 19.591 133.008 22.1688 133.008 25.4801C133.008 25.6784 132.998 25.9858 132.988 26.3923H117.7C117.829 28.6032 118.464 30.2886 119.614 31.4585C120.754 32.6284 122.192 33.2133 123.897 33.2133C125.166 33.2133 126.257 32.8862 127.159 32.2318C128.041 31.5676 128.755 30.5265 129.29 29.089ZM117.879 23.5766H129.33C129.171 21.8912 128.735 20.6221 128.021 19.7794C126.911 18.4707 125.483 17.8164 123.718 17.8164C122.122 17.8164 120.784 18.3418 119.693 19.3828C118.593 20.4337 117.998 21.8317 117.879 23.5766Z" fill="white"/>
<path d="M136.279 35.5533V15.4668H139.402V18.5105C140.195 17.0828 140.939 16.1509 141.613 15.6948C142.287 15.2388 143.031 15.0107 143.844 15.0107C145.014 15.0107 146.204 15.3776 147.413 16.1112L146.213 19.2739C145.361 18.7782 144.518 18.5403 143.665 18.5403C142.902 18.5403 142.228 18.7683 141.623 19.2144C141.018 19.6606 140.592 20.2852 140.334 21.0783C139.948 22.2879 139.759 23.6164 139.759 25.054V35.5731H136.279V35.5533Z" fill="white"/>
<path d="M97.541 33.0746C96.2522 34.1453 95.0129 34.9088 93.8132 35.345C92.6235 35.7911 91.3446 36.0092 89.9764 36.0092C87.7159 36.0092 85.9809 35.464 84.7714 34.3932C83.5618 33.3125 82.957 31.9344 82.957 30.249C82.957 29.2675 83.1851 28.3653 83.6411 27.5523C84.0972 26.7393 84.702 26.085 85.4356 25.5893C86.1792 25.0935 87.012 24.7267 87.944 24.4689C88.628 24.2905 89.6591 24.1219 91.0372 23.9534C93.8529 23.6262 95.9151 23.2297 97.2436 22.7736C97.2535 22.3076 97.2634 22.0102 97.2634 21.8813C97.2634 20.4933 96.9363 19.5118 96.2819 18.9467C95.3896 18.1733 94.071 17.7867 92.3162 17.7867C90.6803 17.7867 89.4708 18.0643 88.6875 18.6294C87.9043 19.1945 87.3293 20.1859 86.9525 21.6136L83.5519 21.1576C83.8592 19.7299 84.3748 18.5798 85.0787 17.6974C85.7925 16.8151 86.8137 16.1409 88.1522 15.665C89.4906 15.1891 91.0471 14.9512 92.8119 14.9512C94.5667 14.9512 95.9944 15.1495 97.085 15.5559C98.1855 15.9624 98.9885 16.4681 99.5041 17.0828C100.02 17.6974 100.377 18.4708 100.585 19.4027C100.704 19.9877 100.763 21.0287 100.763 22.5456V27.0962C100.763 30.2688 100.833 32.2715 100.981 33.1143C101.13 33.957 101.427 34.76 101.864 35.5334H98.2251C97.8781 34.8493 97.6501 34.0165 97.541 33.0746ZM97.2535 25.4505C95.9944 25.9561 94.0908 26.3824 91.5627 26.7393C90.135 26.9376 89.1138 27.1656 88.5289 27.4234C87.934 27.6812 87.478 28.048 87.1508 28.5338C86.8236 29.0196 86.665 29.5649 86.665 30.1499C86.665 31.062 87.012 31.8155 87.7159 32.4203C88.4198 33.025 89.4509 33.3324 90.7993 33.3324C92.1377 33.3324 93.3374 33.0449 94.3784 32.4698C95.4194 31.8948 96.1927 31.1116 96.6785 30.1102C97.0552 29.3369 97.2436 28.2067 97.2436 26.6997V25.4505H97.2535Z" fill="white"/>
<path d="M0 15.3672H7.31679V18.6389C8.40737 17.3005 9.51777 16.3487 10.6381 15.7737C11.7584 15.1986 13.1266 14.9111 14.7327 14.9111C16.904 14.9111 18.6092 15.5457 19.8386 16.8147C21.068 18.0837 21.6827 20.0368 21.6827 22.684V35.4537H13.7909V24.4091C13.7909 23.15 13.5529 22.2577 13.077 21.7322C12.6011 21.2067 11.927 20.949 11.0743 20.949C10.1225 20.949 9.34923 21.3059 8.75437 22.0098C8.15951 22.7137 7.86208 23.9828 7.86208 25.807V35.4537H0V15.3672Z" fill="white"/>
<path d="M46.399 27.3237H30.6451C30.7839 28.563 31.1309 29.4752 31.6663 30.0898C32.4297 30.9623 33.4112 31.3985 34.6406 31.3985C35.4139 31.3985 36.1476 31.2102 36.8416 30.8334C37.2679 30.5955 37.724 30.1692 38.2098 29.5644L45.9529 30.2683C44.7731 32.2809 43.3454 33.7284 41.6699 34.6108C39.9943 35.4833 37.5951 35.9294 34.4721 35.9294C31.7555 35.9294 29.6239 35.5527 28.0674 34.7992C26.5108 34.0457 25.222 32.856 24.2008 31.2201C23.1796 29.5842 22.6641 27.6707 22.6641 25.4598C22.6641 22.317 23.6852 19.7789 25.7474 17.8357C27.7997 15.8925 30.6352 14.9209 34.2539 14.9209C37.1886 14.9209 39.5085 15.3571 41.2039 16.2296C42.8992 17.1021 44.198 18.3612 45.0804 20.007C45.9727 21.6627 46.4089 23.8042 46.4089 26.4513V27.3237H46.399ZM38.408 23.6356C38.2494 22.1485 37.8429 21.0777 37.1787 20.4432C36.5144 19.7988 35.6419 19.4815 34.5613 19.4815C33.3121 19.4815 32.3107 19.9673 31.5671 20.9389C31.0913 21.5437 30.7839 22.4459 30.655 23.6455H38.408V23.6356Z" fill="white"/>
<path d="M44.9805 15.3672H52.5749L55.8565 28.008L60.0205 15.3672H67.1192L71.4518 28.0476L74.7632 15.3672H82.308L74.7533 35.4537H67.7636L63.6095 23.3681L59.5942 35.4537H52.5848L44.9805 15.3672Z" fill="white"/>
</svg>
