<?xml version="1.0" encoding="UTF-8"?>
<svg xmlns="http://www.w3.org/2000/svg" width="235" height="76" viewBox="0 0 235 76" fill="none">
  <path d="M34.2186 26.0902C34.2186 25.4755 34.2186 25.0388 34.2186 24.586C34.2186 17.4693 34.2186 10.3688 34.2186 3.25219C34.2186 1.53773 35.5934 0.0497015 37.2108 0.00117894C38.8606 -0.0473437 40.3648 1.40833 40.3648 3.1875C40.3809 14.5256 40.3648 25.8637 40.3648 37.218C40.3648 37.2827 40.3324 37.3474 40.2839 37.6224C39.9604 37.3312 39.6854 37.121 39.4428 36.8783C35.4154 32.9157 30.5794 30.9262 24.9346 30.9909C15.602 31.1042 7.40174 38.6899 6.39894 47.893C5.7358 54.0877 7.41792 59.4414 11.6879 63.9054C14.8904 67.2373 18.9178 69.1459 23.5436 69.5664C28.6223 70.0355 33.3452 68.9194 37.4534 65.7655C41.5778 62.5953 43.9878 58.39 44.6186 53.2143C44.7965 51.7101 44.8127 50.1735 44.8127 48.6532C44.8288 33.6435 44.8127 18.6177 44.8288 3.60802C44.8288 1.58625 46.0904 0.259966 47.999 0.292314C49.5032 0.308488 50.7809 1.45686 50.975 2.96106C50.9912 3.13897 50.9912 3.30072 50.9912 3.47863C50.9912 19.394 51.0559 35.3256 50.9427 51.241C50.8942 57.5813 48.5166 63.1129 44.2142 67.8034C40.3001 72.0734 35.4802 74.7098 29.803 75.5994C22.3791 76.7801 15.6182 75.098 9.6823 70.4075C4.1669 66.0566 0.948228 60.3309 0.171866 53.376C-0.653018 45.9035 1.49817 39.2721 6.47982 33.595C10.6366 28.8559 15.8447 26.0255 22.0556 24.958C25.7594 24.3272 29.3663 24.8771 32.957 25.799C33.2805 25.8961 33.6201 25.9608 34.2186 26.0902Z" fill="white"></path>
  <path d="M104.603 50.1733C104.635 58.0663 101.643 64.6492 95.7717 69.8896C87.0376 77.6856 73.6616 78.0252 64.3614 70.763C55.0612 63.5008 51.7455 50.7232 56.4684 39.9026C60.3178 31.0715 67.0787 25.8149 76.6214 24.5533C83.8837 23.599 90.3857 25.7826 95.9334 30.6348C101.012 35.0827 103.81 40.7275 104.603 47.3751C104.7 48.297 104.603 49.2351 104.603 50.1733ZM80.0989 69.7117C80.8591 69.6146 82.1854 69.5499 83.4631 69.2588C91.5502 67.4635 97.5185 60.6865 98.3434 52.3406C99.0712 45.1269 96.5966 39.1748 91.0003 34.6299C83.1396 28.2572 71.6721 29.632 65.1054 37.4603C58.4416 45.418 59.1695 58.0986 67.2728 65.0859C70.8149 68.1428 74.8908 69.647 80.0989 69.7117Z" fill="white"></path>
  <path d="M10.7021 50.4966C10.5565 42.6036 17.1071 35.6326 25.5015 35.5193C33.5401 35.3899 40.3979 42.3934 40.3818 50.5775C40.3656 58.7455 33.6048 65.571 25.5338 65.5387C17.188 65.4901 10.5404 58.5352 10.7021 50.4966ZM34.1709 50.3834C34.1547 45.515 30.3861 41.7302 25.55 41.7302C20.6331 41.7302 16.8645 45.4988 16.8645 50.4158C16.8645 55.3166 20.6816 59.1013 25.5662 59.0851C30.3861 59.069 34.187 55.2357 34.1709 50.3834Z" fill="white"></path>
  <path d="M186.293 44.8037C186.552 44.5935 187.054 44.2538 187.506 43.8656C190.143 41.6336 194.041 41.7145 196.127 44.1244C196.629 44.7067 196.968 45.4507 197.502 46.3241C198.1 45.7418 198.618 45.2243 199.152 44.7067C201.19 42.782 203.6 41.9571 206.398 42.3614C209.471 42.8143 211.768 45.8065 211.105 48.8635C210.215 53.0202 209.083 57.1285 208.015 61.2529C207.886 61.7381 207.562 62.191 207.223 62.5792C206.511 63.3717 205.46 63.5173 204.57 62.9997C203.664 62.4821 203.567 61.6411 203.794 60.7515C204.522 57.9372 205.314 55.1391 205.993 52.3086C206.252 51.2087 206.349 50.0604 206.317 48.9282C206.285 47.5695 205.427 46.7123 204.101 46.4212C201.756 45.8874 199.281 46.9711 198.262 49.3487C197.405 51.3381 196.887 53.4731 196.289 55.5596C195.771 57.3549 195.399 59.1988 194.801 60.9618C194.542 61.722 194.008 62.563 193.345 62.9674C192.828 63.2908 191.873 63.1615 191.226 62.9188C190.466 62.6439 190.337 61.8028 190.499 61.0426C190.871 59.3929 191.324 57.7593 191.728 56.1095C192.181 54.298 192.698 52.4865 193.038 50.6588C193.297 49.284 193.313 47.8121 191.938 46.9226C190.434 45.9521 188.8 46.0815 187.296 46.9064C185.889 47.6828 184.87 48.912 184.417 50.4647C183.463 53.7157 182.606 57.0153 181.7 60.2663C181.522 60.9294 181.263 61.5926 180.94 62.191C180.454 63.1129 179.274 63.5173 178.352 63.1938C177.462 62.8703 176.945 62.0131 177.203 60.9132C177.721 58.6489 178.336 56.4168 178.934 54.1686C179.743 51.0955 180.535 48.0062 181.425 44.9331C181.619 44.2376 182.023 43.4936 182.541 43.0084C183.188 42.3776 184.207 42.1835 184.951 42.7334C185.485 43.1378 185.76 43.9627 186.293 44.8037Z" fill="white"></path>
  <path d="M83.9318 2.57251C93.0541 2.78277 101.19 5.67796 108.403 11.2904C112.754 14.6708 116.021 18.8923 118.512 23.7445C119.127 24.9414 118.593 26.5427 117.348 27.222C116.135 27.8851 114.55 27.3514 113.822 25.9604C112.35 23.1461 110.538 20.6229 108.339 18.3262C103.567 13.3445 97.7931 10.2067 91.097 8.75105C85.5007 7.53799 79.9691 7.66738 74.5023 9.51124C72.8687 10.0612 71.51 9.30098 70.9925 7.69973C70.5558 6.3411 71.2836 5.01481 72.8201 4.44872C76.4108 3.15478 80.1147 2.57251 83.9318 2.57251Z" fill="white"></path>
  <path d="M140.109 63.5486C133.558 63.5648 129.401 58.2758 130.857 51.79C132.216 45.7408 137.86 41.6811 144.007 42.3442C148.406 42.8133 151.738 46.5495 151.932 50.9651C152.239 57.6774 146.481 63.5648 140.109 63.5486ZM147.549 51.2886C147.516 49.655 146.983 47.8435 145.106 46.8245C143.036 45.6923 140.853 45.757 138.879 47.0348C136.211 48.7654 134.949 51.2886 135.014 54.5072C135.095 57.9523 137.634 60.1682 141.063 59.683C144.67 59.1654 147.549 55.6071 147.549 51.2886Z" fill="white"></path>
  <path d="M83.9526 13.5869C90.1796 13.781 96.5037 16.191 102.051 20.7359C104.866 23.0326 106.985 25.847 108.521 29.1141C109.168 30.4728 108.796 31.8152 107.696 32.4946C106.467 33.2386 105.108 32.818 104.235 31.5079C103.119 29.842 102.035 28.1599 100.79 26.6071C98.477 23.7605 95.4686 21.7872 92.0882 20.4448C87.43 18.5847 82.6101 18.2774 77.7093 19.2641C77.1109 19.3773 76.4315 19.442 75.8816 19.2802C74.9273 19.0053 74.3127 18.2774 74.2319 17.2423C74.151 16.2071 74.6039 15.3984 75.542 14.9617C77.8711 13.8295 80.4266 13.6193 83.9526 13.5869Z" fill="white"></path>
  <path d="M224.378 63.5491C221.58 63.4844 219.105 62.5463 216.857 60.8965C215.935 60.2172 215.757 59.1497 216.356 58.244C216.938 57.3544 217.795 57.2088 218.879 57.8558C219.558 58.2601 220.189 58.7454 220.884 59.1335C222.486 60.0393 224.249 60.1687 226.028 60.007C227.128 59.9099 228.163 59.0365 228.341 58.1954C228.6 56.9986 228.308 56.3192 226.998 55.5914C225.672 54.8636 224.233 54.3298 222.89 53.6181C219.364 51.7743 218.491 48.8791 220.626 45.531C221.289 44.4959 222.437 43.5578 223.569 43.0564C227.273 41.439 230.832 42.3124 234.163 44.3018C235.102 44.8679 235.247 46.0324 234.616 46.9544C234.034 47.8278 233.047 48.0542 232.093 47.3749C230.702 46.3883 229.198 45.7413 227.484 45.6928C226.804 45.6766 226.109 45.7737 225.446 45.9516C224.475 46.2104 223.941 46.922 223.812 47.8925C223.683 48.8791 224.249 49.5584 225.057 49.979C226.319 50.6259 227.661 51.1435 228.874 51.8552C229.91 52.4536 230.993 53.1167 231.737 54.0225C233.468 56.109 232.724 59.8937 230.476 61.6405C228.68 63.0315 226.642 63.5976 224.378 63.5491Z" fill="white"></path>
  <path d="M122.038 42.6849C123.089 42.6849 124.157 42.6364 125.224 42.7011C126.858 42.782 127.699 44.3347 126.745 45.6448C126.454 46.0492 125.79 46.3403 125.273 46.3888C124.173 46.502 123.057 46.4859 121.957 46.405C121.068 46.3403 120.76 46.7123 120.566 47.5048C119.466 51.791 118.318 56.0772 117.153 60.3471C116.975 61.0103 116.701 61.6573 116.329 62.2234C115.682 63.2262 114.614 63.5173 113.627 63.0968C112.754 62.7086 112.398 61.9646 112.673 60.7353C113.077 58.9562 113.579 57.177 114.064 55.414C114.776 52.7776 115.487 50.1251 116.183 47.4887C116.264 47.1975 116.28 46.8902 116.345 46.5344C116.07 46.4859 115.876 46.4535 115.682 46.405C114.695 46.2109 114.064 45.4669 114.096 44.5288C114.113 43.6068 114.84 42.6526 115.779 42.7334C117.38 42.8952 117.639 42.0218 117.946 40.744C119.143 36.0211 122.96 33.6921 127.505 34.7596C128.831 35.0669 129.43 35.8756 129.203 37.0401C128.961 38.2208 128.152 38.6899 126.761 38.3826C123.85 37.768 122.022 39.7574 122.038 42.6849Z" fill="white"></path>
  <path d="M166.297 46.5669C167.155 45.6288 167.721 44.7554 168.497 44.1893C169.484 43.4777 170.6 42.8954 171.748 42.4749C172.799 42.1029 173.738 42.7013 174.077 43.6718C174.417 44.626 174.013 45.7906 173.139 46.292C172.816 46.4861 172.46 46.6802 172.104 46.7772C167.349 47.8771 164.923 51.1281 163.758 55.6083C163.305 57.3875 162.868 59.1666 162.302 60.9135C162.076 61.6089 161.623 62.2883 161.089 62.7897C160.41 63.4528 159.52 63.469 158.696 62.9514C157.952 62.4985 157.741 61.7869 157.935 60.9782C158.841 57.4845 159.747 54.0071 160.685 50.5296C161.219 48.524 161.736 46.5184 162.335 44.5128C162.771 43.0571 163.548 42.4587 164.729 42.4749C165.974 42.491 166.766 43.4453 166.572 44.6907C166.508 45.2245 166.427 45.7582 166.297 46.5669Z" fill="white"></path>
  <path d="M94.0645 50.2055C94.1292 58.2602 87.611 65.2798 79.3945 65.296C71.5015 65.3122 65.0156 58.3735 65.0156 50.1246C65.0318 41.7949 71.5985 35.0503 79.6856 35.0664C87.5301 35.0826 94.0807 41.9728 94.0645 50.2055ZM79.5724 41.3905C75.1083 41.1318 71.2589 45.143 71.1942 50.0114C71.1295 54.8313 74.9628 58.9719 79.4268 58.9881C83.988 59.0042 87.8698 54.9284 87.9021 50.0923C87.9345 45.337 84.1821 41.4067 79.5724 41.3905Z" fill="white"></path>
</svg>
