<?xml version="1.0" encoding="UTF-8"?>
<svg xmlns="http://www.w3.org/2000/svg" width="246" height="59" viewBox="0 0 246 59" fill="none">
  <g clip-path="url(#clip0_9487_74933)">
    <path d="M0 0V45.3017H5.18431V24.9266H26.5283V19.7576H5.18431V5.16899H26.8338V0H0Z" fill="white"></path>
    <path d="M35.6779 12.4653H31.1036V45.6464H35.6779V12.4653Z" fill="white"></path>
    <path d="M35.6779 0H31.1036V5.169H35.6779V0Z" fill="white"></path>
    <path d="M55.7632 46.286C57.9794 46.3241 60.1781 45.8882 62.2117 45.0076C64.2453 44.1271 66.0667 42.8222 67.5537 41.1807L65.3429 37.8475C64.196 39.163 62.7817 40.2194 61.1942 40.9466C59.6066 41.6737 57.8822 42.0549 56.1357 42.0647C49.7534 42.0647 45.8822 36.8956 45.5119 30.7037H69.46V29.4112C69.46 19.5476 64.1805 11.7925 55.215 11.7925C46.7402 11.7925 40.5985 19.4807 40.5985 29.0037C40.5985 39.2759 46.9243 46.2828 55.7695 46.2828M64.9704 26.752H45.4972C45.743 21.7878 48.8745 15.8675 55.2003 15.8675C61.9551 15.8675 64.9024 21.9278 64.9642 26.752" fill="white"></path>
    <path d="M78.6045 0H74.0302V45.2996H78.6045V0Z" fill="white"></path>
    <path d="M110.622 45.3017V0H106.048V17.4557C105.009 15.7387 103.554 14.3101 101.817 13.3014C100.08 12.2926 98.1172 11.736 96.1087 11.6828C88.4238 11.6828 82.9978 18.4065 82.9978 28.9337C82.9978 39.5914 88.4238 46.1167 96.1087 46.1167C98.1091 46.0634 100.065 45.5142 101.8 44.5185C103.535 43.5228 104.995 42.1119 106.048 40.4127V45.3027L110.622 45.3017ZM97.2052 41.6655C91.1881 41.6655 87.6255 36.2917 87.6255 29.012C87.6255 21.7324 91.1828 16.2907 97.2052 16.2907C99.0055 16.3684 100.758 16.8947 102.302 17.8216C103.847 18.7485 105.134 20.0466 106.048 21.5976V36.4265C105.131 37.9687 103.84 39.2563 102.295 40.1714C100.75 41.0865 99.0003 41.5999 97.2052 41.6645" fill="white"></path>
    <path d="M143.861 45.3006V36.788H123.734V26.4511H143.555V17.9384H123.734V8.51261H143.861V0H114.891V45.2996L143.861 45.3006Z" fill="white"></path>
    <path d="M178.319 45.3017V0H170.39V16.7086C169.392 15.17 168.026 13.9044 166.414 13.0268C164.803 12.1491 162.997 11.6872 161.162 11.6828C153.543 11.6828 147.906 18.2017 147.906 28.8657C147.906 39.8683 153.666 46.1156 161.162 46.1156C162.994 46.0956 164.794 45.6269 166.403 44.7507C168.012 43.8744 169.381 42.6174 170.39 41.0898V45.3006L178.319 45.3017ZM163.697 38.5361C159.214 38.5361 156.144 34.6586 156.144 28.9452C156.144 23.3028 159.214 19.4211 163.697 19.4211C165.033 19.4541 166.342 19.812 167.509 20.4638C168.675 21.1156 169.665 22.0417 170.393 23.1618V34.7944C169.666 35.9149 168.676 36.8413 167.509 37.4933C166.342 38.1454 165.034 38.5033 163.697 38.5361Z" fill="white"></path>
    <path d="M196.163 59C203.591 59 212.457 55.9396 212.457 43.491V12.8092H204.53V17.0274C203.506 15.4814 202.115 14.2125 200.481 13.334C198.847 12.4556 197.021 11.995 195.165 11.9932C187.547 11.9932 181.868 17.9803 181.868 28.729C181.868 39.6813 187.673 45.3958 195.165 45.3958C197.024 45.3721 198.849 44.8947 200.482 44.0053C202.114 43.1158 203.504 41.8412 204.53 40.2926V43.491C204.53 50.1562 199.972 51.9262 196.16 51.9262C194.387 52.0138 192.617 51.6979 190.984 51.0025C189.351 50.3071 187.898 49.2502 186.734 47.9118L183.176 54.1017C186.984 57.7075 191.042 59 196.162 59M198.139 37.8601C193.657 37.8601 190.585 34.459 190.585 28.8125C190.585 23.166 193.657 19.7649 198.139 19.7649C199.465 19.814 200.761 20.1717 201.923 20.8096C203.086 21.4474 204.083 22.3477 204.835 23.4387V34.1184C204.087 35.2183 203.092 36.1291 201.93 36.7785C200.767 37.4279 199.47 37.7983 198.139 37.8601Z" fill="white"></path>
    <path d="M231.632 46.6913C236.235 46.6913 240.904 45.124 243.851 42.1346L240.349 36.4223C238.222 38.4332 235.418 39.5741 232.489 39.6196C230.396 39.7175 228.344 39.0103 226.756 37.6436C225.169 36.2769 224.166 34.3546 223.954 32.2721H245.999V30.2262C245.999 19.5475 240.044 12.2 231.142 12.2C222.176 12.2 215.791 19.8861 215.791 29.4112C215.791 39.9561 222.607 46.6903 231.634 46.6903M238.539 26.1867H223.917C224.225 22.9235 226.312 19.186 231.164 19.186C236.323 19.186 238.288 23.0635 238.533 26.1867" fill="white"></path>
  </g>
  <defs>
    <clipPath id="clip0_9487_74933">
      <rect width="246" height="59" fill="white"></rect>
    </clipPath>
  </defs>
</svg>
