<?xml version="1.0" encoding="UTF-8"?>
<svg xmlns="http://www.w3.org/2000/svg" width="129" height="129" viewBox="0 0 129 129" fill="none">
  <path d="M61.5803 0.0719034C73.2049 -0.477922 84.7612 2.1336 95.0199 7.62866C105.278 13.1237 113.856 21.2968 119.839 31.2784C125.823 41.2601 128.988 52.677 129 64.3147C129.011 75.9523 125.868 87.3754 119.904 97.3689C114.045 107.24 105.647 115.359 95.5838 120.883C85.5211 126.406 74.1618 129.131 62.6884 128.774L75.6613 92.8554C75.6996 92.7707 75.7448 92.6894 75.7964 92.6121H93.391C94.7468 92.626 96.0878 92.3287 97.3107 91.743C98.5336 91.1573 99.6059 90.2989 100.445 89.2338C101 88.5683 101.43 87.8085 101.715 86.9905L115.877 48.0988C116.358 46.8564 116.614 45.5387 116.634 44.2069C116.683 42.5445 116.178 40.9129 115.2 39.5679C114.222 38.2229 112.825 37.2404 111.229 36.7745C110.048 36.4099 108.816 36.2366 107.58 36.261H82.5802L49.5533 126.99C35.6792 123.707 23.2874 115.911 14.3219 104.826C5.3564 93.7405 0.324345 79.9925 0.0151499 65.7386C-0.294045 51.4847 4.13711 37.5314 12.6135 26.0675C21.0899 14.6037 33.1319 6.2779 46.8506 2.39622V2.7746L14.3372 92.3148H27.8506L45.31 44.8015H55.5803L38.202 92.504C38.6614 92.6392 50.6073 92.6932 51.7154 92.504L51.9316 91.9905L67.9046 48.1258C68.2916 47.118 68.546 46.0641 68.6613 44.9907C68.923 43.0448 68.4264 41.0728 67.2743 39.483C66.1222 37.8932 64.4028 36.8073 62.4721 36.4502C61.4775 36.2375 60.4621 36.1377 59.4451 36.1529H48.5262C48.5803 35.6664 60.337 3.09892 61.5803 0.0719034Z" fill="white"></path>
  <path d="M93.2029 44.7998H103.473L89.1218 84.07H78.8516L93.2029 44.7998Z" fill="white"></path>
</svg>
