<?xml version="1.0" encoding="UTF-8"?>
<svg xmlns="http://www.w3.org/2000/svg" width="208" height="83" viewBox="0 0 208 83" fill="none">
  <g clip-path="url(#clip0_9487_74967)">
    <path d="M178.744 35.8809H178.916V38.1486C178.916 38.7514 178.916 38.737 179.491 38.737H195.766C196.326 38.737 196.326 38.737 196.326 38.1916V34.4457V33.5989C196.326 33.3118 196.326 33.2401 195.953 33.2113H164.094C163.533 33.2113 163.519 33.2113 163.332 33.728L161.995 37.431C161.995 37.5888 161.851 37.7467 161.736 38.0338C161.621 37.7611 161.535 37.6032 161.478 37.4453C161.046 36.2828 160.629 35.1059 160.198 33.9433C159.911 33.1683 160.069 33.2401 159.192 33.2401H127.362C127.003 33.2401 126.974 33.2401 126.974 33.6563V38.3352C126.974 38.7227 126.974 38.737 127.42 38.7514H143.953C144.355 38.7514 144.384 38.7514 144.384 38.3208V36.2254C144.375 36.1107 144.375 35.9955 144.384 35.8809C144.518 35.9945 144.618 36.1437 144.671 36.3115L145.304 38.0912C145.577 38.8375 145.448 38.7514 146.238 38.7514H177.105C177.594 38.7514 177.594 38.7514 177.752 38.3065L178.514 36.2971C178.614 36.1249 178.686 35.9814 178.744 35.8809ZM110.47 16.5626C110.478 16.4718 110.478 16.3806 110.47 16.2899C110.297 15.5866 110.153 14.8546 109.952 14.1657C109.723 13.2806 109.385 12.4272 108.946 11.6253C108.858 11.4402 108.717 11.286 108.54 11.1834C108.362 11.0809 108.158 11.0347 107.954 11.0512H46.5226C46.4843 11.046 46.4452 11.05 46.4086 11.0628C46.3721 11.0756 46.3391 11.0969 46.3124 11.1249C46.2858 11.153 46.2661 11.1869 46.2552 11.224C46.2443 11.2611 46.2423 11.3003 46.2495 11.3383V15.9885C46.2495 16.6343 46.2495 16.6343 46.9108 16.6343H109.88L110.47 16.5626ZM110.47 66.4228H46.7095C46.2782 66.4228 46.2495 66.4228 46.2495 66.8821V71.317C46.2495 71.9629 46.2495 71.9629 46.8677 71.9629H107.997C108.186 71.9781 108.375 71.9355 108.54 71.8406C108.704 71.7458 108.836 71.6032 108.917 71.4318C109.399 70.5593 109.766 69.6282 110.009 68.6618C110.196 67.9298 110.34 67.2122 110.527 66.4372L110.47 66.4228ZM103.583 5.52555V5.39638L103.281 5.13803C101.399 3.59097 99.2899 2.34206 97.0275 1.43511C94.7483 0.492352 92.3062 0.0047452 89.8392 -0.000130826H46.7095C46.2207 -0.000130826 46.2063 -0.000130813 46.2063 0.516556V4.82228C46.2063 5.5112 46.2064 5.5112 46.882 5.5112H103.583V5.52555ZM103.583 77.589L103.511 77.5029H46.7814C46.2782 77.5029 46.2495 77.5029 46.2495 78.0483V82.354C46.2495 83.1721 46.2495 83.1147 47.0114 83.1147H87.6971C88.876 83.1147 90.0548 83.1147 91.2337 83.0286C92.128 82.9754 93.017 82.8554 93.8934 82.6698C97.0809 81.9256 100.065 80.4898 102.634 78.4645C102.951 78.1057 103.253 77.8474 103.511 77.589H103.583ZM107.364 49.7884L107.436 49.6736C107.264 49.3722 107.12 49.0564 106.933 48.7694C105.871 47.2359 104.604 45.8548 103.166 44.6646C102.862 44.3832 102.459 44.2336 102.045 44.2484H58.2827C58.0239 44.2484 57.9232 44.3632 57.9232 44.6072V49.3865C57.9232 49.7166 57.9232 49.7453 58.3114 49.7597H107.335L107.364 49.7884ZM57.952 38.7514H102.232C102.363 38.7652 102.496 38.7492 102.621 38.7045C102.745 38.6597 102.858 38.5874 102.951 38.493C103.871 37.6032 104.82 36.742 105.697 35.8091C106.219 35.171 106.699 34.4999 107.134 33.7998C107.239 33.6204 107.331 33.4333 107.407 33.2401H58.5271C57.9664 33.2401 57.9664 33.2401 57.952 33.7854V38.2203C57.9232 38.3352 57.9376 38.4787 57.952 38.7514ZM20.1273 -0.000130826H0.258875C0.223775 -0.00486989 0.188052 -0.00145265 0.154492 0.00985455C0.120932 0.0211617 0.0904406 0.0400534 0.0653949 0.0650571C0.0403492 0.0900607 0.0214257 0.120501 0.0100995 0.154005C-0.00122672 0.187509 -0.00464971 0.223171 9.73293e-05 0.258213V4.90839C9.73293e-05 5.61166 9.73097e-05 5.61166 0.718925 5.61166H39.6794C39.827 5.63479 39.9774 5.63479 40.1251 5.61166C40.2352 5.56514 40.3229 5.47762 40.3695 5.36767C40.3923 5.23468 40.3923 5.09879 40.3695 4.9658V0.774899C40.3695 0.0859837 40.3695 0.0859836 39.6938 0.0859836L20.1273 -0.000130826ZM40.2545 11.0943H0.273252C0.234872 11.0891 0.195799 11.093 0.159254 11.1058C0.122709 11.1187 0.0897383 11.14 0.0630602 11.168C0.036382 11.196 0.0167606 11.23 0.00581348 11.2671C-0.00513362 11.3042 -0.00709284 11.3433 9.73293e-05 11.3813V15.8019C9.73293e-05 16.6343 -0.100539 16.6056 0.819561 16.6056H39.8663C40.3695 16.6056 40.3838 16.6056 40.3838 16.0602V11.6253C40.3838 11.4818 40.3695 11.3239 40.3551 11.0943H40.2545ZM20.4723 71.9198H40.0963C40.6857 71.9198 40.6857 71.9198 40.6857 71.3457V67.2122C40.6857 66.3654 40.8008 66.3798 39.8375 66.3798H0.833938C0.316381 66.3798 0.302005 66.3798 0.302005 66.9108V71.2165C0.302005 72.0346 0.302005 71.9772 1.04959 71.9772L20.4723 71.9198ZM20.4723 82.9855H40.2545C40.6282 82.9855 40.657 82.9855 40.6714 82.598V82.2966V78.2636C40.6714 77.4455 40.7864 77.4598 39.8519 77.4598H0.862691C0.316382 77.4598 0.302005 77.4598 0.302005 78.0196V82.3253C0.302005 82.9712 0.302005 82.9712 0.963327 82.9712L20.4723 82.9855ZM153.829 16.5913C153.829 16.376 153.757 16.2612 153.714 16.1463L152.162 11.5823C151.989 11.0656 151.989 11.0656 151.428 11.0656H115.602C115.372 11.0656 115.271 11.1804 115.286 11.41C115.3 11.6397 115.286 11.611 115.286 11.7114V16.0172C115.286 16.663 115.286 16.663 115.947 16.663H153.829V16.5913ZM169.241 16.5913H207.324C207.362 16.5936 207.4 16.5877 207.435 16.5738C207.47 16.56 207.502 16.5387 207.528 16.5113C207.554 16.484 207.574 16.4513 207.586 16.4155C207.598 16.3797 207.602 16.3417 207.598 16.3042V15.9023V11.8119C207.598 11.0656 207.598 11.0656 206.864 11.0656H171.656C171.11 11.0656 171.11 11.0656 170.937 11.5536L169.413 16.0889C169.37 16.2181 169.327 16.3616 169.255 16.5913H169.241ZM149.991 5.5399C149.969 5.41408 149.94 5.28952 149.904 5.16674L148.237 0.545261C148.079 -0.0718929 148.079 -0.000130826 147.46 -0.000130826H115.602C115.358 -0.000130826 115.271 0.114688 115.286 0.344327C115.3 0.573966 115.286 0.473499 115.286 0.545261V4.98016C115.286 5.52555 115.286 5.5399 115.846 5.5399H150.019H149.991ZM173.223 5.5399H207.023C207.655 5.5399 207.669 5.5399 207.669 4.90839V0.60267C207.669 0.0429264 207.669 0.028574 207.123 0.028574H175.739C175.25 0.028574 175.25 0.028574 175.078 0.516556L173.64 4.49217C173.496 4.79358 173.396 5.10933 173.252 5.5399H173.223ZM165.33 27.6713H196.068C196.105 27.6756 196.143 27.6716 196.179 27.6596C196.215 27.6476 196.248 27.6279 196.275 27.6019C196.302 27.5759 196.324 27.5443 196.338 27.5091C196.352 27.474 196.357 27.4363 196.355 27.3986V27.0542V22.7484V22.404C196.357 22.3708 196.352 22.3375 196.341 22.3062C196.329 22.2749 196.312 22.2463 196.289 22.2221C196.266 22.1979 196.238 22.1786 196.208 22.1655C196.177 22.1523 196.144 22.1456 196.111 22.1456H167.803C167.286 22.1456 167.271 22.1456 167.084 22.6336L165.431 27.1259C165.33 27.2695 165.33 27.3986 165.33 27.6713ZM157.883 27.6713C157.883 27.4417 157.797 27.3412 157.768 27.2264L156.115 22.691C155.914 22.1456 155.914 22.1456 155.339 22.1456H127.333C127.089 22.1456 126.945 22.2318 126.959 22.4901C126.974 22.7484 126.959 22.691 126.959 22.7915V27.0972C126.959 27.7431 126.959 27.7431 127.621 27.7431H157.812L157.883 27.6713ZM193.451 71.9342H207.727C207.928 71.9342 208.043 71.848 208.043 71.6471V71.3457V67.04C208.043 66.4372 208.043 66.4372 207.425 66.4372H179.535C178.916 66.4372 178.916 66.4372 178.916 67.04V71.3457C178.916 71.9916 178.916 71.9916 179.578 71.9916L193.451 71.9342ZM193.451 82.9999H207.425C208 82.9999 208 82.9999 208 82.4114V78.2779C208 77.4598 208.13 77.4598 207.195 77.4598H179.391C178.945 77.4598 178.916 77.4598 178.916 77.9478V82.4832C178.916 82.9855 178.916 82.9855 179.42 82.9855H193.451V82.9999ZM129.993 71.9198H143.766C144.369 71.9198 144.369 71.9198 144.369 71.317V67.0113C144.369 66.3224 144.369 66.3224 143.694 66.3224H115.933C115.896 66.3223 115.859 66.3298 115.825 66.3444C115.791 66.359 115.76 66.3804 115.734 66.4072C115.709 66.4341 115.689 66.4659 115.676 66.5006C115.663 66.5354 115.658 66.5724 115.659 66.6094V71.2022C115.659 71.848 115.659 71.8624 116.321 71.8624L129.993 71.9198ZM129.993 82.9855H144.024C144.269 82.9855 144.398 82.8994 144.384 82.6411C144.369 82.3827 144.384 82.4114 144.384 82.2966V78.2636C144.384 77.4598 144.499 77.4598 143.579 77.4598H116.148C115.703 77.4598 115.645 77.4598 115.645 77.9478V82.5262C115.645 82.9712 115.645 82.9855 116.148 82.9999H129.979L129.993 82.9855ZM147.777 44.234C147.777 44.4493 147.863 44.5641 147.906 44.6933L149.516 49.1856C149.775 49.8745 149.674 49.7884 150.408 49.7884H173.41C173.698 49.7884 173.827 49.6736 173.913 49.4296L175.61 44.6359C175.621 44.5213 175.621 44.4059 175.61 44.2914L147.777 44.234ZM101.772 60.7967H110.254C111.102 60.7967 111.131 60.7967 111.03 59.9355C110.882 58.6017 110.608 57.285 110.211 56.003C109.966 55.2423 110.096 55.271 109.233 55.271H92.9733C92.5276 55.271 92.4988 55.271 92.4988 55.7733V60.3087C92.4988 60.811 92.4989 60.811 93.002 60.811H101.729L101.772 60.7967ZM111.073 22.0452H92.7576C92.7238 22.0408 92.6895 22.044 92.6571 22.0546C92.6248 22.0651 92.5951 22.0826 92.5704 22.106C92.5456 22.1293 92.5264 22.1579 92.514 22.1896C92.5016 22.2212 92.4964 22.2553 92.4988 22.2892V27.2695C92.4946 27.3069 92.4986 27.3449 92.5106 27.3807C92.5226 27.4165 92.5423 27.4492 92.5684 27.4766C92.5944 27.504 92.6261 27.5253 92.6613 27.5391C92.6965 27.5529 92.7343 27.5588 92.772 27.5565H109.406C109.952 27.5565 109.966 27.5565 110.096 27.0542C110.369 25.9634 110.642 24.8726 110.872 23.7675C110.952 23.2298 111.005 22.6885 111.03 22.1456L111.073 22.0452ZM151.788 55.3141C151.788 55.5007 151.888 55.6585 151.946 55.8164L153.57 60.3087C153.729 60.7536 153.729 60.7536 154.217 60.7536H169.284C169.773 60.7536 169.787 60.7536 169.96 60.28L171.656 55.6585C171.666 55.5391 171.666 55.4191 171.656 55.2997C171.081 55.271 152.19 55.2997 151.745 55.4145L151.788 55.3141ZM135.672 49.7884H143.852C144.341 49.7884 144.355 49.7884 144.355 49.2861V44.9803C144.355 44.2484 144.441 44.2484 143.636 44.2484H127.42C126.988 44.2484 126.974 44.2484 126.959 44.7076V49.4009C126.959 49.731 126.959 49.7597 127.333 49.7884H135.672ZM179.017 44.2627C179.017 44.3919 178.931 44.4206 178.931 44.4493V49.487C178.931 49.731 179.06 49.8027 179.276 49.8027H195.751C196.341 49.8027 196.341 49.8027 196.341 49.2286V44.7937C196.341 44.3058 196.341 44.2914 195.838 44.2771H179.031L179.017 44.2627ZM135.672 60.8541H144.111C144.144 60.8584 144.179 60.8552 144.211 60.8447C144.244 60.8342 144.273 60.8166 144.298 60.7933C144.323 60.7699 144.342 60.7414 144.354 60.7097C144.367 60.678 144.372 60.644 144.369 60.6101V60.3087V55.8738V55.6298C144.369 55.5581 144.254 55.3284 144.053 55.3284H127.535C126.988 55.3284 126.974 55.3284 126.974 55.8882V60.5958C126.974 60.7249 127.089 60.9546 127.333 60.9402H135.672V60.8541ZM187.629 60.8541H196.068C196.101 60.8561 196.134 60.8512 196.166 60.8398C196.197 60.8284 196.226 60.8108 196.25 60.7879C196.274 60.7651 196.293 60.7375 196.306 60.7069C196.32 60.6763 196.326 60.6434 196.326 60.6101V60.2082V56.0747C196.326 55.3284 196.326 55.3284 195.55 55.3284H179.319C178.959 55.3284 178.916 55.3284 178.916 55.7446V60.4809C178.916 60.8254 178.916 60.8541 179.29 60.8685H187.629V60.8541ZM20.3142 27.6713H28.4513C28.9976 27.6713 29.0264 27.6713 29.0264 27.1116V22.6767C29.0264 22.16 29.0264 22.1456 28.4944 22.1456H12.2058C11.6739 22.1456 11.6739 22.1456 11.6739 22.6767V27.413C11.6719 27.4462 11.6768 27.4795 11.6882 27.5108C11.6996 27.542 11.7173 27.5707 11.7402 27.5949C11.763 27.6191 11.7907 27.6383 11.8213 27.6515C11.8519 27.6646 11.8849 27.6714 11.9183 27.6713H20.2998H20.3142ZM57.9232 22.1743V27.0829C57.9232 27.7287 57.9232 27.7287 58.5846 27.7287H74.9595C75.001 27.731 75.0425 27.7243 75.0811 27.709C75.1197 27.6938 75.1546 27.6703 75.1833 27.6403C75.212 27.6103 75.2338 27.5744 75.2473 27.5352C75.2608 27.4959 75.2656 27.4543 75.2614 27.413V27.1116V22.8059V22.4614C75.2637 22.4237 75.2578 22.386 75.2439 22.3509C75.2301 22.3158 75.2087 22.2841 75.1813 22.2581C75.1539 22.2321 75.1211 22.2124 75.0853 22.2004C75.0494 22.1884 75.0114 22.1844 74.9738 22.1887H58.4983L57.9232 22.1743ZM11.6882 38.7514H28.4801C29.012 38.7514 29.0264 38.7514 29.0264 38.1773V33.7854C29.0264 33.2401 29.0264 33.2257 28.4657 33.2257H11.9326C11.8994 33.2237 11.866 33.2286 11.8347 33.24C11.8034 33.2514 11.7747 33.269 11.7505 33.2919C11.7262 33.3147 11.7069 33.3423 11.6937 33.3729C11.6806 33.4035 11.6738 33.4364 11.6739 33.4697V38.1199C11.6739 38.2921 11.6882 38.4643 11.6882 38.7514ZM11.6882 60.8828H28.4801C28.9976 60.8828 29.0264 60.8828 29.0264 60.3518V55.9169C29.0264 55.3858 29.0264 55.3428 28.4657 55.3428H12.2345C11.6882 55.3428 11.6739 55.3428 11.6739 55.9025V60.3374C11.6739 60.4666 11.6882 60.6101 11.7026 60.8254L11.6882 60.8828ZM66.5636 60.8828H74.7582C75.1607 60.8828 75.2182 60.8828 75.2182 60.4666V55.7733C75.2182 55.4002 75.2182 55.3571 74.7726 55.3428H58.5558C57.9376 55.3428 57.9232 55.3428 57.9232 55.9456V60.5814C57.9182 60.6235 57.923 60.6661 57.9374 60.706C57.9517 60.7459 57.9752 60.7818 58.0059 60.8111C58.0365 60.8404 58.0736 60.8621 58.1142 60.8745C58.1548 60.887 58.1977 60.8898 58.2395 60.8828H66.5779H66.5636ZM20.3142 49.7884H28.5088C28.9976 49.7884 29.0264 49.7884 29.0264 49.2861V44.7937C29.0264 44.2914 29.0264 44.2627 28.4801 44.2627H12.2058C11.6882 44.2627 11.6739 44.2627 11.6739 44.7937V49.4726C11.6688 49.5147 11.6736 49.5574 11.688 49.5972C11.7023 49.6371 11.7258 49.6731 11.7565 49.7023C11.7872 49.7316 11.8243 49.7533 11.8648 49.7657C11.9054 49.7782 11.9483 49.781 11.9901 49.774H20.3285L20.3142 49.7884ZM155.741 66.3798C155.735 66.4849 155.735 66.5904 155.741 66.6955C156.345 68.3317 156.949 69.9535 157.553 71.5897C157.668 71.8911 157.869 71.9198 158.142 71.9198H165.33C165.805 71.9198 165.819 71.9198 165.977 71.4605L167.559 66.8965C167.559 66.7529 167.631 66.6094 167.688 66.3654L155.741 66.3798ZM159.767 77.5029C159.792 77.6578 159.825 77.8111 159.867 77.9622L161.535 82.598C161.561 82.6778 161.594 82.7548 161.636 82.8276C161.65 82.8616 161.674 82.8907 161.705 82.9111C161.735 82.9316 161.771 82.9425 161.808 82.9425C161.845 82.9425 161.881 82.9316 161.912 82.9111C161.943 82.8907 161.967 82.8616 161.981 82.8276C162.023 82.7555 162.057 82.6783 162.081 82.598L163.763 77.9765C163.815 77.8212 163.859 77.6631 163.893 77.5029H159.767Z" fill="white"></path>
    <path d="M178.744 35.881C178.744 36.0245 178.6 36.168 178.543 36.3259L177.781 38.3353C177.608 38.7658 177.608 38.7658 177.134 38.7802H146.282C145.491 38.7802 145.606 38.8806 145.347 38.12L144.715 36.3403C144.661 36.1726 144.562 36.0233 144.427 35.9097C144.418 36.0243 144.418 36.1395 144.427 36.2542V38.3496C144.427 38.7371 144.427 38.7658 143.996 38.7802H127.405C127.003 38.7802 126.974 38.7802 126.959 38.364V33.6851C126.959 33.3119 126.959 33.2832 127.348 33.2689H159.163C160.04 33.2689 159.882 33.2689 160.169 33.9721C160.601 35.1347 161.018 36.3116 161.449 37.4741C161.449 37.632 161.593 37.7899 161.708 38.0626C161.837 37.7899 161.909 37.632 161.966 37.4598L163.303 33.7568C163.49 33.2402 163.49 33.2402 164.065 33.2402H195.953C196.283 33.2402 196.312 33.2402 196.326 33.6277C196.341 34.0152 196.326 34.1874 196.326 34.4745V38.2204C196.326 38.7658 196.326 38.7658 195.766 38.7658H179.491C178.916 38.7658 178.916 38.7658 178.916 38.1774V35.881H178.744ZM110.47 16.5627H46.9108C46.2495 16.5627 46.2495 16.5627 46.2495 15.9168V11.6111V11.2666C46.2423 11.2286 46.2443 11.1895 46.2552 11.1524C46.2661 11.1153 46.2858 11.0813 46.3124 11.0533C46.3391 11.0252 46.3721 11.0039 46.4086 10.9911C46.4452 10.9783 46.4843 10.9743 46.5226 10.9796H107.954C108.158 10.9631 108.362 11.0092 108.54 11.1118C108.717 11.2144 108.858 11.3685 108.946 11.5537C109.385 12.3556 109.723 13.2089 109.952 14.094C110.153 14.7973 110.297 15.5293 110.47 16.2182C110.483 16.3326 110.483 16.4482 110.47 16.5627ZM110.527 66.4373C110.34 67.2267 110.196 67.8725 109.995 68.6332C109.752 69.5996 109.385 70.5306 108.903 71.4032C108.821 71.5746 108.69 71.7172 108.525 71.812C108.361 71.9069 108.172 71.9495 107.982 71.9343H46.8677C46.2495 71.9343 46.2495 71.9343 46.2495 71.2884V68.0017V66.8535C46.2495 66.466 46.2495 66.4086 46.7095 66.3942H109.693L110.527 66.4373ZM103.583 5.52565H46.9252C46.2495 5.52565 46.2495 5.52565 46.2495 4.83673V0.531008C46.2495 0.0286732 46.2495 0.0286732 46.7527 0.0143208H89.8823C92.3493 0.0191968 94.7915 0.506804 97.0706 1.44956C99.3247 2.36796 101.424 3.6265 103.296 5.18119L103.598 5.43953C103.598 5.43953 103.511 5.45389 103.583 5.52565ZM103.511 77.5891C103.209 77.8331 102.922 78.1058 102.606 78.3354C100.036 80.3607 97.0522 81.7965 93.8646 82.5407C92.9883 82.7264 92.0992 82.8463 91.205 82.8995C90.0261 82.9713 88.8472 82.9856 87.6683 82.9856H46.9971C46.192 82.9856 46.2351 82.9856 46.2351 82.2249V77.9192C46.2351 77.4025 46.2351 77.3882 46.767 77.3738H103.511V77.5891ZM107.335 49.7885H58.3114C57.9808 49.7885 57.9232 49.7885 57.9232 49.4153V44.636C57.9232 44.392 58.0239 44.2628 58.2827 44.2772H102.074C102.488 44.2624 102.891 44.412 103.195 44.6934C104.612 45.8875 105.86 47.2684 106.904 48.7982C107.091 49.0852 107.235 49.401 107.407 49.7024L107.335 49.7885ZM57.952 38.7515V38.2204V33.7855C57.952 33.2402 57.952 33.2402 58.5271 33.2402H107.407C107.331 33.4334 107.239 33.6205 107.134 33.7999C106.699 34.5 106.219 35.1711 105.697 35.8092C104.834 36.7421 103.871 37.6033 102.951 38.4931C102.858 38.5875 102.745 38.6598 102.621 38.7046C102.496 38.7493 102.363 38.7653 102.232 38.7515H57.952ZM20.1273 -3.16268e-05H39.7081C40.3838 -3.16268e-05 40.3838 -3.1621e-05 40.3838 0.688884V4.87979C40.4066 5.01278 40.4066 5.14867 40.3838 5.28166C40.3372 5.39161 40.2496 5.47912 40.1394 5.52565C39.9918 5.54877 39.8414 5.54877 39.6938 5.52565H0.718925C9.73097e-05 5.52565 9.73293e-05 5.52565 9.73293e-05 4.82238V0.516655V0.258312C-0.00464971 0.22327 -0.00122672 0.187608 0.0100995 0.154104C0.0214257 0.1206 0.0403492 0.0901599 0.0653949 0.0651563C0.0904406 0.0401526 0.120932 0.0212609 0.154492 0.00995375C0.188052 -0.00135345 0.223775 -0.00477069 0.258875 -3.16268e-05H20.1273ZM40.3551 11.0944V16.046C40.3551 16.577 40.3551 16.577 39.8375 16.5914H0.819561C-0.100539 16.5914 0.0144739 16.5914 9.73293e-05 15.7876V11.6972V11.3671C-0.00709284 11.3291 -0.00513362 11.2899 0.00581348 11.2528C0.0167606 11.2157 0.036382 11.1818 0.0630602 11.1537C0.0897383 11.1257 0.122709 11.1044 0.159254 11.0916C0.195799 11.0788 0.234872 11.0748 0.273252 11.08H39.7657L40.3551 11.0944ZM20.4723 71.9199H1.04959C0.244499 71.9199 0.302005 71.9199 0.302005 71.1592V66.8535C0.302005 66.3368 0.302005 66.3225 0.833938 66.3225H39.8375C40.7864 66.3225 40.6714 66.3225 40.6857 67.1549V71.2884C40.6857 71.8625 40.6857 71.8625 40.0963 71.8625L20.4723 71.9199ZM20.4867 83H0.963327C0.302005 83 0.302005 83 0.302005 82.3541V78.0484C0.302005 77.503 0.302005 77.4886 0.862691 77.4886H39.8663C40.7864 77.4886 40.6714 77.4886 40.6857 78.2924V82.6268C40.6857 82.9856 40.6857 83 40.2688 83.0143H20.4867V83ZM153.829 16.5914H115.947C115.286 16.5914 115.286 16.5914 115.286 15.9455V11.6398V11.3384C115.286 11.2379 115.372 10.9939 115.602 10.9939H151.443C152.003 10.9939 152.003 10.9939 152.176 11.5106L153.729 16.0747C153.829 16.2613 153.829 16.3761 153.829 16.5914ZM169.255 16.5914C169.255 16.3617 169.356 16.2182 169.399 16.089L170.923 11.5537C171.081 11.0657 171.095 11.0657 171.642 11.0657H206.907C207.626 11.0657 207.641 11.0657 207.641 11.812V16.3043C207.645 16.3418 207.641 16.3798 207.629 16.4156C207.617 16.4514 207.597 16.4841 207.571 16.5114C207.545 16.5388 207.513 16.5601 207.478 16.5739C207.443 16.5878 207.405 16.5937 207.368 16.5914H169.255ZM150.005 5.54H115.846C115.3 5.54 115.286 5.54 115.286 4.98026V0.54536V0.344426C115.286 0.272664 115.372 -3.16268e-05 115.602 -3.16268e-05H147.46C148.05 -3.16268e-05 148.021 -0.0717937 148.237 0.531008L149.933 5.16684C149.964 5.28988 149.988 5.41444 150.005 5.54ZM173.252 5.54C173.396 5.10943 173.511 4.77932 173.626 4.46357L175.063 0.48795C175.236 0.0143208 175.236 -3.16268e-05 175.725 -3.16268e-05H207.023C207.554 -3.16268e-05 207.569 -3.1621e-05 207.569 0.574065V4.87979C207.569 5.49694 207.569 5.51129 206.922 5.51129H173.252V5.54ZM165.33 27.6714C165.402 27.4131 165.431 27.2696 165.489 27.126L167.142 22.6337C167.329 22.1457 167.329 22.1457 167.861 22.1457H196.125C196.158 22.1457 196.191 22.1524 196.222 22.1656C196.253 22.1787 196.28 22.198 196.303 22.2222C196.326 22.2464 196.344 22.275 196.355 22.3063C196.367 22.3376 196.371 22.3709 196.369 22.4041V27.3987C196.372 27.4364 196.366 27.4741 196.352 27.5092C196.338 27.5444 196.317 27.576 196.289 27.602C196.262 27.628 196.229 27.6477 196.193 27.6597C196.158 27.6717 196.12 27.6757 196.082 27.6714H165.33ZM157.84 27.6714H127.65C126.988 27.6714 126.988 27.6714 126.988 27.0256V22.7198V22.4184C126.988 22.318 127.118 22.0596 127.362 22.074H155.267C155.842 22.074 155.842 22.074 156.043 22.6194L157.725 27.2696C157.768 27.2696 157.783 27.4418 157.84 27.6714ZM193.408 71.9199H179.578C178.916 71.9199 178.916 71.9199 178.916 71.274V66.9683C178.916 66.3655 178.916 66.3655 179.535 66.3655H207.396C208 66.3655 208.014 66.3655 208.014 66.9683V71.5754C208.014 71.6759 207.899 71.8768 207.698 71.8625H193.422L193.408 71.9199ZM193.451 83H179.42C178.931 83 178.916 83 178.916 82.4976V77.9623C178.916 77.503 178.916 77.4886 179.391 77.4743H207.195C208.13 77.4743 207.986 77.4743 208 78.2924V82.4259C208 83 208 83.0143 207.425 83.0143L193.451 83ZM129.993 71.9199H116.306C115.645 71.9199 115.645 71.9199 115.645 71.2597V67.0688V66.6669C115.643 66.6299 115.649 66.5929 115.662 66.5582C115.674 66.5234 115.694 66.4916 115.72 66.4648C115.745 66.4379 115.776 66.4165 115.81 66.4019C115.844 66.3873 115.881 66.3798 115.918 66.3799H143.694C144.369 66.3799 144.369 66.3799 144.369 67.0688V71.3745C144.369 71.9773 144.369 71.9773 143.766 71.9773L129.993 71.9199ZM129.979 83H116.148C115.688 83 115.645 83 115.645 82.5263V77.9479C115.645 77.5173 115.645 77.4743 116.148 77.4599H143.55C144.484 77.4599 144.355 77.4599 144.355 78.2637V82.6412C144.355 82.756 144.24 83 143.996 82.9856H129.979V83ZM147.762 44.2915H175.653C175.664 44.406 175.664 44.5214 175.653 44.636L173.956 49.4297C173.87 49.688 173.741 49.8315 173.453 49.7885H150.451C149.732 49.7885 149.818 49.8746 149.559 49.1857L147.906 44.7508C147.849 44.636 147.82 44.4924 147.762 44.2915ZM101.729 60.8542H93.002C92.5132 60.8542 92.4988 60.8542 92.4988 60.3519V55.8165C92.4988 55.3572 92.4988 55.3285 92.9733 55.3142H109.262C110.125 55.3142 109.995 55.3142 110.24 56.0461C110.637 57.3281 110.911 58.6449 111.059 59.9787C111.16 60.8111 111.059 60.8398 110.283 60.8398L101.729 60.8542ZM111.03 22.1457C111.008 22.7222 110.955 23.2971 110.872 23.868C110.642 24.9732 110.369 26.0639 110.096 27.1547C109.966 27.6571 109.938 27.6571 109.406 27.6571H92.772C92.7343 27.6594 92.6965 27.6535 92.6613 27.6397C92.6261 27.6258 92.5944 27.6045 92.5684 27.5772C92.5423 27.5498 92.5226 27.5171 92.5106 27.4813C92.4986 27.4455 92.4946 27.4075 92.4988 27.37V27.126V22.6911V22.3897C92.4964 22.3558 92.5016 22.3218 92.514 22.2901C92.5264 22.2584 92.5456 22.2299 92.5704 22.2066C92.5951 22.1832 92.6248 22.1656 92.6571 22.1551C92.6895 22.1446 92.7238 22.1414 92.7576 22.1457H111.03ZM151.745 55.4146C152.19 55.2998 171.124 55.2855 171.685 55.4146C171.695 55.534 171.695 55.654 171.685 55.7734L169.988 60.3949C169.816 60.8686 169.802 60.8685 169.313 60.8685H154.174C153.7 60.8685 153.685 60.8685 153.527 60.4236L151.917 55.9744C151.86 55.7591 151.817 55.6012 151.745 55.4146ZM135.672 49.7885H127.333C127.003 49.7885 126.959 49.7885 126.959 49.401V47.1046V44.7077C126.959 44.2772 126.959 44.2628 127.42 44.2485H143.636C144.441 44.2485 144.355 44.2485 144.355 44.9804V49.2862C144.355 49.7741 144.355 49.7885 143.852 49.7885H135.672ZM179.031 44.2628H195.838C196.312 44.2628 196.341 44.2628 196.341 44.7795V49.2144C196.341 49.7885 196.341 49.7885 195.751 49.7885H179.261C179.046 49.7885 178.916 49.7885 178.916 49.4727V44.435C178.916 44.435 178.959 44.392 179.031 44.2628ZM135.672 60.8542H127.333C127.089 60.8542 126.959 60.7681 126.974 60.5097C126.988 60.2514 126.974 60.237 126.974 60.1079V55.8022C126.974 55.2568 126.974 55.2424 127.535 55.2424H144.053C144.254 55.2424 144.369 55.3285 144.369 55.5438V60.5241C144.372 60.558 144.367 60.592 144.354 60.6237C144.342 60.6554 144.323 60.6839 144.298 60.7073C144.273 60.7306 144.244 60.7482 144.211 60.7587C144.179 60.7692 144.144 60.7724 144.111 60.7681H135.672V60.8542ZM187.629 60.8542H179.29C178.959 60.8542 178.916 60.8542 178.916 60.4667V57.668V55.7304C178.916 55.3716 178.916 55.3429 179.319 55.3142H195.521C196.298 55.3142 196.298 55.3142 196.298 56.0605V60.5959C196.298 60.6291 196.291 60.6621 196.278 60.6927C196.265 60.7232 196.245 60.7508 196.221 60.7737C196.197 60.7965 196.168 60.8142 196.137 60.8256C196.105 60.8369 196.072 60.8418 196.039 60.8398H187.6L187.629 60.8542ZM20.3142 27.6714H11.9326C11.8993 27.6715 11.8663 27.6647 11.8357 27.6516C11.805 27.6384 11.7774 27.6192 11.7545 27.595C11.7316 27.5708 11.7139 27.5421 11.7025 27.5109C11.6911 27.4796 11.6863 27.4463 11.6882 27.4131V27.1691V22.6768C11.6882 22.1601 11.6882 22.1457 12.2202 22.1457H28.4801C28.9976 22.1457 29.012 22.1457 29.012 22.6768V27.1117C29.012 27.6427 29.012 27.6714 28.4369 27.6714H20.3142ZM57.9232 22.1744H74.9738C75.0114 22.1702 75.0494 22.1742 75.0853 22.1862C75.1211 22.1982 75.1539 22.2178 75.1813 22.2438C75.2087 22.2698 75.2301 22.3015 75.2439 22.3366C75.2578 22.3717 75.2637 22.4095 75.2614 22.4471V27.3987C75.2656 27.44 75.2608 27.4817 75.2473 27.5209C75.2338 27.5602 75.212 27.5961 75.1833 27.6261C75.1546 27.6561 75.1197 27.6795 75.0811 27.6948C75.0425 27.71 75.001 27.7168 74.9595 27.7145H58.5846C57.9232 27.7145 57.9232 27.7145 57.9232 27.0686V22.7629V22.1744ZM11.6882 38.7515V38.2061V33.9004V33.5559C11.6882 33.5226 11.6949 33.4897 11.7081 33.4591C11.7213 33.4285 11.7406 33.401 11.7648 33.3781C11.7891 33.3552 11.8177 33.3376 11.8491 33.3262C11.8804 33.3148 11.9137 33.31 11.947 33.3119H28.4657C28.9976 33.3119 29.0264 33.3119 29.0264 33.8717V38.2635C29.0264 38.8232 29.0264 38.8376 28.4801 38.8376H12.2058L11.6882 38.7515ZM11.7026 60.8255V60.3232V55.8883C11.7026 55.3429 11.7026 55.3285 12.2633 55.3285H28.4657C28.9976 55.3285 29.0264 55.3285 29.0264 55.9026V60.3375C29.0264 60.8398 29.0264 60.8685 28.4801 60.8685H12.2058L11.7026 60.8255ZM66.5779 60.8542H58.2395C58.1977 60.8612 58.1548 60.8583 58.1142 60.8459C58.0736 60.8335 58.0365 60.8117 58.0059 60.7825C57.9752 60.7532 57.9517 60.7173 57.9374 60.6774C57.923 60.6375 57.9182 60.5949 57.9232 60.5528V60.3088V55.917C57.9232 55.3285 57.9232 55.3142 58.5558 55.3142H74.7582C75.132 55.3142 75.2039 55.3142 75.2039 55.7447V60.438C75.2039 60.8111 75.2039 60.8542 74.7438 60.8542H66.5779ZM20.3142 49.7885H11.9901C11.9483 49.7955 11.9054 49.7926 11.8648 49.7802C11.8243 49.7677 11.7872 49.746 11.7565 49.7168C11.7258 49.6875 11.7023 49.6515 11.688 49.6117C11.6736 49.5718 11.6688 49.5291 11.6739 49.4871V49.2431V44.8082C11.6739 44.2915 11.6739 44.2772 12.2058 44.2772H28.4801C28.9976 44.2772 29.0264 44.2772 29.0264 44.8082V49.3005C29.0264 49.7885 29.0264 49.8028 28.5088 49.8028L20.3142 49.7885ZM155.756 66.3799H167.746C167.746 66.6239 167.659 66.7674 167.616 66.9109L166.035 71.475C165.877 71.9199 165.877 71.9343 165.388 71.9343H158.2C157.927 71.9343 157.725 71.9343 157.61 71.6042C157.021 69.968 156.403 68.3318 155.799 66.71C155.778 66.6009 155.763 66.4907 155.756 66.3799ZM159.767 77.503H163.893C163.868 77.6626 163.834 77.8207 163.792 77.9766L162.11 82.5981C162.086 82.6784 162.052 82.7556 162.01 82.8277C161.995 82.8617 161.971 82.8908 161.941 82.9112C161.91 82.9317 161.874 82.9426 161.837 82.9426C161.8 82.9426 161.764 82.9317 161.733 82.9112C161.703 82.8908 161.679 82.8617 161.664 82.8277C161.623 82.7549 161.589 82.6779 161.564 82.5981L159.896 77.9623C159.844 77.8118 159.801 77.6585 159.767 77.503Z" fill="white"></path>
  </g>
  <defs>
    <clipPath id="clip0_9487_74967">
      <rect width="208" height="83" fill="white"></rect>
    </clipPath>
  </defs>
</svg>
