<?xml version="1.0" encoding="UTF-8"?>
<svg xmlns="http://www.w3.org/2000/svg" width="266" height="102" viewBox="0 0 266 102" fill="none">
  <g clip-path="url(#clip0_9495_74974)">
    <path d="M254.853 93.0567L255.365 92.7494C255.43 92.7068 255.503 92.6778 255.58 92.6641C255.656 92.6504 255.735 92.6523 255.811 92.6697C255.887 92.6871 255.958 92.7196 256.021 92.7652C256.084 92.8109 256.137 92.8688 256.177 92.9354C256.38 93.3441 256.686 93.6936 257.064 93.9501C257.443 94.2065 257.882 94.3612 258.338 94.399C258.729 94.401 259.114 94.3066 259.46 94.1241C259.796 93.9618 260.078 93.7063 260.272 93.3883C260.452 93.0933 260.548 92.7549 260.548 92.4098C260.538 91.9914 260.396 91.5868 260.142 91.2535C259.56 90.5308 258.876 89.8962 258.111 89.3694C257.434 88.9044 256.815 88.3616 256.266 87.7521C255.863 87.2396 255.643 86.608 255.641 85.957C255.634 85.4664 255.76 84.983 256.007 84.5581C256.253 84.1366 256.614 83.7922 257.046 83.5634C257.495 83.3205 257.998 83.1953 258.509 83.1996C259.059 83.1963 259.6 83.3386 260.077 83.612C260.528 83.888 260.927 84.2411 261.255 84.6551C261.303 84.714 261.339 84.782 261.36 84.855C261.382 84.928 261.388 85.0045 261.379 85.08C261.37 85.1555 261.345 85.2283 261.307 85.2943C261.27 85.3602 261.219 85.4178 261.158 85.4637L261.101 85.5042C261.043 85.553 260.975 85.5898 260.902 85.6122C260.83 85.6347 260.753 85.6424 260.677 85.6348C260.602 85.6273 260.528 85.6047 260.461 85.5683C260.394 85.532 260.336 85.4827 260.288 85.4233C260.059 85.1341 259.784 84.883 259.476 84.6794C259.167 84.4929 258.813 84.395 258.452 84.3963C258.237 84.3865 258.022 84.4193 257.82 84.4929C257.618 84.5665 257.432 84.6794 257.274 84.8249C257.127 84.9595 257.011 85.1235 256.933 85.3061C256.854 85.4887 256.815 85.6857 256.819 85.8842C256.82 86.1408 256.875 86.3943 256.981 86.6281C257.126 86.9307 257.324 87.2047 257.566 87.4368C257.721 87.5823 258.233 87.9785 259.094 88.6093C259.907 89.1543 260.621 89.8324 261.206 90.6147C261.565 91.1346 261.762 91.7473 261.775 92.3775C261.78 92.7961 261.696 93.211 261.53 93.5955C261.363 93.9799 261.117 94.3253 260.808 94.6093C260.498 94.9184 260.127 95.1616 259.719 95.3242C259.312 95.4868 258.875 95.5654 258.436 95.5554C257.743 95.5611 257.064 95.3613 256.486 94.9812C255.797 94.4823 255.239 93.8247 254.861 93.0648M248.166 86.0459C248.054 86.1318 247.913 86.1728 247.772 86.1609C247.63 86.1489 247.499 86.0848 247.402 85.9812C246.974 85.5171 246.461 85.1384 245.891 84.8653C245.15 84.5156 244.339 84.3386 243.519 84.3478C242.602 84.3426 241.7 84.5768 240.902 85.0271C240.129 85.4519 239.486 86.0779 239.042 86.8384C238.593 87.6181 238.363 88.5033 238.376 89.4017C238.358 90.0696 238.48 90.7339 238.734 91.3521C238.989 91.9703 239.37 92.5288 239.854 92.992C240.347 93.4688 240.931 93.842 241.572 94.0893C242.213 94.3365 242.897 94.4529 243.584 94.4314C244.293 94.4433 244.997 94.3102 245.652 94.0404C246.308 93.7705 246.901 93.3697 247.394 92.8626C247.492 92.7658 247.621 92.7075 247.759 92.6986C247.896 92.6897 248.032 92.7307 248.142 92.8141C248.201 92.8618 248.25 92.9208 248.285 92.9876C248.321 93.0544 248.343 93.1277 248.35 93.2031C248.357 93.2785 248.348 93.3544 248.325 93.4265C248.302 93.4986 248.264 93.5653 248.215 93.6227C247.702 94.1465 247.096 94.5714 246.427 94.8761C245.501 95.2938 244.494 95.5036 243.478 95.4907C242.563 95.5323 241.65 95.3694 240.806 95.014C239.963 94.6586 239.21 94.1197 238.603 93.4368C237.6 92.276 237.065 90.7867 237.1 89.2562C237.084 88.4475 237.237 87.6443 237.551 86.898C237.864 86.1517 238.33 85.4786 238.92 84.9219C239.522 84.3389 240.236 83.8824 241.019 83.5796C241.802 83.2768 242.638 83.1338 243.478 83.1591C244.509 83.1443 245.529 83.3656 246.46 83.806C247.14 84.1342 247.749 84.59 248.255 85.1484C248.315 85.2091 248.36 85.2821 248.388 85.3623C248.415 85.4424 248.425 85.5277 248.416 85.612C248.406 85.6962 248.378 85.7774 248.334 85.8496C248.289 85.9219 248.229 85.9834 248.158 86.0298L248.166 86.0459ZM229.259 83.523C229.412 83.523 229.559 83.5835 229.667 83.6912C229.776 83.7989 229.836 83.9449 229.836 84.0971V94.6982C229.836 94.8505 229.776 94.9965 229.667 95.1042C229.559 95.2119 229.412 95.2723 229.259 95.2723C229.106 95.2723 228.96 95.2119 228.852 95.1042C228.743 94.9965 228.683 94.8505 228.683 94.6982V84.0971C228.68 84.0211 228.693 83.9453 228.721 83.8743C228.748 83.8033 228.79 83.7385 228.843 83.6836C228.896 83.6286 228.959 83.5847 229.029 83.5544C229.099 83.524 229.175 83.5079 229.251 83.5068L229.259 83.523ZM215.61 84.0971C215.61 83.9449 215.67 83.7989 215.779 83.6912C215.887 83.5835 216.034 83.523 216.187 83.523H221.5C221.653 83.523 221.8 83.5835 221.908 83.6912C222.016 83.7989 222.077 83.9449 222.077 84.0971C222.077 84.2494 222.016 84.3954 221.908 84.5031C221.8 84.6108 221.653 84.6713 221.5 84.6713H220.013C219.86 84.6713 219.714 84.7318 219.605 84.8394C219.497 84.9471 219.436 85.0931 219.436 85.2454V94.7063C219.436 94.8586 219.376 95.0046 219.268 95.1123C219.159 95.2199 219.013 95.2804 218.86 95.2804H218.803C218.65 95.2804 218.503 95.2199 218.395 95.1123C218.287 95.0046 218.226 94.8586 218.226 94.7063V85.2454C218.226 85.0931 218.165 84.9471 218.057 84.8394C217.949 84.7318 217.802 84.6713 217.649 84.6713H216.17C216.019 84.6691 215.874 84.6077 215.768 84.5003C215.661 84.3928 215.602 84.248 215.602 84.0971H215.61ZM202.082 83.523C202.179 83.523 202.275 83.5474 202.36 83.5941C202.445 83.6407 202.517 83.7081 202.569 83.7899L204.958 87.6308C205.01 87.7127 205.082 87.7801 205.167 87.8268C205.252 87.8735 205.348 87.898 205.445 87.898C205.543 87.898 205.638 87.8735 205.724 87.8268C205.809 87.7801 205.881 87.7127 205.933 87.6308L208.281 83.798C208.332 83.7147 208.404 83.6457 208.489 83.5976C208.574 83.5495 208.671 83.5238 208.769 83.523C208.869 83.5247 208.968 83.5527 209.055 83.6041C209.141 83.6556 209.213 83.7287 209.262 83.8163C209.311 83.9038 209.337 84.0027 209.336 84.1031C209.335 84.2034 209.307 84.3018 209.256 84.3883L206.12 89.5149C206.066 89.6054 206.038 89.7089 206.039 89.8141V94.6659C206.039 94.8181 205.978 94.9642 205.87 95.0718C205.761 95.1795 205.615 95.24 205.462 95.24C205.309 95.24 205.162 95.1795 205.054 95.0718C204.946 94.9642 204.885 94.8181 204.885 94.6659V89.8141C204.883 89.7081 204.852 89.6045 204.795 89.5149L201.611 84.3963C201.554 84.3111 201.522 84.2124 201.516 84.1105C201.511 84.0086 201.533 83.9071 201.58 83.8165C201.627 83.7259 201.698 83.6495 201.785 83.595C201.871 83.5406 201.971 83.5102 202.074 83.5068L202.082 83.523ZM189.894 83.523C190.047 83.523 190.194 83.5835 190.302 83.6912C190.411 83.7989 190.471 83.9449 190.471 84.0971V93.5581C190.471 93.6335 190.486 93.7081 190.515 93.7778C190.544 93.8474 190.587 93.9107 190.64 93.964C190.694 94.0173 190.757 94.0596 190.827 94.0885C190.897 94.1173 190.972 94.1322 191.048 94.1322H194.453C194.606 94.1322 194.752 94.1927 194.86 94.3003C194.969 94.408 195.029 94.554 195.029 94.7063C195.029 94.8586 194.969 95.0046 194.86 95.1123C194.752 95.2199 194.606 95.2804 194.453 95.2804H189.862C189.709 95.2804 189.562 95.2199 189.454 95.1123C189.346 95.0046 189.285 94.8586 189.285 94.7063V84.0971C189.283 84.0197 189.296 83.9426 189.325 83.8706C189.354 83.7985 189.396 83.7329 189.451 83.6778C189.506 83.6226 189.571 83.579 189.643 83.5497C189.715 83.5203 189.792 83.5057 189.87 83.5068L189.894 83.523ZM176.253 87.081L175.132 89.4502C175.092 89.5372 175.076 89.6324 175.083 89.7274C175.09 89.8223 175.121 89.9141 175.172 89.9943C175.224 90.0745 175.295 90.1407 175.378 90.1869C175.462 90.233 175.556 90.2578 175.652 90.2589H177.894C177.99 90.2578 178.084 90.233 178.167 90.1869C178.251 90.1407 178.322 90.0745 178.373 89.9943C178.425 89.9141 178.456 89.8223 178.463 89.7274C178.47 89.6324 178.453 89.5372 178.414 89.4502L177.293 87.081C177.251 86.9758 177.178 86.8855 177.084 86.8213C176.99 86.7571 176.88 86.7219 176.766 86.7202C176.652 86.7185 176.541 86.7503 176.445 86.8116C176.349 86.8729 176.274 86.961 176.228 87.0648L176.253 87.081ZM176.919 83.523L181.997 94.4395C182.036 94.5264 182.053 94.6216 182.046 94.7166C182.039 94.8116 182.008 94.9033 181.956 94.9835C181.905 95.0637 181.834 95.1299 181.75 95.1761C181.667 95.2223 181.573 95.247 181.477 95.2481C181.369 95.2483 181.262 95.218 181.17 95.1608C181.078 95.1036 181.004 95.0218 180.957 94.9246L179.422 91.6901C179.374 91.593 179.3 91.5112 179.208 91.454C179.116 91.3967 179.01 91.3665 178.902 91.3667H174.514C174.406 91.3665 174.299 91.3967 174.207 91.454C174.115 91.5112 174.041 91.593 173.994 91.6901L172.475 94.9246C172.427 95.0218 172.353 95.1036 172.262 95.1608C172.17 95.218 172.063 95.2483 171.955 95.2481H171.906C171.81 95.247 171.716 95.2223 171.633 95.1761C171.549 95.1299 171.478 95.0637 171.427 94.9835C171.375 94.9033 171.344 94.8116 171.337 94.7166C171.33 94.6216 171.347 94.5264 171.386 94.4395L176.57 83.5068L176.919 83.523ZM155.421 95.2562C155.345 95.2562 155.27 95.2413 155.2 95.2125C155.13 95.1836 155.066 95.1413 155.013 95.088C154.959 95.0347 154.917 94.9714 154.888 94.9018C154.859 94.8321 154.844 94.7574 154.844 94.682V83.5068H155.096L161.937 91.3343C162.014 91.4206 162.116 91.4817 162.228 91.5095C162.341 91.5374 162.459 91.5309 162.568 91.4907C162.677 91.4505 162.771 91.3786 162.838 91.2843C162.905 91.1901 162.942 91.0779 162.944 90.9624V84.0971C162.944 83.9449 163.005 83.7989 163.113 83.6912C163.221 83.5835 163.368 83.523 163.521 83.523C163.674 83.523 163.821 83.5835 163.929 83.6912C164.037 83.7989 164.098 83.9449 164.098 84.0971V95.2562H163.83L157.038 87.5015C156.96 87.4152 156.859 87.3541 156.746 87.3263C156.633 87.2984 156.515 87.3049 156.406 87.3451C156.297 87.3853 156.203 87.4572 156.136 87.5515C156.069 87.6457 156.032 87.7579 156.03 87.8734V94.682C156.03 94.8343 155.969 94.9804 155.861 95.088C155.753 95.1957 155.606 95.2562 155.453 95.2562H155.421ZM141.763 87.0729L140.642 89.4422C140.602 89.5291 140.586 89.6243 140.593 89.7193C140.6 89.8143 140.631 89.906 140.682 89.9862C140.734 90.0664 140.805 90.1326 140.888 90.1788C140.972 90.225 141.066 90.2497 141.162 90.2508H143.404C143.5 90.2497 143.594 90.225 143.677 90.1788C143.761 90.1326 143.832 90.0664 143.883 89.9862C143.935 89.906 143.966 89.8143 143.973 89.7193C143.98 89.6243 143.963 89.5291 143.924 89.4422L142.803 87.0729C142.756 86.975 142.683 86.8921 142.592 86.8338C142.5 86.7755 142.394 86.7441 142.285 86.7433C142.177 86.7424 142.07 86.7722 141.977 86.829C141.885 86.8859 141.811 86.9677 141.763 87.0648V87.0729ZM142.429 83.5149L147.556 94.4476C147.595 94.5345 147.612 94.6297 147.605 94.7247C147.597 94.8196 147.567 94.9114 147.515 94.9916C147.464 95.0718 147.393 95.138 147.309 95.1842C147.225 95.2303 147.131 95.2551 147.036 95.2562C146.927 95.2564 146.821 95.2261 146.729 95.1689C146.637 95.1117 146.563 95.0298 146.516 94.9327L144.98 91.6982C144.933 91.6011 144.859 91.5192 144.767 91.462C144.675 91.4048 144.569 91.3746 144.46 91.3748H140.073C139.964 91.3746 139.858 91.4048 139.766 91.462C139.674 91.5192 139.6 91.6011 139.553 91.6982L138.033 94.9327C137.986 95.0298 137.912 95.1117 137.82 95.1689C137.728 95.2261 137.622 95.2564 137.513 95.2562H137.465C137.369 95.2551 137.275 95.2303 137.191 95.1842C137.108 95.138 137.037 95.0718 136.985 94.9916C136.934 94.9114 136.903 94.8196 136.896 94.7247C136.889 94.6297 136.906 94.5345 136.945 94.4476L142.128 83.5149H142.429ZM123.132 62.3856L122.954 62.5635C122.888 62.6303 122.807 62.6803 122.718 62.709L117.461 64.3263C115.677 64.9044 113.82 65.2257 111.944 65.2804C110.192 65.1727 108.479 64.7163 106.907 63.9381C105.555 63.2394 104.088 62.7849 102.577 62.5958C101.634 62.5958 100.383 63.116 98.8228 64.1564C97.6837 65.0431 96.3137 65.5874 94.8741 65.7252C94.2876 65.714 93.7126 65.5609 93.1988 65.2791C92.6849 64.9974 92.2477 64.5954 91.9248 64.1079C91.7136 63.8114 91.1719 62.8114 90.2999 61.1079C89.7582 60.0298 89.203 59.4907 88.6342 59.4907C87.9518 59.4907 86.1453 60.5877 83.215 62.7818C80.2846 64.9758 78.118 66.0729 76.7151 66.0729C76.1303 66.1146 75.5444 66.01 75.0108 65.7684C74.4771 65.5269 74.0128 65.1562 73.6601 64.6901L73.6032 64.5931C73.1483 63.6874 72.7176 62.7629 72.3114 61.8195L72.2708 61.7387C72.0368 61.3262 71.7018 60.9794 71.2969 60.7306C70.8921 60.4817 70.4305 60.3389 69.9552 60.3155C69.8125 60.3091 69.6769 60.2517 69.5733 60.1537C69.4661 60.0462 69.406 59.9009 69.406 59.7494C69.406 59.598 69.4661 59.4527 69.5733 59.3451C70.5074 58.6236 71.5804 58.1007 72.7258 57.8087C74.1059 57.4358 75.5288 57.2428 76.9588 57.2346C77.4291 57.2267 77.8871 57.3847 78.2514 57.6808C78.6158 57.9768 78.8631 58.3917 78.9494 58.8519C79.2907 59.93 79.7619 60.4691 80.3631 60.4691C80.8777 60.4691 81.7335 59.895 82.9306 58.7467C84.0967 57.5621 85.3635 56.4799 86.7168 55.5122C88.3379 54.3787 90.2537 53.7356 92.2336 53.6605C92.9161 53.6605 93.409 54.3748 93.7123 55.8033C94.1835 58.1861 94.4544 59.5069 94.5248 59.7656C94.6992 60.3903 95.0771 60.9396 95.5991 61.3274C96.1212 61.7152 96.7578 61.9196 97.4091 61.9085C98.7362 61.9085 100.201 61.0244 101.805 59.2562C103.408 57.488 105.16 56.6039 107.061 56.6039C108.215 56.6901 109.531 57.5742 111.01 59.2562C112.489 60.9381 113.762 61.7791 114.829 61.7791C116.947 61.7791 119.495 61.0621 122.474 59.6281C122.561 59.5873 122.656 59.5688 122.752 59.5745C122.848 59.5802 122.94 59.6098 123.021 59.6606C123.102 59.7115 123.169 59.7818 123.216 59.8652C123.262 59.9486 123.286 60.0423 123.287 60.1376V61.9812C123.29 62.1309 123.235 62.276 123.132 62.3856ZM142.104 58.5769C142.134 59.6079 141.91 60.6307 141.451 61.5555C140.993 62.4803 140.313 63.2789 139.472 63.8815C137.885 65.0745 135.943 65.7038 133.955 65.6686C132.614 65.7155 131.291 65.3483 130.169 64.6174C129.707 64.3245 129.319 63.9288 129.037 63.4615C128.755 62.9942 128.586 62.4681 128.544 61.9246C128.538 61.838 128.552 61.7512 128.586 61.6712C128.62 61.5912 128.672 61.5202 128.739 61.4637L128.909 61.3101C128.973 61.2519 129.05 61.2092 129.133 61.1854C129.216 61.1615 129.303 61.1572 129.389 61.1726C129.789 61.2481 130.518 61.4395 131.574 61.7467C132.581 62.0808 133.627 62.2846 134.686 62.3532C135.84 62.3532 136.417 61.8411 136.417 60.8168C136.417 59.1133 133.936 58.2616 128.974 58.2616H127.528C127.381 58.2678 127.243 58.3302 127.142 58.4357C127.04 58.5412 126.983 58.6816 126.984 58.8276V64.868C126.984 87.9678 124.893 100.321 120.711 101.927C120.618 101.97 120.515 101.987 120.413 101.976C120.311 101.966 120.214 101.929 120.131 101.869C120.049 101.809 119.984 101.728 119.943 101.634C119.902 101.541 119.887 101.438 119.899 101.337C120.175 98.4637 121.052 91.9273 122.531 81.7279C123.983 71.6794 124.709 64.2292 124.709 59.3775C124.709 52.488 123.433 48.5661 120.882 47.612C120.783 47.5766 120.696 47.515 120.63 47.4341L120.354 47.0864C120.264 46.9773 120.218 46.8391 120.224 46.6982C120.277 45.4678 120.578 44.2606 121.109 43.1484C121.835 41.7414 122.756 41.0378 123.872 41.0378C125.199 41.0378 126.12 42.9974 126.634 46.9165C126.929 49.1874 127.065 51.476 127.04 53.7656C127.039 53.8664 127.065 53.9658 127.115 54.0534C127.165 54.141 127.238 54.2138 127.326 54.2641C127.413 54.3143 127.513 54.3404 127.614 54.3395C127.716 54.3386 127.815 54.3107 127.902 54.2589C129.701 53.4078 131.67 52.9717 133.662 52.9829C135.653 52.9941 137.617 53.4524 139.407 54.3236C140.207 54.7148 140.882 55.3197 141.357 56.0708C141.832 56.8219 142.088 57.6895 142.096 58.5769H142.104ZM157.444 53.7899C155.905 53.5796 154.343 54.2184 152.756 55.7063C152.154 56.2153 151.609 56.7873 151.131 57.4125C150.318 58.6174 150.708 59.1349 152.057 58.5284C153.022 58.0574 153.95 57.5168 154.836 56.9112C156.867 55.6281 157.882 54.7171 157.882 54.178C157.882 53.9624 157.734 53.833 157.436 53.7899H157.444ZM216.755 53.9192C216.755 52.9812 215.672 52.5122 213.505 52.5122C211.563 52.4726 209.657 53.0381 208.054 54.1295C207.133 54.7301 206.384 55.557 205.879 56.5302C205.373 57.5034 205.129 58.59 205.169 59.6847C205.175 60.0586 205.267 60.4261 205.439 60.7586C205.611 61.091 205.858 61.3794 206.16 61.6012C206.755 62.1231 207.521 62.4107 208.314 62.4098C208.576 62.4084 208.837 62.3647 209.085 62.2804C212.167 61.3856 214.35 59.8303 215.634 57.6147C216.327 56.504 216.703 55.2266 216.723 53.9192H216.755ZM232.095 63.178C232.095 64.709 230.513 65.4745 227.35 65.4745C225.103 65.4776 222.871 65.1115 220.745 64.3909C218.833 63.7063 217.589 62.9165 217.015 62.0217C216.936 61.8966 216.812 61.8071 216.667 61.7724C216.523 61.7377 216.371 61.7604 216.243 61.8357C212.949 63.5896 209.293 64.5662 205.559 64.6901C203.311 64.6901 201.759 64.2023 200.904 63.2265C200.829 63.1427 200.732 63.0827 200.624 63.0539C200.515 63.0251 200.401 63.0289 200.294 63.0648C197.658 63.9998 194.887 64.505 192.088 64.5608C190.334 64.5123 188.649 63.8706 187.311 62.7413C185.751 61.5284 184.779 60.9219 184.394 60.9219C183.852 60.9219 182.409 61.4961 180.063 62.6443C177.718 63.7926 175.912 64.3667 174.644 64.3667H174.352C172.672 65.2296 170.864 65.8193 168.997 66.1133C166.254 66.7035 163.459 67.0231 160.653 67.0675C157.521 67.0656 154.428 66.3666 151.602 65.0217C147.967 63.3182 146.15 61.1052 146.15 58.3829C146.15 56.2265 147.369 54.3748 149.806 52.8276C151.858 51.4608 154.268 50.7266 156.737 50.7171C158.904 50.7171 159.987 51.7818 159.987 53.9112C159.916 55.4783 159.251 56.9606 158.126 58.0594C156.735 59.5101 154.987 60.5747 153.056 61.1484C152.962 61.18 152.877 61.2355 152.811 61.3094C152.744 61.3832 152.698 61.473 152.677 61.5699C152.656 61.6668 152.66 61.7676 152.689 61.8623C152.719 61.9571 152.772 62.0426 152.845 62.1106C154.154 63.1078 155.674 63.7962 157.289 64.1241C159.207 64.7006 161.193 65.0215 163.196 65.0783C166.009 65.0532 168.782 64.4157 171.321 63.2104C171.27 63.1353 171.224 63.057 171.183 62.9758C170.845 62.0112 170.672 60.9973 170.671 59.9758C170.661 59.4668 170.549 58.9649 170.341 58.4996C170.133 58.0344 169.834 57.6153 169.46 57.267C169.371 57.1993 169.264 57.1599 169.152 57.1537C168.67 57.1417 168.197 57.0159 167.773 56.7868C167.35 56.5577 166.987 56.2317 166.714 55.8357C166.665 55.7572 166.636 55.6679 166.629 55.5756C166.623 55.4833 166.639 55.3908 166.677 55.3063C166.714 55.2217 166.772 55.1476 166.845 55.0904C166.918 55.0333 167.005 54.9949 167.096 54.9785C169.369 54.5357 171.678 54.3056 173.994 54.2912C175.446 54.2912 176.367 54.8438 176.757 55.9489C176.952 56.9148 177.039 57.8992 177.017 58.8842C177.06 59.9624 177.401 60.5015 178.04 60.5015C178.679 60.5015 179.814 59.6497 181.445 57.9462C183.113 56.2427 184.781 55.3909 186.45 55.3909C186.996 55.394 187.54 55.4536 188.074 55.5688L188.213 55.6174C188.626 55.8492 188.969 56.188 189.205 56.598C189.441 57.0079 189.562 57.4738 189.553 57.9462C189.588 58.9489 189.783 59.9396 190.13 60.8815C190.672 61.8626 191.912 62.3532 193.851 62.3532C196 62.339 198.13 61.956 200.148 61.2211V60.8815C200.218 58.0659 201.383 55.3872 203.398 53.4098C206.621 49.8734 211.577 48.1457 218.267 48.2265C218.397 48.23 218.525 48.1884 218.629 48.1089C218.732 48.0293 218.805 47.9167 218.835 47.7899C219.805 43.5634 221.075 37.1133 222.646 28.4395C224.141 20.0082 225.276 14.3478 226.05 11.4583C227.334 6.64431 228.661 4.2373 230.031 4.2373C230.112 4.2407 230.191 4.26125 230.264 4.29757C230.336 4.3339 230.4 4.38516 230.45 4.44793C230.501 4.5107 230.538 4.58353 230.558 4.66156C230.578 4.73958 230.581 4.82101 230.568 4.90038C230.248 6.77639 229.013 13.5149 226.863 25.116C224.425 38.5284 223.206 48.2777 223.206 54.364C223.206 60.0244 224.233 62.8546 226.286 62.8546C227.14 62.8167 227.988 62.7003 228.821 62.5069C229.674 62.3098 230.545 62.1934 231.421 62.1591C231.849 62.1591 232.063 62.4988 232.063 63.178H232.095ZM261.621 62.2643C261.652 62.3981 261.634 62.5386 261.57 62.6603C261.506 62.7819 261.4 62.8767 261.271 62.9273C257.234 64.4353 252.949 65.1758 248.637 65.1106C244.759 65.1596 240.903 64.5272 237.246 63.2427C232.539 61.5823 230.186 59.0486 230.186 55.6416C230.242 53.7051 230.981 51.8501 232.274 50.4017C233.666 48.6982 235.196 47.8465 236.864 47.8465C237.389 47.8452 237.909 47.9383 238.4 48.1214C238.476 48.1507 238.546 48.1958 238.603 48.2539C238.661 48.312 238.705 48.3815 238.734 48.4581C238.762 48.5346 238.774 48.6162 238.768 48.6976C238.763 48.779 238.739 48.8582 238.701 48.93C237.476 50.8815 236.864 52.4044 236.864 53.4988C236.864 56.5662 238.362 58.9732 241.357 60.7198C244.007 62.2416 247.025 63.0134 250.083 62.9516C253.709 62.8783 257.29 62.1381 260.646 60.7683C260.722 60.7382 260.804 60.7248 260.887 60.7289C260.969 60.733 261.049 60.7545 261.122 60.7921C261.195 60.8296 261.259 60.8822 261.31 60.9465C261.361 61.0107 261.398 61.0851 261.418 61.1645L261.621 62.2643ZM247.272 26.523C246.89 27.6084 246.097 28.5022 245.062 29.0136C244.096 29.6577 242.974 30.0318 241.812 30.0971C240.932 30.17 240.048 30.0169 239.245 29.6524C238.6 29.2696 238.281 28.5042 238.286 27.3559C238.285 25.8933 238.771 24.4714 239.667 23.3128C240.035 22.748 240.547 22.2908 241.151 21.9881C241.755 21.6854 242.429 21.5482 243.104 21.5904H243.673C243.763 21.5917 243.852 21.6138 243.933 21.6551C244.648 21.9817 245.336 22.3657 245.989 22.8033C246.428 23.1306 246.785 23.5553 247.03 24.0438C247.275 24.5324 247.403 25.0712 247.402 25.6174C247.402 25.9239 247.358 26.2288 247.272 26.523ZM109.84 13.585C109.957 13.5868 110.071 13.6241 110.167 13.6919C110.262 13.7597 110.334 13.8548 110.374 13.9646C110.414 14.0744 110.419 14.1936 110.389 14.3063C110.359 14.4191 110.295 14.5201 110.206 14.5958C108.711 15.7818 105.659 16.6632 101.049 17.24C93.6446 17.9246 86.2618 18.647 78.9007 19.4071C68.2068 20.6602 57.6173 22.6762 47.2137 25.4395C47.1027 25.4692 47.0032 25.5313 46.9279 25.6178C46.8526 25.7042 46.805 25.8111 46.7912 25.9246C45.0687 40.1996 44.2075 49.213 44.2075 52.9651C44.2828 57.6124 44.7639 62.2444 45.6456 66.8087C45.6593 66.8832 45.6876 66.9542 45.7289 67.0177C45.7703 67.0812 45.8238 67.1359 45.8865 67.1787C45.9491 67.2216 46.0197 67.2517 46.0941 67.2673C46.1685 67.2829 46.2452 67.2837 46.3199 67.2697C54.1577 65.8465 59.9156 65.1349 63.5934 65.1349C64.1351 65.1349 64.4059 65.4745 64.4059 66.1537C64.3826 67.4529 63.9316 68.7085 63.1222 69.7279C62.7769 70.2483 62.3233 70.6888 61.792 71.0194C61.2607 71.3501 60.6642 71.5632 60.0428 71.6443C57.9466 71.8977 51.8719 72.9193 41.8188 74.709C32.4481 76.3694 27.3565 77.1996 26.544 77.1996C25.6395 77.2211 25.1872 76.9112 25.1872 76.2697C25.1717 75.3547 25.4014 74.4521 25.8526 73.6548C26.3039 72.8575 26.9604 72.1943 27.7546 71.7333C29.4935 70.7096 31.4082 70.0159 33.4014 69.6874C35.0968 69.4179 36.7759 69.1322 38.4388 68.8303C38.5859 68.8046 38.7169 68.7223 38.8035 68.6013C38.8902 68.4802 38.9255 68.3301 38.9019 68.1834C38.1945 63.2015 37.8577 58.1743 37.8945 53.143C37.7962 44.0356 38.7614 34.9477 40.7707 26.0621C40.7948 25.969 40.7946 25.8713 40.7703 25.7783C40.7459 25.6852 40.6982 25.5999 40.6315 25.5303C40.5648 25.4607 40.4815 25.4092 40.3893 25.3806C40.297 25.3519 40.199 25.3472 40.1044 25.3667C37.9974 25.7656 32.2423 27.0729 22.8391 29.2885C11.3505 31.9839 5.66311 33.3316 5.77686 33.3316C5.83541 33.214 5.85801 33.0819 5.84186 32.9516L5.55749 33.1537L5.11875 32.1025C5.06143 31.971 5.05638 31.8227 5.10464 31.6877C5.1529 31.5526 5.25086 31.4408 5.37874 31.3748C13.9532 26.9758 29.4771 22.8357 51.9505 18.9543C73.4272 15.2184 90.6248 13.3936 103.543 13.4799L109.84 13.585Z" fill="white"></path>
  </g>
  <defs>
    <clipPath id="clip0_9495_74974">
      <rect width="266" height="102" fill="white"></rect>
    </clipPath>
  </defs>
</svg>
