<?xml version="1.0" encoding="UTF-8"?>
<svg xmlns="http://www.w3.org/2000/svg" width="230" height="83" viewBox="0 0 230 83" fill="none">
  <g clip-path="url(#clip0_9487_74944)">
    <path d="M73.9324 2.89064H69.591C68.5298 2.89064 68.1471 3.56586 68.1471 4.4333V44.7162C68.1471 54.6437 68.3396 58.3045 70.8497 58.3045H76.351V61.1963H53.9546V58.3057H58.4909C59.5522 58.3057 59.9348 57.6317 59.9348 56.763V9.34836L59.7423 9.15494L38.1256 60.228C37.9318 60.7085 37.7393 60.902 36.3881 60.902C35.9067 60.902 35.5193 59.7462 34.9441 58.4991L12.2577 10.4068L12.0652 10.5991V48.1836C12.0652 52.6181 12.2577 58.3033 15.154 58.3033H20.2691V61.1951H2.60748V58.3057H6.17758C7.33513 58.3057 8.39762 57.8251 8.39762 56.3834V13.9727C8.39762 6.16335 7.53006 2.89064 2.99254 2.89064H0V0H15.4427L38.8006 48.0935L60.1309 0.0048031H73.9324V2.89064Z" fill="white"></path>
    <path d="M91.4989 4.81896C91.5085 5.39453 91.4032 5.96623 91.1892 6.50077C90.9753 7.0353 90.6569 7.52195 90.2526 7.93237C89.8484 8.34278 89.3663 8.66875 88.8346 8.89124C88.3029 9.11374 87.7322 9.22832 87.1557 9.22832C86.5792 9.22832 86.0084 9.11374 85.4767 8.89124C84.945 8.66875 84.4629 8.34278 84.0587 7.93237C83.6544 7.52195 83.336 7.0353 83.1221 6.50077C82.9081 5.96623 82.8029 5.39453 82.8124 4.81896C82.8314 3.68133 83.2974 2.59669 84.1098 1.79888C84.9222 1.00106 86.0162 0.553955 87.1557 0.553955C88.2952 0.553955 89.3891 1.00106 90.2015 1.79888C91.014 2.59669 91.4799 3.68133 91.4989 4.81896ZM99.2202 61.1951H78.6624V58.594H82.04C82.9075 58.594 84.0675 58.2084 84.0675 57.0514V34.3082C84.0675 22.7444 83.295 22.7444 80.1087 22.7444H76.4412V20.1421C77.8851 20.1421 81.1712 19.7564 84.2624 19.3708C87.4487 18.9863 90.5363 18.6006 91.6024 18.6006V43.4703C91.6024 53.9745 91.6986 58.6012 94.5937 58.6012H99.2263L99.2202 61.1951Z" fill="white"></path>
    <path d="M122.095 38.2596C112.249 42.0177 106.168 45.2928 106.168 51.8467C106.168 55.0269 107.907 57.0513 111.188 57.0513C115.628 57.0513 119.585 54.0645 122.095 50.6921V38.2596ZM122.095 35.2717V30.3566C122.095 26.0194 121.805 22.4536 114.952 22.4536C112.175 22.446 109.456 23.2504 107.131 24.7675C107.131 29.9709 105.008 33.729 101.726 33.729C101.383 33.7305 101.044 33.6641 100.727 33.5338C100.41 33.4035 100.122 33.2119 99.8799 32.9699C99.6377 32.728 99.4459 32.4405 99.3156 32.1242C99.1852 31.8078 99.119 31.4688 99.1206 31.1267C99.1206 24.3818 109.348 18.5981 119.576 18.5981C129.132 18.5981 129.615 23.2237 129.615 31.0306V45.7758C129.615 53.775 130.193 56.3761 135.984 57.8238L133.089 62.7389C130.631 62.6125 128.282 61.687 126.4 60.1035C124.518 58.52 123.206 56.3655 122.665 53.9684C118.901 57.7265 112.437 62.7389 107.028 62.7389C101.527 62.7389 98.342 58.9808 98.342 53.6789C98.342 45.389 106.546 41.6333 118.611 36.717L122.095 35.2717Z" fill="white"></path>
    <path d="M149.701 43.4631C149.701 53.9672 149.797 58.5939 152.692 58.5939H156.94V61.1963H136.765V58.5939H140.142C141.011 58.5939 142.17 58.2083 142.17 57.0513V34.3117C142.17 22.7479 141.398 22.7479 138.213 22.7479H134.54V20.1456C135.984 20.1456 139.27 19.7599 142.361 19.3743C145.545 18.9898 148.634 18.6041 149.701 18.6041V26.5024C154.72 22.4559 158.387 18.693 165.627 18.693C171.031 18.693 174.603 21.2954 175.565 26.3065C180.295 22.6446 184.445 18.693 190.528 18.5969C200.564 18.5969 202.207 25.1496 202.207 32.2813V43.4606C202.207 53.9648 202.303 58.5915 205.198 58.5915H209.446V61.1938H189.272V58.5915H192.648C193.519 58.5915 194.677 58.2059 194.677 57.0489V34.3117C194.677 25.4463 191.395 23.518 187.052 23.518C183.192 23.8076 179.23 26.0242 175.95 29.011V43.4679C175.95 53.972 176.047 58.5987 178.944 58.5987H183.192V61.2011H163.016V58.5987H166.398C167.264 58.5987 168.421 58.2131 168.421 57.0561V34.3117C168.421 25.4463 165.141 23.518 160.798 23.518C155.971 23.8076 153.076 26.5048 149.699 29.011L149.701 43.4631Z" fill="white"></path>
    <path d="M222.283 4.81896C222.265 5.9566 221.799 7.04124 220.986 7.83905C220.174 8.63687 219.08 9.08396 217.94 9.08396C216.801 9.08396 215.707 8.63687 214.894 7.83905C214.082 7.04124 213.616 5.9566 213.597 4.81896C213.616 3.68133 214.082 2.59669 214.894 1.79888C215.707 1.00106 216.801 0.553955 217.94 0.553955C219.08 0.553955 220.174 1.00106 220.986 1.79888C221.799 2.59669 222.265 3.68133 222.283 4.81896ZM230.005 61.1951H209.442V58.594H212.82C213.687 58.594 214.846 58.2084 214.846 57.0514V34.3082C214.846 22.7444 214.075 22.7444 210.89 22.7444H207.223V20.1421C208.667 20.1421 211.952 19.7564 215.045 19.3708C218.23 18.9863 221.318 18.6006 222.385 18.6006V43.4703C222.385 53.9745 222.48 58.6012 225.376 58.6012H230.008L230.005 61.1951Z" fill="white"></path>
    <path d="M11.7955 71.7845C11.6126 71.7845 11.5934 71.7029 11.5549 71.4001C11.4526 70.6732 9.77406 70.1266 8.55876 70.1266C4.83464 70.1266 2.69041 72.956 2.69041 76.4714C2.6506 77.2045 2.75814 77.9383 3.00668 78.6294C3.25521 79.3204 3.63973 79.9548 4.13758 80.4953C4.63543 81.0357 5.23654 81.4712 5.90553 81.7761C6.57452 82.081 7.29785 82.2492 8.03293 82.2707C9.85468 82.2707 11.8581 81.4429 12.0037 80.3112C12.0242 80.149 12.0446 79.9507 12.2672 79.9507C12.4297 79.9507 12.4682 80.0913 12.4682 80.2126C12.4682 80.3941 12.4297 80.6932 12.3478 81.9703C10.8904 82.649 9.30178 83.0009 7.69361 83.0012C3.66506 83.0012 0.853027 80.8987 0.853027 76.696C0.853027 72.3528 4.47486 69.4021 8.6839 69.4021C9.87706 69.412 11.0578 69.6451 12.1649 70.0893C12.0242 71.7257 12.0025 71.787 11.804 71.787" fill="white"></path>
    <path d="M16.5306 75.825C16.5306 80.3905 19.2427 82.332 21.63 82.332C24.3614 82.332 26.2024 80.2511 26.2024 76.5723C26.2024 72.0069 23.4903 70.0653 21.1018 70.0653C18.3703 70.0653 16.5294 72.1474 16.5294 75.825M14.8087 76.3921C14.7689 75.4856 14.914 74.5804 15.2351 73.7315C15.5563 72.8827 16.0468 72.1078 16.6769 71.4539C17.307 70.8001 18.0636 70.2808 18.9008 69.9277C19.7379 69.5746 20.6382 69.395 21.547 69.3998C25.6152 69.3998 27.9243 72.0657 27.9243 76.0076C27.9639 76.9141 27.8187 77.8192 27.4975 78.668C27.1763 79.5168 26.6858 80.2916 26.0557 80.9455C25.4256 81.5993 24.6691 82.1185 23.832 82.4717C22.9949 82.8249 22.0947 83.0046 21.186 83C17.1177 83 14.8087 80.3316 14.8087 76.3921Z" fill="white"></path>
    <path d="M29.7651 69.7842H34.4579V70.3849H33.5494C33.5068 70.3812 33.4639 70.3871 33.4239 70.4023C33.384 70.4175 33.348 70.4416 33.3187 70.4727C33.2893 70.5038 33.2675 70.5412 33.2547 70.5819C33.242 70.6227 33.2386 70.6658 33.245 70.7081V78.3672C33.245 81.3372 35.2075 82.1662 36.6839 82.1662C40.8737 82.1662 40.9339 78.9535 40.9339 77.3604V72.509C40.9339 71.5803 40.893 70.3873 40.2865 70.3873H39.2144V69.7866H42.9169V70.3873H42.1684C41.9278 70.3873 41.7028 70.4894 41.7028 70.7922V77.9852C41.7513 78.6645 41.6513 79.3462 41.4097 79.9831C41.1682 80.62 40.7908 81.1968 40.3038 81.6736C39.8167 82.1504 39.2317 82.5158 38.5892 82.7444C37.9467 82.973 37.2621 83.0594 36.5829 82.9976C31.7457 82.9976 31.5291 79.845 31.5291 77.7233V73.2371C31.5291 71.1562 31.4882 70.3873 30.9624 70.3873H29.7675L29.7651 69.7842Z" fill="white"></path>
    <path d="M56.1541 79.7874H56.195V72.5127C56.195 71.5816 56.1541 70.3897 55.5477 70.3897H54.4744V69.789H58.1792V70.3897H57.4296C57.1889 70.3897 56.9639 70.4918 56.9639 70.7946V82.469C56.9639 82.6504 56.9447 82.7922 56.8015 82.7922C56.7413 82.7922 56.6607 82.7309 56.5199 82.5687L56.2793 82.2863L47.5171 71.7377H47.4762V79.8823C47.4762 80.811 47.5171 82.004 48.1235 82.004H49.1968V82.6047H45.4836V82.004H46.232C46.4726 82.004 46.6988 81.9019 46.6988 81.6003V72.7097C46.6988 71.0746 46.5148 70.3861 45.5642 70.3861H44.9373V69.7854H47.872L56.1541 79.7874Z" fill="white"></path>
    <path d="M66.9006 79.159C66.9006 81.2423 66.9415 82.0088 67.4673 82.0088H69.0316V82.6095H63.3642V82.0088H64.8827C64.9253 82.0125 64.9682 82.0066 65.0082 81.9914C65.0482 81.9762 65.0842 81.9521 65.1135 81.921C65.1428 81.8899 65.1646 81.8525 65.1774 81.8117C65.1902 81.771 65.1935 81.7279 65.1871 81.6856V70.5122H64.6806C62.3137 70.5122 61.1598 70.9376 60.9576 71.5443C60.9155 71.6644 60.8373 71.8266 60.6725 71.8266C60.6442 71.8303 60.6154 71.8278 60.5882 71.8192C60.5609 71.8107 60.5359 71.7963 60.5148 71.7771C60.4937 71.7579 60.4771 71.7343 60.4661 71.708C60.4551 71.6817 60.45 71.6533 60.4511 71.6248C60.6068 71.0019 60.7959 70.3879 61.0178 69.7854H71.0759C71.2978 70.3879 71.487 71.0019 71.6427 71.6248C71.6436 71.6534 71.6383 71.682 71.6271 71.7084C71.6159 71.7348 71.599 71.7584 71.5777 71.7776C71.5564 71.7968 71.5312 71.8112 71.5037 71.8196C71.4763 71.8281 71.4473 71.8305 71.4189 71.8266C71.2564 71.8266 71.1782 71.6632 71.1373 71.5443C70.934 70.9364 69.7812 70.5122 67.4132 70.5122H66.9066L66.9006 79.159Z" fill="white"></path>
    <path d="M78.0704 76.1903C79.8115 76.1903 81.5923 75.5631 81.5923 73.582C81.6058 73.1784 81.5368 72.7763 81.3896 72.4002C81.2423 72.024 81.0199 71.6818 80.7358 71.3944C80.4517 71.1069 80.112 70.8803 79.7373 70.7282C79.3626 70.5761 78.9609 70.5018 78.5565 70.5099H77.5253C77.3424 70.5099 77.0596 70.5327 77.0596 70.7946V76.1903H78.0704ZM75.339 73.2396C75.339 71.1587 75.298 70.3898 74.7722 70.3898H73.5774V69.7891H79.2436C81.0256 69.7891 83.3118 70.6985 83.3118 73.2648C83.2817 74.1009 82.9424 74.8962 82.3596 75.4972C81.7767 76.0982 80.9916 76.4624 80.1556 76.5195C83.4935 81.3481 84.1818 82.0149 84.7702 82.0149H85.2756V82.6156H82.9484C82.4828 82.6156 82.2602 82.5964 78.5565 76.7946H77.0596V79.159C77.0596 81.2423 77.1006 82.0089 77.6276 82.0089H78.7803V82.6096H74.0876V82.0089H75.0394C75.2608 82.0089 75.3426 81.8683 75.3426 81.6857L75.339 73.2396Z" fill="white"></path>
    <path d="M91.6758 79.159C91.6758 81.2423 91.7168 82.0088 92.2426 82.0088H93.3965V82.6096H88.7038V82.0088H89.6544C89.697 82.0126 89.7399 82.0066 89.7798 81.9914C89.8198 81.9762 89.8558 81.9521 89.8851 81.921C89.9144 81.8899 89.9363 81.8526 89.9491 81.8118C89.9618 81.771 89.9651 81.7279 89.9588 81.6857V77.0998C87.6317 73.0365 86.9422 71.6429 86.195 70.6937C86.1287 70.5807 86.0291 70.4907 85.9099 70.4362C85.7906 70.3816 85.6574 70.3649 85.5283 70.3886H84.8389V69.7878H89.3932V70.3886H88.4607C88.3199 70.3886 88.137 70.3886 88.137 70.4702C88.137 70.6517 89.8782 73.6024 91.3967 76.2696C93.8863 71.6008 94.1642 71.0157 94.1642 70.6312C94.1642 70.4078 94.0018 70.391 93.7599 70.391H92.5855V69.7903H96.2687V70.391H95.5612C95.2375 70.391 95.1352 70.7346 94.9945 70.9917L91.6746 77.0349L91.6758 79.159Z" fill="white"></path>
    <path d="M106.955 79.3813C106.955 81.8875 107.176 81.8875 107.784 81.8875H109.404C112.986 81.8875 114.24 79.0388 114.24 76.7549C114.24 72.3096 111.472 70.5074 108.532 70.5074C107.197 70.5074 106.955 70.5074 106.955 70.8678V79.3813ZM103.474 69.7842H109.423C115.131 69.7842 116.081 74.1093 116.081 75.9463C116.123 76.83 115.981 77.7128 115.663 78.5386C115.345 79.3643 114.858 80.1148 114.234 80.7423C113.609 81.3697 112.861 81.8604 112.036 82.1829C111.211 82.5054 110.327 82.6528 109.442 82.6155H103.979V82.0148H104.93C104.972 82.0183 105.015 82.0122 105.055 81.9969C105.095 81.9816 105.131 81.9575 105.16 81.9265C105.189 81.8954 105.211 81.8582 105.224 81.8175C105.237 81.7768 105.24 81.7338 105.234 81.6916V73.2383C105.234 71.1586 105.192 70.3897 104.668 70.3897H103.473L103.474 69.7842Z" fill="white"></path>
    <path d="M123.772 71.7041L121.525 77.0781H125.551L123.772 71.7041ZM121.245 77.8062C120.732 78.9902 120.339 80.2221 120.071 81.4838C120.071 81.9079 120.274 82.0088 120.577 82.0088H121.851V82.6096H117.76V82.0088H118.165C118.468 82.0088 118.773 81.9475 118.893 81.6856L124.012 69.5824C124.519 69.4622 125.086 69.3193 125.207 69.3193C125.234 69.3175 125.261 69.3215 125.287 69.331C125.312 69.3405 125.335 69.3554 125.354 69.3745C125.373 69.3936 125.388 69.4165 125.398 69.4418C125.407 69.4671 125.411 69.4941 125.409 69.5211C125.409 69.7842 125.048 69.7614 125.048 70.1482C125.048 71.0157 127.557 77.7653 128.549 80.453C129.014 81.7265 129.257 82.0148 129.783 82.0148H130.385V82.6156H125.852V82.0148H126.945C127.087 82.0148 127.228 81.9536 127.228 81.813C127.228 81.6724 126.661 80.2511 125.831 77.8122L121.245 77.8062Z" fill="white"></path>
    <path d="M136.116 79.159C136.116 81.2423 136.157 82.0088 136.683 82.0088H137.836V82.6096H133.143V82.0088H134.094C134.136 82.0126 134.179 82.0066 134.219 81.9914C134.259 81.9762 134.295 81.9521 134.324 81.921C134.354 81.8899 134.375 81.8526 134.388 81.8118C134.401 81.771 134.404 81.7279 134.398 81.6857V77.0998C132.071 73.0365 131.381 71.6429 130.634 70.6937C130.568 70.5806 130.468 70.4906 130.348 70.436C130.229 70.3814 130.096 70.3648 129.966 70.3886H129.278V69.7878H133.832V70.3886H132.9C132.759 70.3886 132.576 70.3886 132.576 70.4702C132.576 70.6517 134.317 73.6024 135.836 76.2696C138.325 71.6008 138.603 71.0157 138.603 70.6312C138.603 70.4078 138.441 70.391 138.199 70.391H137.028V69.7903H140.71V70.391H140.003C139.679 70.391 139.577 70.7346 139.436 70.9917L136.116 77.0349V79.159Z" fill="white"></path>
    <path d="M149.674 72.4515C149.674 74.0902 151.192 74.6141 152.466 75.0946C155.057 76.0438 156.29 76.8727 156.29 79.0341C156.29 80.7918 154.752 82.9989 151.413 82.9989C150.336 82.9931 149.268 82.8013 148.256 82.4318C148.035 81.1799 147.953 80.7558 147.953 80.5732C147.95 80.541 147.955 80.5086 147.966 80.4783C147.977 80.448 147.995 80.4205 148.018 80.3977C148.041 80.3748 148.068 80.3572 148.098 80.346C148.129 80.3349 148.161 80.3304 148.193 80.3329C148.396 80.3329 148.457 80.5347 148.497 80.7173C148.782 81.8491 150.663 82.272 151.654 82.272C153.274 82.272 154.933 81.4634 154.933 79.6457C154.933 78.0838 153.76 77.4026 151.756 76.6757C150.845 76.3525 148.378 75.5644 148.378 73.0979C148.378 70.6734 150.806 69.401 152.969 69.401C153.75 69.3636 154.53 69.4943 155.255 69.7843C155.275 70.2649 155.317 70.7743 155.317 71.2597C155.317 71.4014 155.255 71.5228 155.093 71.5228C154.891 71.5228 154.869 71.3606 154.852 71.22C154.71 70.3501 153.072 70.1279 152.423 70.1279C152.089 70.097 151.752 70.1328 151.432 70.2333C151.112 70.3338 150.815 70.497 150.558 70.7133C150.302 70.9296 150.092 71.1947 149.939 71.4931C149.786 71.7915 149.695 72.1174 149.67 72.4515" fill="white"></path>
    <path d="M169.873 71.7845C169.691 71.7845 169.671 71.7029 169.632 71.4001C169.532 70.6732 167.851 70.1266 166.636 70.1266C162.913 70.1266 160.768 72.956 160.768 76.4714C160.728 77.2045 160.835 77.9383 161.084 78.6294C161.332 79.3204 161.717 79.9548 162.215 80.4953C162.713 81.0357 163.314 81.4712 163.983 81.7761C164.652 82.081 165.375 82.2492 166.11 82.2707C167.932 82.2707 169.935 81.4429 170.081 80.3112C170.101 80.149 170.122 79.9507 170.344 79.9507C170.507 79.9507 170.547 80.0913 170.547 80.2126C170.547 80.3941 170.506 80.6932 170.426 81.9703C168.968 82.6492 167.379 83.001 165.771 83.0012C161.745 83.0012 158.931 80.8987 158.931 76.696C158.931 72.3528 162.553 69.4021 166.762 69.4021C167.955 69.4118 169.136 69.645 170.243 70.0893C170.103 71.7257 170.081 71.787 169.882 71.787" fill="white"></path>
    <path d="M175.943 75.9813V79.1543C175.943 81.2352 175.984 82.0029 176.51 82.0029H177.663V82.6036H172.97V82.0029H173.921C173.963 82.0067 174.006 82.0007 174.046 81.9855C174.086 81.9703 174.122 81.9462 174.151 81.9151C174.181 81.884 174.202 81.8466 174.215 81.8059C174.228 81.7651 174.231 81.7219 174.225 81.6797V73.2336C174.225 71.1527 174.184 70.385 173.658 70.385H172.463V69.7771H177.156V70.385H176.245C176.024 70.385 175.942 70.5256 175.942 70.7082V75.2604H182.6V73.2396C182.6 71.1587 182.559 70.391 182.033 70.391H180.838V69.7831H185.531V70.391H184.62C184.577 70.3873 184.534 70.3932 184.495 70.4084C184.455 70.4236 184.419 70.4477 184.389 70.4788C184.36 70.5099 184.338 70.5473 184.325 70.5881C184.313 70.6289 184.309 70.672 184.316 70.7142V79.1603C184.316 81.2412 184.357 82.0089 184.884 82.0089H186.037V82.6096H181.345V82.0089H182.295C182.338 82.0127 182.381 82.0067 182.421 81.9915C182.461 81.9763 182.497 81.9522 182.526 81.9211C182.555 81.89 182.577 81.8527 182.59 81.8119C182.603 81.7711 182.606 81.728 182.6 81.6857V75.9813H175.943Z" fill="white"></path>
    <path d="M189.804 75.825C189.804 80.3905 192.517 82.332 194.905 82.332C197.637 82.332 199.478 80.2511 199.478 76.5723C199.478 72.0069 196.764 70.0653 194.376 70.0653C191.645 70.0653 189.804 72.1474 189.804 75.825ZM188.085 76.3921C188.046 75.4856 188.191 74.5804 188.512 73.7315C188.833 72.8827 189.323 72.1078 189.953 71.4539C190.584 70.8001 191.34 70.2808 192.177 69.9277C193.015 69.5746 193.915 69.395 194.824 69.3998C198.892 69.3998 201.201 72.0657 201.201 76.0076C201.24 76.9141 201.095 77.8191 200.774 78.6678C200.452 79.5165 199.962 80.2913 199.332 80.9451C198.702 81.5989 197.945 82.1181 197.108 82.4713C196.271 82.8246 195.371 83.0044 194.463 83C190.394 83 188.085 80.3316 188.085 76.3921Z" fill="white"></path>
    <path d="M205.389 75.825C205.389 80.3905 208.102 82.332 210.489 82.332C213.223 82.332 215.061 80.2511 215.061 76.5723C215.061 72.0069 212.349 70.0653 209.961 70.0653C207.229 70.0653 205.388 72.1474 205.388 75.825M203.669 76.3921C203.629 75.4856 203.774 74.5804 204.095 73.7315C204.416 72.8827 204.907 72.1078 205.537 71.4539C206.167 70.8001 206.924 70.2808 207.761 69.9277C208.598 69.5746 209.498 69.395 210.407 69.3998C214.474 69.3998 216.784 72.0657 216.784 76.0076C216.824 76.9142 216.679 77.8193 216.358 78.6682C216.037 79.5171 215.546 80.292 214.916 80.9458C214.286 81.5997 213.53 82.1189 212.692 82.472C211.855 82.8251 210.955 83.0048 210.046 83C205.979 83 203.669 80.3316 203.669 76.3921Z" fill="white"></path>
    <path d="M223.542 70.3909H222.631C222.589 70.3872 222.546 70.3932 222.506 70.4083C222.466 70.4234 222.43 70.4474 222.401 70.4784C222.372 70.5093 222.35 70.5465 222.337 70.5871C222.324 70.6278 222.321 70.6707 222.327 70.7129V79.3824C222.327 81.8886 222.548 81.8886 223.158 81.8886H224.514C227.953 81.8886 228.744 81.3828 229.087 80.817C229.146 80.7148 229.187 80.5959 229.327 80.5959C229.412 80.5959 229.49 80.716 229.49 80.817C229.356 81.4268 229.187 82.0285 228.985 82.6191H219.352V82.0184H220.304C220.528 82.0184 220.607 81.8778 220.607 81.6952V73.2491C220.607 71.1682 220.569 70.4005 220.042 70.4005H218.847V69.7998H223.54L223.542 70.3909Z" fill="white"></path>
  </g>
  <defs>
    <clipPath id="clip0_9487_74944">
      <rect width="230" height="83" fill="white"></rect>
    </clipPath>
  </defs>
</svg>
