<?xml version="1.0" encoding="UTF-8"?>
<svg xmlns="http://www.w3.org/2000/svg" width="137" height="48" viewBox="0 0 137 48" fill="none">
  <path d="M6.51825 30.8044H0.77948V20.621H6.51825V30.8044Z" fill="white"></path>
  <path fill-rule="evenodd" clip-rule="evenodd" d="M40.9537 31.2815C47.9094 31.2815 52.1242 26.2846 52.1242 20.1188C52.1242 13.9947 47.7364 8.95604 40.909 8.95325C34.0873 8.95325 29.8306 13.992 29.8306 20.1188C29.8306 26.2874 34.0035 31.2815 40.9537 31.2815ZM40.9565 26.4158C37.0878 26.4158 35.134 23.3747 35.134 20.1188C35.134 16.9047 37.1325 13.7772 40.9565 13.7772C44.5209 13.7772 46.7818 16.9047 46.7818 20.1188C46.7818 23.3719 44.8251 26.4158 40.9565 26.4158Z" fill="white"></path>
  <path d="M61.6674 30.8044H56.4088V0.443848H61.6674V30.8044Z" fill="white"></path>
  <path d="M72.0787 30.8044H66.8228V0.443848H72.0787V30.8044Z" fill="white"></path>
  <path d="M83.4418 3.35378C83.4418 7.47737 77.1839 7.47737 77.1839 3.35378C77.1839 -0.775397 83.4418 -0.775397 83.4418 3.35378Z" fill="white"></path>
  <path d="M77.6584 30.8044H82.9617V9.302H77.6584V30.8044Z" fill="white"></path>
  <path d="M104.504 30.8044V19.597C104.504 16.3411 102.724 13.8636 99.3323 13.8636C96.0694 13.8636 93.8559 16.6006 93.8559 19.8565V30.8044H88.5972V9.34665H93.3312L93.6801 12.2594C95.8516 10.1278 98.026 9.04254 100.72 9.04254C105.763 9.04254 109.799 12.823 109.799 19.5524V30.8044H104.504Z" fill="white"></path>
  <path fill-rule="evenodd" clip-rule="evenodd" d="M26.202 10.4738C26.202 14.6337 24.2956 18.841 18.5457 20.0239L27.7205 30.411V30.8016H20.9015L0.77948 7.60851V0.354553C3.19145 0.354553 5.60413 0.365018 8.01645 0.375482C10.4281 0.385942 12.8393 0.396401 15.2492 0.396401C22.4199 0.441041 26.202 5.21749 26.202 10.4738ZM6.51825 6.06285L14.624 15.4707V15.4735H15.2492C18.9002 15.4735 20.4632 13.0378 20.4632 10.6077C20.4632 8.17208 18.8583 5.742 15.2492 5.742H6.51825V6.06285Z" fill="white"></path>
  <path d="M126.826 19.4659L135.563 9.6926V9.38849H129.218L122.756 17.0916V21.9853L130.39 30.8044H136.779V30.411L126.826 19.4659Z" fill="white"></path>
  <path d="M114.634 30.8044H119.895V0.443848H114.634V30.8044Z" fill="white"></path>
  <path d="M34.3949 37.3636V38.358H30.4375V37.3636H34.3949ZM31.5909 35.5341H32.7642V42.8125C32.7642 43.1439 32.8123 43.3925 32.9084 43.5582C33.0078 43.7206 33.1338 43.83 33.2862 43.8864C33.442 43.9394 33.6061 43.9659 33.7784 43.9659C33.9077 43.9659 34.0137 43.9593 34.0966 43.946C34.1795 43.9295 34.2457 43.9162 34.2955 43.9062L34.5341 44.9602C34.4545 44.9901 34.3435 45.0199 34.201 45.0497C34.0585 45.0829 33.8778 45.0994 33.6591 45.0994C33.3277 45.0994 33.0028 45.0282 32.6847 44.8857C32.3698 44.7431 32.108 44.526 31.8991 44.2344C31.6937 43.9427 31.5909 43.5748 31.5909 43.1307V35.5341ZM36.1598 45V37.3636H37.2933V38.517H37.3729C37.5121 38.1392 37.764 37.8326 38.1286 37.5973C38.4931 37.362 38.9041 37.2443 39.3615 37.2443C39.4477 37.2443 39.5554 37.246 39.6847 37.2493C39.8139 37.2526 39.9117 37.2576 39.978 37.2642V38.4574C39.9382 38.4474 39.8471 38.4325 39.7045 38.4126C39.5653 38.3894 39.4179 38.3778 39.2621 38.3778C38.8909 38.3778 38.5594 38.4557 38.2678 38.6115C37.9794 38.764 37.7507 38.9761 37.5817 39.2479C37.416 39.5163 37.3331 39.8229 37.3331 40.1676V45H36.1598ZM43.6159 45.179C43.132 45.179 42.6929 45.0878 42.2985 44.9055C41.9041 44.7199 41.5908 44.4531 41.3588 44.1051C41.1268 43.7538 41.0108 43.3295 41.0108 42.8324C41.0108 42.3949 41.097 42.0402 41.2694 41.7685C41.4417 41.4934 41.6721 41.2779 41.9604 41.1222C42.2488 40.9664 42.5669 40.8504 42.915 40.7741C43.2663 40.6946 43.6193 40.6316 43.9739 40.5852C44.4379 40.5256 44.8141 40.4808 45.1025 40.451C45.3941 40.4179 45.6062 40.3632 45.7388 40.2869C45.8747 40.2107 45.9426 40.0781 45.9426 39.8892V39.8494C45.9426 39.3589 45.8084 38.9777 45.54 38.706C45.2748 38.4342 44.8721 38.2983 44.3319 38.2983C43.7717 38.2983 43.3326 38.4209 43.0144 38.6662C42.6962 38.9115 42.4725 39.1733 42.3432 39.4517L41.2296 39.054C41.4284 38.59 41.6936 38.2287 42.025 37.9702C42.3598 37.7083 42.7244 37.526 43.1188 37.4233C43.5165 37.3172 43.9076 37.2642 44.2921 37.2642C44.5373 37.2642 44.8191 37.294 45.1373 37.3537C45.4587 37.41 45.7686 37.5277 46.0669 37.7067C46.3685 37.8857 46.6188 38.1558 46.8176 38.517C47.0165 38.8783 47.1159 39.3622 47.1159 39.9688V45H45.9426V43.9659H45.883C45.8034 44.1316 45.6709 44.3089 45.4853 44.4979C45.2997 44.6868 45.0527 44.8475 44.7445 44.9801C44.4363 45.1127 44.0601 45.179 43.6159 45.179ZM43.7949 44.125C44.2589 44.125 44.65 44.0339 44.9682 43.8516C45.2897 43.6693 45.5317 43.4339 45.6941 43.1456C45.8598 42.8572 45.9426 42.554 45.9426 42.2358V41.1619C45.8929 41.2216 45.7836 41.2763 45.6145 41.326C45.4488 41.3724 45.2566 41.4138 45.0378 41.4503C44.8224 41.4834 44.6119 41.5133 44.4064 41.5398C44.2042 41.563 44.0402 41.5829 43.9142 41.5994C43.6093 41.6392 43.3243 41.7038 43.0591 41.7933C42.7973 41.8795 42.5852 42.0104 42.4228 42.1861C42.2637 42.3584 42.1841 42.5937 42.1841 42.892C42.1841 43.2997 42.3349 43.608 42.6365 43.8168C42.9415 44.0223 43.3276 44.125 43.7949 44.125ZM55.2283 37.3636L52.4045 45H51.2113L48.3874 37.3636H49.6602L51.7681 43.4489H51.8477L53.9556 37.3636H55.2283ZM59.7053 45.1591C58.9695 45.1591 58.3348 44.9967 57.8011 44.6719C57.2708 44.3438 56.8615 43.8864 56.5732 43.2997C56.2881 42.7098 56.1456 42.0237 56.1456 41.2415C56.1456 40.4593 56.2881 39.7699 56.5732 39.1733C56.8615 38.5734 57.2625 38.1061 57.7763 37.7713C58.2933 37.4332 58.8965 37.2642 59.5859 37.2642C59.9837 37.2642 60.3764 37.3305 60.7642 37.4631C61.152 37.5956 61.505 37.8111 61.8232 38.1094C62.1413 38.4044 62.3949 38.7955 62.5838 39.2827C62.7727 39.7699 62.8672 40.3698 62.8672 41.0824V41.5795H56.9808V40.5653H61.674C61.674 40.1345 61.5878 39.75 61.4155 39.4119C61.2464 39.0739 61.0045 38.8071 60.6896 38.6115C60.3781 38.416 60.0102 38.3182 59.5859 38.3182C59.1186 38.3182 58.7143 38.4342 58.3729 38.6662C58.0348 38.8949 57.7746 39.1932 57.5923 39.5611C57.41 39.929 57.3189 40.3234 57.3189 40.7443V41.4205C57.3189 41.9972 57.4183 42.486 57.6172 42.8871C57.8194 43.2848 58.0994 43.5881 58.4574 43.7969C58.8153 44.0024 59.2313 44.1051 59.7053 44.1051C60.0135 44.1051 60.2919 44.062 60.5405 43.9759C60.7924 43.8864 61.0095 43.7538 61.1918 43.5781C61.3741 43.3991 61.5149 43.1771 61.6143 42.9119L62.7479 43.2301C62.6286 43.6146 62.428 43.9527 62.1463 44.2443C61.8646 44.5327 61.5166 44.758 61.1023 44.9205C60.688 45.0795 60.2223 45.1591 59.7053 45.1591ZM65.8253 34.8182V45H64.652V34.8182H65.8253ZM77.3208 39.0739L76.2669 39.3722C76.2006 39.1965 76.1028 39.0258 75.9735 38.8601C75.8476 38.6911 75.6752 38.5518 75.4565 38.4425C75.2377 38.3331 74.9577 38.2784 74.6163 38.2784C74.149 38.2784 73.7595 38.3861 73.448 38.6016C73.1397 38.8137 72.9856 39.0838 72.9856 39.4119C72.9856 39.7036 73.0917 39.9339 73.3038 40.103C73.5159 40.272 73.8474 40.4129 74.2981 40.5256L75.4316 40.804C76.1144 40.9697 76.6232 41.2232 76.9579 41.5646C77.2927 41.9027 77.46 42.3385 77.46 42.8722C77.46 43.3097 77.3341 43.7008 77.0822 44.0455C76.8336 44.3902 76.4856 44.6619 76.0382 44.8608C75.5907 45.0597 75.0704 45.1591 74.4771 45.1591C73.6982 45.1591 73.0536 44.9901 72.5431 44.652C72.0327 44.3139 71.7096 43.8201 71.5737 43.1705L72.6873 42.892C72.7934 43.303 72.9939 43.6113 73.2889 43.8168C73.5872 44.0223 73.9766 44.125 74.4572 44.125C75.0041 44.125 75.4383 44.009 75.7598 43.777C76.0846 43.5417 76.247 43.2599 76.247 42.9318C76.247 42.6667 76.1542 42.4446 75.9686 42.2656C75.783 42.0833 75.4979 41.9474 75.1135 41.858L73.8407 41.5597C73.1414 41.3939 72.6277 41.1371 72.2995 40.7891C71.9747 40.4377 71.8123 39.9986 71.8123 39.4716C71.8123 39.0407 71.9333 38.6596 72.1752 38.3281C72.4205 37.9967 72.7536 37.7365 73.1745 37.5476C73.5988 37.3587 74.0794 37.2642 74.6163 37.2642C75.372 37.2642 75.9653 37.4299 76.3961 37.7614C76.8303 38.0928 77.1386 38.5303 77.3208 39.0739ZM79.2262 45V37.3636H80.3597V38.5568H80.4592C80.6183 38.1491 80.8751 37.8326 81.2298 37.6072C81.5844 37.3786 82.0103 37.2642 82.5075 37.2642C83.0112 37.2642 83.4305 37.3786 83.7653 37.6072C84.1033 37.8326 84.3668 38.1491 84.5558 38.5568H84.6353C84.8308 38.1624 85.1242 37.8492 85.5153 37.6172C85.9064 37.3819 86.3754 37.2642 86.9222 37.2642C87.605 37.2642 88.1635 37.478 88.5977 37.9055C89.0318 38.3298 89.2489 38.991 89.2489 39.8892V45H88.0756V39.8892C88.0756 39.3258 87.9215 38.9231 87.6133 38.6811C87.305 38.4392 86.9421 38.3182 86.5245 38.3182C85.9876 38.3182 85.5716 38.4806 85.2766 38.8054C84.9817 39.1269 84.8342 39.5346 84.8342 40.0284V45H83.641V39.7699C83.641 39.3357 83.5001 38.986 83.2184 38.7209C82.9367 38.4524 82.5737 38.3182 82.1296 38.3182C81.8247 38.3182 81.5397 38.3994 81.2745 38.5618C81.0127 38.7242 80.8005 38.9496 80.6381 39.2379C80.479 39.523 80.3995 39.8527 80.3995 40.2273V45H79.2262ZM93.6413 45.179C93.1574 45.179 92.7183 45.0878 92.3239 44.9055C91.9295 44.7199 91.6162 44.4531 91.3842 44.1051C91.1522 43.7538 91.0362 43.3295 91.0362 42.8324C91.0362 42.3949 91.1224 42.0402 91.2947 41.7685C91.4671 41.4934 91.6974 41.2779 91.9858 41.1222C92.2741 40.9664 92.5923 40.8504 92.9403 40.7741C93.2917 40.6946 93.6446 40.6316 93.9993 40.5852C94.4633 40.5256 94.8395 40.4808 95.1278 40.451C95.4195 40.4179 95.6316 40.3632 95.7642 40.2869C95.9001 40.2107 95.968 40.0781 95.968 39.8892V39.8494C95.968 39.3589 95.8338 38.9777 95.5653 38.706C95.3002 38.4342 94.8975 38.2983 94.3572 38.2983C93.7971 38.2983 93.358 38.4209 93.0398 38.6662C92.7216 38.9115 92.4979 39.1733 92.3686 39.4517L91.255 39.054C91.4538 38.59 91.719 38.2287 92.0504 37.9702C92.3852 37.7083 92.7498 37.526 93.1442 37.4233C93.5419 37.3172 93.933 37.2642 94.3175 37.2642C94.5627 37.2642 94.8445 37.294 95.1626 37.3537C95.4841 37.41 95.794 37.5277 96.0923 37.7067C96.3939 37.8857 96.6442 38.1558 96.843 38.517C97.0419 38.8783 97.1413 39.3622 97.1413 39.9688V45H95.968V43.9659H95.9084C95.8288 44.1316 95.6963 44.3089 95.5107 44.4979C95.325 44.6868 95.0781 44.8475 94.7699 44.9801C94.4616 45.1127 94.0855 45.179 93.6413 45.179ZM93.8203 44.125C94.2843 44.125 94.6754 44.0339 94.9936 43.8516C95.3151 43.6693 95.5571 43.4339 95.7195 43.1456C95.8852 42.8572 95.968 42.554 95.968 42.2358V41.1619C95.9183 41.2216 95.8089 41.2763 95.6399 41.326C95.4742 41.3724 95.282 41.4138 95.0632 41.4503C94.8478 41.4834 94.6373 41.5133 94.4318 41.5398C94.2296 41.563 94.0656 41.5829 93.9396 41.5994C93.6347 41.6392 93.3497 41.7038 93.0845 41.7933C92.8227 41.8795 92.6106 42.0104 92.4482 42.1861C92.2891 42.3584 92.2095 42.5937 92.2095 42.892C92.2095 43.2997 92.3603 43.608 92.6619 43.8168C92.9669 44.0223 93.353 44.125 93.8203 44.125ZM99.2828 45V37.3636H100.416V38.517H100.496C100.635 38.1392 100.887 37.8326 101.252 37.5973C101.616 37.362 102.027 37.2443 102.485 37.2443C102.571 37.2443 102.678 37.246 102.808 37.2493C102.937 37.2526 103.035 37.2576 103.101 37.2642V38.4574C103.061 38.4474 102.97 38.4325 102.828 38.4126C102.688 38.3894 102.541 38.3778 102.385 38.3778C102.014 38.3778 101.682 38.4557 101.391 38.6115C101.102 38.764 100.874 38.9761 100.705 39.2479C100.539 39.5163 100.456 39.8229 100.456 40.1676V45H99.2828ZM108.291 37.3636V38.358H104.334V37.3636H108.291ZM105.487 35.5341H106.661V42.8125C106.661 43.1439 106.709 43.3925 106.805 43.5582C106.904 43.7206 107.03 43.83 107.183 43.8864C107.338 43.9394 107.503 43.9659 107.675 43.9659C107.804 43.9659 107.91 43.9593 107.993 43.946C108.076 43.9295 108.142 43.9162 108.192 43.9062L108.431 44.9602C108.351 44.9901 108.24 45.0199 108.097 45.0497C107.955 45.0829 107.774 45.0994 107.556 45.0994C107.224 45.0994 106.899 45.0282 106.581 44.8857C106.266 44.7431 106.004 44.526 105.796 44.2344C105.59 43.9427 105.487 43.5748 105.487 43.1307V35.5341Z" fill="white"></path>
</svg>
